<svg width="20" height="8" viewBox="0 0 20 8" fill="none" xmlns="http://www.w3.org/2000/svg">
<path d="M4.28033 1.28033C4.57322 0.987436 4.57322 0.512562 4.28033 0.219669C3.98744 -0.0732236 3.51256 -0.073223 3.21967 0.219671L0.221748 3.2176C0.214999 3.2243 0.208376 3.23112 0.201884 3.23807C0.076651 3.3721 0 3.5521 0 3.75C0 3.8506 0.0198065 3.94658 0.0557336 4.03424C0.0923432 4.12377 0.146989 4.20766 0.21967 4.28034L3.21967 7.28034C3.51256 7.57323 3.98744 7.57323 4.28033 7.28034C4.57322 6.98744 4.57322 6.51257 4.28033 6.21968L2.56065 4.5H18.75C19.1642 4.5 19.5 4.16421 19.5 3.75C19.5 3.33579 19.1642 3 18.75 3H2.56066L4.28033 1.28033Z" fill="#363538"/>
</svg>
