<svg width="395" height="294" viewBox="0 0 395 294" fill="none" xmlns="http://www.w3.org/2000/svg">
<g clip-path="url(#clip0_284_7736)">
<path d="M394.567 258.363H0V258.56H394.567V258.363Z" fill="#EBEBEB"/>
<path d="M136.694 263.397H118.402V263.594H136.694V263.397Z" fill="#EBEBEB"/>
<path d="M362.031 267.627H317.311V267.825H362.031V267.627Z" fill="#EBEBEB"/>
<path d="M78.4322 267.627H33.7119V267.825H78.4322V267.627Z" fill="#EBEBEB"/>
<path d="M187.025 223.167H34.6509C33.4572 223.165 32.3131 222.69 31.4698 221.845C30.6265 221 30.1528 219.855 30.1528 218.661V4.4665C30.1632 3.27966 30.6415 2.14485 31.4837 1.30856C32.3259 0.472265 33.464 0.00203312 34.6509 0L187.025 0C188.22 0 189.366 0.474734 190.211 1.31976C191.056 2.1648 191.531 3.3109 191.531 4.50596V218.661C191.531 219.856 191.056 221.002 190.211 221.848C189.366 222.693 188.22 223.167 187.025 223.167ZM34.6509 0.157827C33.5095 0.159917 32.4156 0.614788 31.6093 1.4226C30.803 2.2304 30.3501 3.32514 30.3501 4.4665V218.661C30.3501 219.803 30.803 220.897 31.6093 221.705C32.4156 222.513 33.5095 222.968 34.6509 222.97H187.025C188.166 222.966 189.26 222.511 190.067 221.703C190.874 220.896 191.329 219.803 191.334 218.661V4.4665C191.329 3.32505 190.874 2.23154 190.067 1.4244C189.26 0.617269 188.166 0.161985 187.025 0.157827H34.6509Z" fill="#EBEBEB"/>
<path d="M357.723 223.167H205.341C204.147 223.163 203.003 222.687 202.159 221.843C201.315 220.999 200.839 219.855 200.835 218.661V4.4665C200.847 3.27894 201.327 2.14414 202.171 1.30806C203.014 0.471989 204.153 0.00201094 205.341 0L357.723 0C358.908 0.00410705 360.044 0.475256 360.885 1.31133C361.725 2.1474 362.203 3.28103 362.213 4.4665V218.661C362.214 219.252 362.099 219.837 361.874 220.383C361.649 220.929 361.318 221.426 360.901 221.844C360.484 222.263 359.989 222.595 359.444 222.822C358.898 223.049 358.314 223.166 357.723 223.167ZM205.341 0.157827C204.199 0.161985 203.106 0.617269 202.299 1.4244C201.492 2.23154 201.036 3.32505 201.032 4.4665V218.661C201.036 219.803 201.492 220.896 202.299 221.703C203.106 222.511 204.199 222.966 205.341 222.97H357.723C358.864 222.966 359.958 222.511 360.765 221.703C361.572 220.896 362.027 219.803 362.031 218.661V4.4665C362.027 3.32505 361.572 2.23154 360.765 1.4244C359.958 0.617269 358.864 0.161985 357.723 0.157827H205.341Z" fill="#EBEBEB"/>
<path d="M248.633 195.729H230.412V258.789H248.633V195.729Z" fill="#E6E6E6"/>
<path d="M235.73 195.729H217.509V258.789H235.73V195.729Z" fill="#E6E6E6"/>
<path d="M232.274 258.789H235.731V248.94H228.636L232.274 258.789Z" fill="#F0F0F0"/>
<path d="M144.136 195.729H125.915V258.789H144.136V195.729Z" fill="#E6E6E6"/>
<path d="M235.738 195.729H141.121V253.943H235.738V195.729Z" fill="#F0F0F0"/>
<path d="M229.843 240.844H192.754C191.799 240.84 190.884 240.459 190.208 239.783C189.533 239.108 189.152 238.193 189.147 237.238V201.798C189.15 200.843 189.53 199.927 190.207 199.253C190.883 198.578 191.799 198.199 192.754 198.199H229.804C230.759 198.199 231.675 198.578 232.351 199.253C233.027 199.927 233.408 200.843 233.41 201.798V237.238C233.406 238.186 233.03 239.095 232.363 239.769C231.696 240.444 230.791 240.83 229.843 240.844ZM192.754 199.02C192.011 199.02 191.299 199.314 190.773 199.837C190.246 200.361 189.949 201.071 189.944 201.813V237.253C189.94 237.622 190.009 237.989 190.146 238.331C190.284 238.673 190.487 238.985 190.745 239.249C191.003 239.513 191.31 239.724 191.65 239.869C191.989 240.014 192.353 240.09 192.722 240.094H229.812C230.555 240.099 231.27 239.808 231.8 239.286C232.329 238.763 232.63 238.052 232.637 237.309V201.798C232.637 201.43 232.564 201.066 232.423 200.727C232.282 200.387 232.076 200.079 231.816 199.82C231.555 199.56 231.247 199.354 230.907 199.215C230.567 199.075 230.203 199.003 229.835 199.004L192.754 199.02Z" fill="#E0E0E0"/>
<path d="M184.058 240.844H146.969C146.013 240.84 145.099 240.459 144.423 239.783C143.748 239.108 143.366 238.193 143.362 237.238V201.798C143.364 200.843 143.745 199.927 144.421 199.253C145.097 198.578 146.014 198.199 146.969 198.199H184.058C185.013 198.199 185.929 198.578 186.605 199.253C187.281 199.927 187.662 200.843 187.664 201.798V237.238C187.662 238.194 187.282 239.11 186.606 239.785C185.93 240.461 185.014 240.842 184.058 240.844ZM146.969 199.02C146.601 199.019 146.237 199.09 145.897 199.23C145.557 199.37 145.248 199.576 144.988 199.835C144.728 200.095 144.522 200.403 144.381 200.743C144.24 201.082 144.167 201.446 144.167 201.813V237.253C144.167 237.621 144.24 237.986 144.38 238.326C144.521 238.665 144.728 238.974 144.988 239.234C145.248 239.495 145.557 239.701 145.897 239.842C146.236 239.982 146.601 240.055 146.969 240.055H184.058C184.801 240.053 185.513 239.757 186.039 239.233C186.566 238.708 186.863 237.997 186.867 237.253V201.798C186.863 201.055 186.565 200.345 186.039 199.821C185.513 199.298 184.8 199.004 184.058 199.004L146.969 199.02Z" fill="#E0E0E0"/>
<path d="M180.617 209.397C179.929 209.397 179.257 209.193 178.685 208.811C178.113 208.429 177.666 207.886 177.403 207.25C177.139 206.615 177.07 205.915 177.204 205.241C177.337 204.566 177.668 203.946 178.154 203.459C178.64 202.972 179.259 202.64 179.934 202.504C180.608 202.369 181.308 202.437 181.944 202.699C182.58 202.961 183.124 203.406 183.507 203.977C183.89 204.549 184.096 205.221 184.097 205.909C184.097 206.832 183.731 207.718 183.079 208.372C182.426 209.026 181.541 209.395 180.617 209.397Z" fill="#FAFAFA"/>
<path d="M196.226 209.397C195.538 209.402 194.864 209.202 194.289 208.824C193.714 208.445 193.264 207.905 192.997 207.271C192.729 206.637 192.655 205.937 192.785 205.261C192.915 204.585 193.242 203.963 193.725 203.473C194.209 202.983 194.826 202.647 195.501 202.509C196.175 202.37 196.875 202.434 197.513 202.693C198.15 202.952 198.697 203.394 199.083 203.964C199.469 204.534 199.678 205.205 199.683 205.893V205.964C199.672 206.876 199.304 207.746 198.658 208.389C198.011 209.031 197.138 209.393 196.226 209.397Z" fill="#FAFAFA"/>
<path d="M144.577 258.789H141.113V248.94H148.207L144.577 258.789Z" fill="#F0F0F0"/>
<path d="M138.335 195.729H120.114V258.789H138.335V195.729Z" fill="#E6E6E6"/>
<path d="M134.871 258.789H138.336V248.94H131.241L134.871 258.789Z" fill="#F0F0F0"/>
<path d="M138.335 195.729H43.7178V253.943H138.335V195.729Z" fill="#F0F0F0"/>
<path d="M132.44 240.844H95.351C94.3945 240.844 93.4772 240.464 92.8009 239.788C92.1246 239.111 91.7446 238.194 91.7446 237.238V201.798C91.7467 200.843 92.1276 199.927 92.8037 199.253C93.4798 198.578 94.3959 198.199 95.351 198.199H132.401C133.356 198.199 134.272 198.578 134.948 199.253C135.624 199.927 136.005 200.843 136.007 201.798V237.238C136.007 238.187 135.633 239.099 134.965 239.774C134.297 240.449 133.39 240.834 132.44 240.844ZM95.351 199.02C94.9835 199.019 94.6193 199.09 94.2795 199.23C93.9397 199.37 93.6308 199.576 93.3705 199.835C93.1103 200.095 92.9038 200.403 92.7629 200.743C92.6221 201.082 92.5495 201.446 92.5495 201.813V237.253C92.5454 237.622 92.6139 237.989 92.7513 238.331C92.8886 238.673 93.0921 238.985 93.35 239.249C93.6079 239.513 93.9153 239.724 94.2546 239.869C94.5939 240.014 94.9584 240.09 95.3273 240.094H132.417C133.161 240.099 133.877 239.808 134.408 239.286C134.939 238.764 135.241 238.053 135.25 237.309V201.798C135.245 201.057 134.949 200.347 134.424 199.824C133.899 199.301 133.189 199.006 132.448 199.004L95.351 199.02Z" fill="#E0E0E0"/>
<path d="M86.6547 240.844H49.6127C48.6562 240.844 47.7389 240.464 47.0626 239.788C46.3863 239.111 46.0063 238.194 46.0063 237.238V201.798C46.0063 201.324 46.0997 200.856 46.281 200.419C46.4623 199.982 46.7281 199.585 47.0631 199.25C47.3981 198.916 47.7957 198.651 48.2332 198.471C48.6707 198.291 49.1395 198.198 49.6127 198.199H86.6547C87.1279 198.198 87.5967 198.291 88.0342 198.471C88.4717 198.651 88.8693 198.916 89.2043 199.25C89.5392 199.585 89.805 199.982 89.9863 200.419C90.1677 200.856 90.261 201.324 90.261 201.798V237.238C90.2589 238.194 89.8783 239.11 89.2024 239.785C88.5266 240.461 87.6105 240.842 86.6547 240.844ZM49.6127 199.02C49.2445 199.018 48.8796 199.089 48.5388 199.228C48.1981 199.367 47.8882 199.573 47.6272 199.833C47.3661 200.092 47.1589 200.401 47.0175 200.741C46.8761 201.081 46.8034 201.445 46.8034 201.813V237.253C46.7992 237.622 46.8677 237.989 47.0051 238.331C47.1424 238.673 47.3459 238.985 47.6038 239.249C47.8618 239.513 48.1692 239.724 48.5084 239.869C48.8477 240.014 49.2122 240.09 49.5811 240.094H86.6705C87.039 240.095 87.4041 240.024 87.7449 239.883C88.0857 239.743 88.3955 239.537 88.6565 239.277C88.9174 239.016 89.1245 238.707 89.2658 238.367C89.4071 238.026 89.4798 237.662 89.4798 237.293V201.782C89.4798 201.414 89.407 201.049 89.2656 200.709C89.1243 200.369 88.9171 200.061 88.656 199.801C88.3949 199.541 88.0851 199.336 87.7443 199.196C87.4036 199.057 87.0386 198.986 86.6705 198.988L49.6127 199.02Z" fill="#E0E0E0"/>
<path d="M83.2223 209.397C82.534 209.398 81.8608 209.196 81.2876 208.815C80.7144 208.433 80.2671 207.891 80.0023 207.256C79.7375 206.62 79.667 205.921 79.7997 205.245C79.9325 204.57 80.2625 203.949 80.7481 203.461C81.2337 202.974 81.853 202.641 82.5278 202.505C83.2026 202.369 83.9024 202.436 84.5389 202.698C85.1754 202.96 85.72 203.405 86.1036 203.977C86.4873 204.548 86.693 205.22 86.6945 205.909C86.6966 206.366 86.6083 206.819 86.4348 207.242C86.2612 207.665 86.0058 208.05 85.6831 208.374C85.3605 208.698 84.977 208.955 84.5547 209.131C84.1324 209.306 83.6796 209.397 83.2223 209.397Z" fill="#FAFAFA"/>
<path d="M98.8313 209.397C98.143 209.402 97.4688 209.202 96.894 208.824C96.3191 208.445 95.8694 207.905 95.6017 207.271C95.334 206.637 95.2603 205.937 95.39 205.261C95.5197 204.585 95.8469 203.963 96.3302 203.473C96.8136 202.983 97.4314 202.647 98.1056 202.509C98.7797 202.37 99.4799 202.434 100.118 202.693C100.755 202.952 101.302 203.394 101.688 203.964C102.074 204.534 102.283 205.205 102.288 205.893V205.964C102.277 206.876 101.909 207.746 101.263 208.389C100.616 209.031 99.7427 209.393 98.8313 209.397Z" fill="#FAFAFA"/>
<path d="M47.1742 258.789H43.7178V248.94H50.8042L47.1742 258.789Z" fill="#F0F0F0"/>
<path d="M210.92 20.9277H177.019V54.829H210.92V20.9277Z" fill="#EBEBEB"/>
<path d="M212.427 20.9355H210.928V54.8368H212.427V20.9355Z" fill="#E0E0E0"/>
<path d="M206.335 25.5288H181.619V50.2445H206.335V25.5288Z" fill="white"/>
<path d="M198.112 42.0137C197.569 42.558 196.924 42.9898 196.214 43.2844C195.503 43.579 194.742 43.7306 193.973 43.7306C193.204 43.7306 192.443 43.579 191.733 43.2844C191.022 42.9898 190.377 42.558 189.834 42.0137C188.739 40.9161 188.125 39.429 188.125 37.8786C188.125 36.3283 188.739 34.8412 189.834 33.7436C190.933 32.6482 192.422 32.0332 193.973 32.0332C195.525 32.0332 197.013 32.6482 198.112 33.7436C199.207 34.8412 199.822 36.3283 199.822 37.8786C199.822 39.429 199.207 40.9161 198.112 42.0137Z" fill="#F5F5F5"/>
<path d="M177.713 64.5195H137.964V104.268H177.713V64.5195Z" fill="#EBEBEB"/>
<path d="M179.473 64.5273H177.713V104.276H179.473V64.5273Z" fill="#E0E0E0"/>
<path d="M172.332 69.9092H143.354V98.8862H172.332V69.9092Z" fill="white"/>
<path d="M164.014 78.2109H151.656V90.5688H164.014V78.2109Z" fill="#F5F5F5"/>
<path d="M355.505 51.7358H333.985V56.7626H355.505V51.7358Z" fill="#E6E6E6"/>
<path d="M333.986 51.7358H244.908V56.7626H333.986V51.7358Z" fill="#F5F5F5"/>
<path d="M295.523 25.0474H270.444V51.7438H295.523V25.0474Z" fill="#E0E0E0"/>
<path d="M270.444 25.0474H264.021V51.7438H270.444V25.0474Z" fill="#F0F0F0"/>
<path d="M302.097 20.9277H283.26V51.7355H302.097V20.9277Z" fill="#E6E6E6"/>
<path d="M283.268 20.9277H277.823V51.7355H283.268V20.9277Z" fill="#F0F0F0"/>
<path d="M304.701 25.0474H288.815V51.7438H304.701V25.0474Z" fill="#F0F0F0"/>
<path d="M288.816 25.0474H285.186V51.7438H288.816V25.0474Z" fill="#FAFAFA"/>
<path d="M322.646 29.561H301.812V51.7357H322.646V29.561Z" fill="#E6E6E6"/>
<path d="M301.813 29.561H296.478V51.7357H301.813V29.561Z" fill="#FAFAFA"/>
<path d="M328.107 26.144H312.458V51.7436H328.107V26.144Z" fill="#E6E6E6"/>
<path d="M312.458 26.144H307.937V51.7436H312.458V26.144Z" fill="#F0F0F0"/>
<path d="M332.265 29.561H317.066V51.7357H332.265V29.561Z" fill="#F0F0F0"/>
<path d="M317.067 29.561H314.052V51.7357H317.067V29.561Z" fill="#FAFAFA"/>
<path d="M321.249 200.772C327.988 191.965 344.031 188.69 349.579 183.134C356.839 175.851 356.807 164.921 350.62 160.975C345.254 157.551 327.451 180.704 325.455 183.308C318.55 192.217 316.554 198.822 315.259 205.222C315.409 199.785 315.551 194.782 315.67 190.931C316.041 178.36 316.506 174.312 316.727 173.073C317.516 172.457 318.353 171.755 318.858 171.376C323.166 168.164 332.715 164.337 337.489 159.673C344.465 152.855 343.337 144.68 338.444 141.657C333.338 138.501 324.295 145.99 319.505 153.431C314.715 160.873 316.759 168.007 315.417 174.138C315.133 175.353 314.841 179.954 314.573 186.338C313.437 180.047 309.957 174.421 304.835 170.595C298.23 165.324 292.524 158.9 287.079 159.729C281.634 160.557 284.594 169.056 288.871 175.022C292.706 180.333 311.637 185.636 314.423 189.905C314.091 198.586 313.799 209.515 313.594 219.727C312.103 214.455 313.129 214.013 307.013 205.917C303.383 201.119 288.468 195.184 286.701 198.499C284.933 201.813 287.624 208.032 293.25 212.395C297.788 215.915 307.818 215.907 310.193 218.093C310.738 218.598 312.561 220.555 313.555 221.684C313.31 234.136 313.208 245.129 313.326 248.885L314.305 248.925C314.257 247.954 314.368 241.617 314.565 233.229C317.011 228.77 333.504 226.126 338.562 221.518C343.881 216.665 347.701 210.999 345.42 207.203C343.518 204.046 328.548 208.339 322.417 213.579C318.361 217.075 315.883 220.8 314.746 225.803C314.881 220.09 315.046 213.966 315.196 208.166C316.443 206.753 319.229 203.415 321.249 200.772Z" fill="#E6E6E6"/>
<path d="M322.685 258.623H305.592C304.653 258.623 303.848 257.408 303.667 255.719L302.452 244.671H325.818L324.611 255.719C324.413 257.408 323.616 258.623 322.685 258.623Z" fill="#F0F0F0"/>
<path d="M326.307 248.941H301.963C301.379 248.941 300.889 248.151 300.826 247.062L300.329 238.887C300.25 237.632 300.779 236.52 301.465 236.52H326.812C327.491 236.52 328.02 237.616 327.941 238.887L327.444 247.062C327.389 248.136 326.891 248.941 326.307 248.941Z" fill="#F0F0F0"/>
<path d="M197.284 294C281.786 294 350.289 290 350.289 285.067C350.289 280.133 281.786 276.134 197.284 276.134C112.781 276.134 44.2783 280.133 44.2783 285.067C44.2783 290 112.781 294 197.284 294Z" fill="#F5F5F5"/>
<path d="M169.261 79.4504C167.518 83.688 157.251 83.396 146.495 78.9611C135.739 74.5262 128.424 67.495 130.207 63.2573C130.618 62.2788 131.785 58.6093 132.953 58.1043C136.962 56.4076 144.593 60.2192 152.855 63.6282C160.549 66.7848 169.348 68.8444 170.714 73.0189C171.495 75.5599 169.759 78.243 169.261 79.4504Z" fill="#049C01"/>
<path opacity="0.2" d="M170.674 73.0184C171.329 76.3407 169.885 77.9347 169.261 79.4499C168.638 80.965 166.815 81.9593 164.266 82.3065C163.947 82.3607 163.626 82.3976 163.303 82.417C161.349 82.5319 159.387 82.4287 157.456 82.1093C157.18 82.1093 156.903 82.0225 156.619 81.9751C154.352 81.5681 152.118 80.9931 149.935 80.2548L149.146 79.9865C148.27 79.6787 147.371 79.3394 146.471 78.9685C145.571 78.5976 144.719 78.1794 143.875 77.8085L143.149 77.4613C141.159 76.4775 139.242 75.3542 137.412 74.0995L136.765 73.6418C135.167 72.5123 133.703 71.2045 132.401 69.7435C132.203 69.5226 132.022 69.3095 131.848 69.0885C130.152 66.9421 129.481 64.8903 130.152 63.2568C130.594 62.2073 131.541 58.6167 132.898 58.0959C134.567 57.6256 136.334 57.6256 138.004 58.0959L138.793 58.2853C142.738 59.2954 147.71 61.5444 152.784 63.6356C158.766 66.1056 165.844 68.6703 169.316 71.6295C169.523 71.8034 169.721 71.9878 169.908 72.1819C170.185 72.4399 170.441 72.7196 170.674 73.0184Z" fill="black"/>
<g opacity="0.2">
<path d="M139.187 57.6072L138.824 58.2701L132.417 69.7441C132.219 69.5232 132.038 69.3101 131.864 69.0891L138.019 58.0886L138.501 57.2363L139.187 57.6072Z" fill="black"/>
</g>
<g opacity="0.2">
<path d="M144.032 62.2863L137.427 74.1234L136.78 73.6657L143.346 61.9233L144.032 62.2863Z" fill="black"/>
</g>
<g opacity="0.2">
<path d="M156.178 69.073L149.936 80.2551L149.146 79.9868L155.46 68.6548L156.178 69.073Z" fill="black"/>
</g>
<g opacity="0.2">
<path d="M150.527 65.9163L143.891 77.8085L143.165 77.4613L149.841 65.498L150.527 65.9163Z" fill="black"/>
</g>
<g opacity="0.2">
<path d="M163.54 71.2354L157.456 82.1097C157.179 82.1097 156.903 82.0229 156.619 81.9755L162.845 70.8408L163.54 71.2354Z" fill="black"/>
</g>
<path d="M170.627 75.7568C168.883 79.9944 158.742 79.8287 147.979 75.3859C137.215 70.9431 129.907 63.9198 131.659 59.6505C133.411 55.3813 143.544 55.5865 154.307 60.0214C165.071 64.4564 172.371 71.4955 170.627 75.7568Z" fill="#049C01"/>
<path opacity="0.2" d="M166.965 74.2182C165.718 77.209 157.827 76.7908 149.312 73.2791C140.797 69.7675 134.895 64.4882 136.126 61.4974C137.357 58.5065 145.264 58.9248 153.787 62.4364C162.309 65.9481 168.204 71.2274 166.965 74.2182Z" fill="white"/>
<path d="M223.648 41.1455C226.458 44.7676 221.107 53.5349 211.898 60.6608C202.689 67.7867 192.959 70.6275 190.158 66.9738C189.51 66.1374 186.891 63.3359 187.048 62.026C187.577 57.7094 194.671 52.9904 201.742 47.5138C208.323 42.416 214.471 35.803 218.772 36.6947C221.384 37.2708 222.851 40.1196 223.648 41.1455Z" fill="#049C01"/>
<path opacity="0.2" d="M218.772 36.7266C221.983 37.8156 222.646 39.8831 223.648 41.1457C224.651 42.4083 224.611 44.5153 223.648 46.9064C223.538 47.1984 223.404 47.4904 223.262 47.7902C222.397 49.5446 221.338 51.1963 220.105 52.7144C219.94 52.9354 219.758 53.1485 219.577 53.3694C218.092 55.1394 216.478 56.7959 214.747 58.3252L214.139 58.8539C213.437 59.4615 212.695 60.0692 211.93 60.661C211.164 61.2529 210.399 61.8132 209.626 62.3419C209.413 62.4997 209.184 62.6496 208.971 62.7996C207.127 64.0364 205.196 65.1388 203.194 66.0982C202.949 66.2244 202.713 66.327 202.484 66.4375C200.705 67.2604 198.839 67.8799 196.92 68.2841C196.636 68.3472 196.36 68.3945 196.084 68.434C193.377 68.8365 191.262 68.434 190.181 67.0057C189.487 66.106 186.843 63.494 187.072 62.0657C187.475 60.3742 188.345 58.8295 189.582 57.6071C189.755 57.4098 189.945 57.2125 190.142 57.0073C192.991 54.056 197.402 50.8915 201.742 47.5377C206.864 43.592 212.609 38.7073 216.894 37.1764C217.152 37.0814 217.416 36.9997 217.683 36.9317C218.04 36.8364 218.404 36.7678 218.772 36.7266Z" fill="black"/>
<g opacity="0.2">
<path d="M189.747 56.376L190.141 57.0231L196.896 68.284C196.612 68.3471 196.336 68.3945 196.06 68.434L189.581 57.607L189.076 56.8179L189.747 56.376Z" fill="black"/>
</g>
<g opacity="0.2">
<path d="M196.21 54.4976L203.171 66.0978C202.926 66.2241 202.689 66.3267 202.46 66.4372L195.532 54.9L196.21 54.4976Z" fill="black"/>
</g>
<g opacity="0.2">
<path d="M208.134 47.3481L214.723 58.3329L214.116 58.8616L207.456 47.7427L208.134 47.3481Z" fill="black"/>
</g>
<g opacity="0.2">
<path d="M202.594 50.6704L209.602 62.3417C209.389 62.4995 209.16 62.6495 208.947 62.7994L201.908 51.0729L202.594 50.6704Z" fill="black"/>
</g>
<g opacity="0.2">
<path d="M213.674 42.0215L220.082 52.7143C219.916 52.9352 219.734 53.1483 219.553 53.3692L212.995 42.4318L213.674 42.0215Z" fill="black"/>
</g>
<path d="M209.509 57.5623C218.712 50.4339 223.899 41.7195 221.094 38.0982C218.289 34.4769 208.555 37.32 199.352 44.4484C190.149 51.5768 184.962 60.2911 187.767 63.9124C190.572 67.5337 200.306 64.6907 209.509 57.5623Z" fill="#049C01"/>
<path opacity="0.2" d="M217.967 40.5377C219.948 43.0945 215.655 49.739 208.371 55.3814C201.087 61.0237 193.575 63.5252 191.594 60.9605C189.613 58.3959 193.906 51.7592 201.229 46.1169C208.552 40.4746 215.986 37.9731 217.967 40.5377Z" fill="white"/>
<path d="M185.557 24.1793C184.658 29.3719 173.01 31.5656 159.816 29.1982C146.621 26.8308 136.67 20.7308 137.594 15.5383C137.807 14.3309 138.178 9.93547 139.416 9.05953C143.512 6.17129 153.029 8.58605 163.162 10.3853C172.631 12.0661 182.992 12.2003 185.557 16.5642C187.112 19.2473 185.818 22.6958 185.557 24.1793Z" fill="#049C01"/>
<path opacity="0.2" d="M185.557 16.5719C187.135 20.1546 185.88 22.2931 185.557 24.1555C185.233 26.0178 183.426 27.5724 180.648 28.5983C180.309 28.7325 179.954 28.8429 179.591 28.9534C177.418 29.5641 175.184 29.932 172.931 30.0503C172.607 30.0503 172.291 30.0503 171.96 30.1056C169.305 30.2032 166.646 30.1056 164.005 29.8136L163.082 29.6952C162.017 29.5611 160.92 29.4032 159.823 29.2059C158.726 29.0087 157.661 28.7877 156.611 28.5431L155.712 28.33C153.232 27.7178 150.801 26.9266 148.436 25.9626C148.144 25.8521 147.868 25.7259 147.591 25.6154C145.516 24.7319 143.546 23.6175 141.72 22.2931C141.444 22.0958 141.192 21.8986 140.931 21.6934C138.485 19.6969 137.23 17.5504 137.585 15.5539C137.822 14.2597 138.011 10.03 139.4 9.07512C140.789 8.12026 142.778 7.82039 145.145 7.8125H146.092C150.827 7.97033 156.927 9.28818 163.153 10.393C170.492 11.7029 179.086 12.8472 183.71 15.3251C183.981 15.4688 184.245 15.6269 184.499 15.7985C184.871 16.0284 185.225 16.287 185.557 16.5719Z" fill="black"/>
<g opacity="0.2">
<path d="M146.353 7.00739L146.1 7.79653L141.712 22.2693C141.436 22.072 141.184 21.8747 140.923 21.6695L145.137 7.78863L145.469 6.70752L146.353 7.00739Z" fill="black"/>
</g>
<g opacity="0.2">
<path d="M152.95 11.0477L148.428 25.9544C148.136 25.844 147.86 25.7177 147.584 25.6072L152.082 10.7715L152.95 11.0477Z" fill="black"/>
</g>
<g opacity="0.2">
<path d="M168.283 15.7195L163.998 29.8371L163.075 29.7187L167.407 15.4512L168.283 15.7195Z" fill="black"/>
</g>
<g opacity="0.2">
<path d="M161.157 13.5575L156.603 28.5511L155.704 28.338L160.281 13.2734L161.157 13.5575Z" fill="black"/>
</g>
<g opacity="0.2">
<path d="M177.097 16.3351L172.923 30.074C172.599 30.074 172.284 30.074 171.952 30.1292L176.221 16.0747L177.097 16.3351Z" fill="black"/>
</g>
<path d="M186.172 19.6489C187.096 14.4569 177.145 8.34404 163.947 5.99537C150.748 3.6467 139.299 5.95163 138.375 11.1436C137.452 16.3355 147.402 22.4484 160.601 24.7971C173.8 27.1457 185.248 24.8408 186.172 19.6489Z" fill="#049C01"/>
<path opacity="0.2" d="M181.682 18.8525C181.035 22.522 172.039 23.9898 161.591 22.1353C151.143 20.2808 143.212 15.8222 143.867 12.1212C144.522 8.42014 153.51 6.98391 163.958 8.84627C174.406 10.7086 182.337 15.183 181.682 18.8525Z" fill="white"/>
<path d="M254.449 156.746L173.239 161.481C170.37 161.649 167.555 162.334 164.929 163.501L76.7199 202.957C75.1722 203.638 73.9047 204.829 73.1292 206.331C72.3536 207.833 72.1169 209.556 72.4585 211.212L87.0339 280.143C87.2803 281.253 87.7772 282.292 88.4868 283.18C89.1963 284.069 90.0996 284.783 91.1276 285.269C92.1556 285.755 93.2811 285.999 94.418 285.983C95.5549 285.967 96.6731 285.692 97.6872 285.177L184.752 241.712L265.149 239.021C266.139 238.994 267.111 238.758 268.002 238.326C268.892 237.895 269.681 237.278 270.315 236.518C270.949 235.758 271.413 234.872 271.678 233.918C271.942 232.965 272.001 231.965 271.849 230.987L261.093 164.984C260.533 161.575 257.945 156.643 254.449 156.746Z" fill="#049C01"/>
<path opacity="0.1" d="M254.449 156.746L173.239 161.481C170.37 161.649 167.555 162.334 164.929 163.501L76.7199 202.957C75.1722 203.638 73.9047 204.829 73.1292 206.331C72.3536 207.833 72.1169 209.556 72.4585 211.212L87.0339 280.143C87.2803 281.253 87.7772 282.292 88.4868 283.18C89.1963 284.069 90.0996 284.783 91.1276 285.269C92.1556 285.755 93.2811 285.999 94.418 285.983C95.5549 285.967 96.6731 285.692 97.6872 285.177L184.752 241.712L265.149 239.021C266.139 238.994 267.111 238.758 268.002 238.326C268.892 237.895 269.681 237.278 270.315 236.518C270.949 235.758 271.413 234.872 271.678 233.918C271.942 232.965 272.001 231.965 271.849 230.987L261.093 164.984C260.533 161.575 257.945 156.643 254.449 156.746Z" fill="black"/>
<path d="M91.438 111.863L48.8203 151.148L125.299 234.115L167.917 194.83L91.438 111.863Z" fill="#049C01"/>
<path opacity="0.5" d="M167.912 194.837L125.291 234.12L48.8237 151.159L76.7907 125.378L91.4449 111.868L93.8833 114.519L167.912 194.837Z" fill="#FAFAFA"/>
<path d="M91.7197 116.936L54.1152 151.6L125.652 229.205L163.257 194.541L91.7197 116.936Z" stroke="#049C01" stroke-width="0.789135" stroke-miterlimit="10"/>
<path d="M117.14 182.258C121.453 178.282 120.907 170.674 115.921 165.265C110.935 159.855 103.396 158.694 99.0828 162.669C94.7695 166.645 95.3151 174.254 100.301 179.663C105.288 185.072 112.826 186.234 117.14 182.258Z" fill="#049C01"/>
<path opacity="0.1" d="M124.841 200.448L109.697 205.68L76.7905 125.378L91.4448 111.868L93.8832 114.519L124.841 200.448Z" fill="black"/>
<path d="M127.786 79.3625L73.2949 99.1201L111.758 205.201L166.249 185.443L127.786 79.3625Z" fill="#049C01"/>
<path opacity="0.5" d="M127.786 79.3625L73.2949 99.1201L111.758 205.201L166.249 185.443L127.786 79.3625Z" fill="#FAFAFA"/>
<path d="M126.08 84.1461L77.9995 101.58L113.977 200.805L162.058 183.372L126.08 84.1461Z" stroke="#049C01" stroke-width="0.789135" stroke-miterlimit="10"/>
<path d="M124.291 154.214C129.806 152.214 132.244 144.986 129.736 138.07C127.228 131.154 120.725 127.168 115.21 129.168C109.695 131.168 107.257 138.395 109.765 145.311C112.272 152.228 118.776 156.213 124.291 154.214Z" fill="#049C01"/>
<path d="M254.977 159.547L174.88 164.061C172.041 164.217 169.255 164.899 166.665 166.073L79.7498 205.309C78.2189 206.001 76.9699 207.195 76.2094 208.693C75.4489 210.191 75.2224 211.903 75.5674 213.548L90.1427 282.51C90.3775 283.613 90.862 284.648 91.5591 285.535C92.2562 286.421 93.1473 287.136 94.1639 287.625C95.1805 288.113 96.2955 288.362 97.4233 288.353C98.5512 288.343 99.6618 288.075 100.67 287.569L186.449 244.348L265.741 241.838C266.723 241.807 267.686 241.567 268.568 241.134C269.449 240.701 270.228 240.085 270.853 239.327C271.477 238.569 271.932 237.686 272.189 236.738C272.445 235.79 272.496 234.798 272.338 233.828L261.551 167.833C260.99 164.393 258.434 159.453 254.977 159.547Z" fill="#049C01"/>
<path opacity="0.2" d="M178.139 176.135L246.865 171.905" stroke="black" stroke-width="1.57827" stroke-linecap="round" stroke-linejoin="round"/>
<path opacity="0.2" d="M169.909 177.91L182.464 235.58" stroke="black" stroke-width="1.57827" stroke-linecap="round" stroke-linejoin="round"/>
<path opacity="0.2" d="M86.1973 229.977L95.0514 274.334C95.0514 274.334 101.838 256.737 86.1973 229.977Z" fill="#FAFAFA"/>
<path opacity="0.2" d="M87.3569 230.498C87.6647 231.287 166.002 197.67 166.002 197.67C166.214 205.292 164.309 212.823 160.497 219.426C156.686 226.03 151.117 231.447 144.411 235.075C120.832 248.293 87.3569 230.498 87.3569 230.498Z" fill="#FAFAFA"/>
<path d="M139.393 231.808C141.267 231.808 142.786 230.289 142.786 228.415C142.786 226.541 141.267 225.021 139.393 225.021C137.519 225.021 136 226.541 136 228.415C136 230.289 137.519 231.808 139.393 231.808Z" fill="#049C01"/>
<path opacity="0.2" d="M166.042 197.67C166.042 197.67 175.756 212.293 173.405 237.198L166.042 197.67Z" fill="black"/>
<g opacity="0.2">
<path d="M82.4487 212.553L84.2558 211.756" stroke="#FAFAFA" stroke-width="0.789135" stroke-linecap="round" stroke-linejoin="round"/>
<path d="M88.0044 210.099L161.157 177.76" stroke="#FAFAFA" stroke-width="0.789135" stroke-linecap="round" stroke-linejoin="round" stroke-dasharray="4.1 4.1"/>
<path d="M163.035 176.932L164.834 176.135" stroke="#FAFAFA" stroke-width="0.789135" stroke-linecap="round" stroke-linejoin="round"/>
</g>
<path opacity="0.2" d="M180.444 189.1L249.17 184.862" stroke="black" stroke-width="1.57827" stroke-linecap="round" stroke-linejoin="round"/>
<path opacity="0.2" d="M183.537 205.27L252.263 201.032" stroke="black" stroke-width="1.57827" stroke-linecap="round" stroke-linejoin="round"/>
<path d="M237.198 90.4033C237.198 90.4033 235.47 108.814 228.628 110.4C224.391 111.315 219.974 110.873 216.002 109.137L210.439 104.86L207.724 114.33C207.724 114.33 210.691 118.362 216.886 115.569C216.886 115.569 227.934 120.43 234.042 115.569C240.15 110.708 242.107 97.3714 242.107 97.3714L237.198 90.4033Z" fill="#B97964"/>
<path d="M242.699 81.4863C242.699 81.4863 237.924 73.3504 240.094 58.6014C242.265 43.8525 254.63 42.0296 259.405 43.0949C264.179 44.1603 268.085 48.7451 271.336 57.473C274.587 66.2008 275.787 68.4735 281.208 66.9426C286.63 65.4117 301.055 60.6295 305.072 64.8829C306.226 66.0471 307.075 67.4777 307.544 69.0482C308.013 70.6186 308.088 72.2806 307.763 73.887C307.763 73.887 327.83 69.0101 326.094 86.9077C324.358 104.805 295.397 121.511 267.848 103.827C240.3 86.1422 242.699 81.4863 242.699 81.4863Z" fill="#263238"/>
<path d="M242.478 124.802C242.478 124.802 237.025 171.7 237.206 193.693C237.388 215.686 245.2 267.517 245.2 267.517H254.835C254.835 267.517 253.565 226.071 253.746 211.891C253.928 197.71 256.469 174.249 256.469 174.249C256.469 174.249 259.554 195.335 263.192 202.784C266.83 210.234 287.008 236.599 301.008 244.782L307.55 238.777C307.55 238.777 293.006 220.784 287.553 211.875C282.1 202.966 277.199 200.44 275.195 183.869C273.191 167.297 276.655 140.79 270.839 124.794L242.478 124.802Z" fill="#263238"/>
<path opacity="0.2" d="M256.469 174.249L252.279 144.522C252.279 144.522 248.972 162.388 255.482 184.208L256.469 174.249Z" fill="black"/>
<path d="M247.181 270.145L247.504 279.354L253.967 279.89L254.291 279.03V269.498L247.181 270.145Z" fill="#B97964"/>
<path d="M244.111 266.641L244.703 270.089L255.798 270.358L256.5 266.215L244.111 266.641Z" fill="#049C01"/>
<path d="M297.969 245.421L308.252 235.841L310.516 239.447L301.686 247.528L297.969 245.421Z" fill="#049C01"/>
<path d="M302.925 245.421L309.712 251.134L314.068 246.013L308.497 240.252L302.925 245.421Z" fill="#B97964"/>
<path d="M315.386 245.618L319.489 248.144C319.676 248.259 319.836 248.413 319.957 248.597C320.078 248.78 320.157 248.988 320.19 249.205C320.222 249.422 320.206 249.644 320.144 249.854C320.082 250.065 319.974 250.259 319.829 250.424C316.854 253.786 309.254 262.324 308.497 262.924C307.558 263.713 306.421 262.387 306.129 261.204C306.129 261.204 308.284 258.347 308.497 256.516C308.587 255.102 308.587 253.684 308.497 252.271C308.48 251.917 308.599 251.57 308.828 251.3L313.413 245.918C313.65 245.638 313.98 245.453 314.343 245.398C314.706 245.342 315.077 245.421 315.386 245.618Z" fill="#263238"/>
<path d="M255.546 280.143L256.398 284.878C256.437 285.094 256.429 285.317 256.373 285.53C256.317 285.742 256.215 285.94 256.074 286.109C255.933 286.279 255.757 286.415 255.558 286.509C255.36 286.603 255.142 286.652 254.922 286.653C250.432 286.653 239.006 286.701 238.051 286.543C236.859 286.346 237.072 284.641 237.774 283.647C237.774 283.647 241.333 283.347 242.825 282.266C243.934 281.395 244.988 280.457 245.981 279.456C246.235 279.208 246.573 279.064 246.928 279.054L253.991 278.888C254.358 278.875 254.717 278.995 255.003 279.225C255.289 279.456 255.481 279.782 255.546 280.143Z" fill="#263238"/>
<path d="M271.873 98.792L281.721 91.8792C281.721 91.8792 279.101 81.3994 275.218 80.8786C271.336 80.3578 252.065 76.6883 239.81 80.8786C239.81 80.8786 235.407 82.1333 234.049 94.4991L239.289 96.172C239.289 96.172 241.167 119.325 242.327 122.892H270.294C270.294 122.892 270.61 102.982 271.873 98.792Z" fill="#049C01"/>
<path d="M273.995 97.3004C273.995 97.3004 277.728 107.954 278.391 113.683C278.391 113.683 269.521 110.147 267.233 108.53L265.496 102.296L259.625 99.431L257.881 104.166L262.782 110.242C262.782 110.242 276.142 122.742 282.913 119.885C289.683 117.029 280.238 92.9443 280.238 92.9443L273.995 97.3004Z" fill="#B97964"/>
<path d="M248.94 50.6545C248.94 50.6545 245.523 57.4726 245.784 63.0202C246.044 68.5678 248.846 70.8327 254.172 71.6139C254.172 71.6139 256.445 78.7161 250.479 79.4342C250.021 79.4895 249.864 81.2966 249.895 81.5886C250.053 82.7407 251.197 83.372 252.263 83.6403C253.385 83.8888 254.53 84.0158 255.679 84.0191C256.886 84.0607 258.087 83.8273 259.19 83.3364C260.293 82.8456 261.271 82.1103 262.048 81.1861C262.174 81.0362 263.374 79.5052 263.374 79.5052C263.374 79.5052 260.517 78.1243 261.519 68.844C262.879 67.959 263.923 66.6661 264.502 65.1509C265.049 64.8584 265.533 64.4591 265.923 63.9766C266.313 63.494 266.603 62.938 266.775 62.3416C267.201 60.495 265.567 57.9382 262.584 60.495C262.584 60.495 256.966 57.6541 254.835 47.7031C253.262 49.3271 251.183 50.3678 248.94 50.6545Z" fill="#B97964"/>
<path d="M250.542 61.5052L251.024 57.8594L248.443 60.716C248.71 60.9994 249.037 61.2179 249.401 61.3547C249.765 61.4915 250.156 61.543 250.542 61.5052Z" fill="#A24E3F"/>
<path d="M252.042 64.1724C252.042 64.1724 254.764 64.5907 256.074 62.8467" stroke="#222221" stroke-width="0.591851" stroke-linecap="round" stroke-linejoin="round"/>
<path d="M254.764 52.7538C255.379 52.5741 256.032 52.5636 256.652 52.7233C257.273 52.883 257.839 53.207 258.292 53.6613" stroke="#222221" stroke-width="0.789135" stroke-linecap="round" stroke-linejoin="round"/>
<path d="M250.053 51.9643C250.053 51.9643 248.475 51.7197 247.772 52.6114" stroke="#222221" stroke-width="0.789135" stroke-linecap="round" stroke-linejoin="round"/>
<path d="M255.861 57.5517C255.79 58.0962 255.435 58.5066 255.072 58.4592C254.709 58.4119 254.464 57.9305 254.535 57.3781C254.606 56.8257 254.961 56.4232 255.324 56.4706C255.687 56.5179 255.932 56.9993 255.861 57.5517Z" fill="#222221"/>
<path d="M249.579 56.3442C249.508 56.8966 249.153 57.299 248.79 57.2517C248.427 57.2043 248.191 56.723 248.262 56.1706C248.333 55.6182 248.688 55.2157 249.051 55.2631C249.414 55.3104 249.65 55.7918 249.579 56.3442Z" fill="#222221"/>
<path d="M255.333 56.4708L254.102 55.9263C254.119 56.0602 254.171 56.1872 254.252 56.2953C254.334 56.4033 254.441 56.4888 254.565 56.5434C254.688 56.5981 254.824 56.6201 254.958 56.6074C255.093 56.5946 255.222 56.5476 255.333 56.4708Z" fill="#222221"/>
<path d="M249.146 55.3028L247.899 54.7583C247.915 54.8948 247.967 55.0246 248.049 55.1349C248.131 55.2452 248.241 55.3322 248.367 55.3872C248.493 55.4422 248.631 55.4634 248.767 55.4486C248.904 55.4338 249.034 55.3835 249.146 55.3028Z" fill="#222221"/>
<path d="M241.349 121.661V124.952L271.651 125.204L270.839 121.29L241.349 121.661Z" fill="#049C01"/>
<path opacity="0.4" d="M241.349 121.661V124.952L271.651 125.204L270.839 121.29L241.349 121.661Z" fill="white"/>
<path d="M241.72 105.689L225.053 163.659C224.499 165.6 223.376 167.331 221.829 168.628C220.282 169.924 218.381 170.728 216.373 170.934C215.094 171.057 213.804 170.939 212.569 170.587L180.712 161.425C178.136 160.682 175.961 158.948 174.662 156.604C173.363 154.259 173.047 151.495 173.783 148.918L190.458 90.9319C191.202 88.3601 192.936 86.1883 195.279 84.8926C197.622 83.5968 200.383 83.2827 202.958 84.0191L234.839 93.173C237.408 93.9242 239.575 95.6632 240.865 98.0092C242.155 100.355 242.462 103.117 241.72 105.689Z" fill="#049C01"/>
<path opacity="0.2" d="M241.72 105.689L225.053 163.659C224.499 165.6 223.376 167.331 221.829 168.628C220.282 169.924 218.381 170.728 216.373 170.934C215.094 171.057 213.804 170.939 212.569 170.587L180.712 161.425C178.136 160.682 175.961 158.948 174.662 156.604C173.363 154.259 173.047 151.495 173.783 148.918L190.458 90.9319C191.202 88.3601 192.936 86.1883 195.279 84.8926C197.622 83.5968 200.383 83.2827 202.958 84.0191L234.839 93.173C237.408 93.9242 239.575 95.6632 240.865 98.0092C242.155 100.355 242.462 103.117 241.72 105.689Z" fill="black"/>
<path d="M238.95 106.375L222.283 164.353C221.862 165.829 221.109 167.189 220.082 168.33C219.055 169.47 217.781 170.361 216.357 170.934C215.079 171.057 213.789 170.939 212.553 170.587L180.712 161.425C178.136 160.682 175.961 158.948 174.662 156.604C173.363 154.259 173.047 151.495 173.783 148.917L190.458 90.9319C190.88 89.4581 191.633 88.1003 192.66 86.9623C193.687 85.8244 194.961 84.9364 196.384 84.3663C197.662 84.2361 198.954 84.354 200.188 84.7135L232.006 93.9069C234.576 94.6452 236.75 96.3714 238.051 98.7079C239.352 101.044 239.676 103.801 238.95 106.375Z" fill="#049C01"/>
<path opacity="0.5" d="M238.95 106.375L222.283 164.353C221.862 165.829 221.109 167.189 220.082 168.33C219.055 169.47 217.781 170.361 216.357 170.934C215.079 171.057 213.789 170.939 212.553 170.587L180.712 161.425C178.136 160.682 175.961 158.948 174.662 156.604C173.363 154.259 173.047 151.495 173.783 148.917L190.458 90.9319C190.88 89.4581 191.633 88.1003 192.66 86.9623C193.687 85.8244 194.961 84.9364 196.384 84.3663C197.662 84.2361 198.954 84.354 200.188 84.7135L232.006 93.9069C234.576 94.6452 236.75 96.3714 238.051 98.7079C239.352 101.044 239.676 103.801 238.95 106.375Z" fill="#FAFAFA"/>
<path d="M194.144 111.307L190.733 110.346L178.459 153.898L181.869 154.86L194.144 111.307Z" fill="#FAFAFA"/>
<path d="M186.765 156.241L183.355 155.254L195.627 111.718L199.028 112.696L186.765 156.241Z" fill="#FAFAFA"/>
<path d="M191.721 157.661L188.312 156.683L200.583 113.146L203.992 114.125L191.721 157.661Z" fill="#FAFAFA"/>
<path opacity="0.5" d="M223.836 119.832L220.426 118.871L208.151 162.423L211.561 163.384L223.836 119.832Z" fill="black"/>
<path d="M223.404 107.52L221.747 113.43L219.727 112.862C218.748 112.584 217.92 111.93 217.423 111.043C216.926 110.155 216.801 109.107 217.075 108.127L218.18 104.182L222.26 105.35C222.699 105.486 223.067 105.791 223.281 106.198C223.496 106.605 223.54 107.08 223.404 107.52Z" fill="#FAFAFA"/>
<path d="M222.433 104.623L218.354 103.455L219.577 99.131C219.713 98.6459 219.944 98.1924 220.256 97.7966C220.568 97.4007 220.955 97.0702 221.395 96.8239C221.834 96.5777 222.318 96.4205 222.819 96.3614C223.319 96.3023 223.826 96.3425 224.311 96.4795L226.411 97.0714L224.58 103.44C224.519 103.66 224.415 103.866 224.273 104.045C224.132 104.224 223.956 104.374 223.756 104.484C223.556 104.594 223.336 104.663 223.109 104.687C222.882 104.711 222.652 104.69 222.433 104.623Z" fill="#FAFAFA"/>
<path d="M226.3 106.533L230.404 107.709L229.315 111.568C229.18 112.054 228.95 112.509 228.639 112.906C228.327 113.303 227.94 113.634 227.5 113.88C227.06 114.127 226.575 114.284 226.074 114.342C225.573 114.4 225.065 114.358 224.58 114.219L222.449 113.619L224.146 107.717C224.208 107.497 224.314 107.291 224.456 107.113C224.599 106.934 224.775 106.785 224.976 106.675C225.176 106.565 225.396 106.496 225.624 106.471C225.851 106.447 226.081 106.468 226.3 106.533Z" fill="#FAFAFA"/>
<path d="M231.856 102.588L230.617 106.975L226.514 105.799C226.074 105.671 225.703 105.374 225.482 104.974C225.26 104.573 225.206 104.101 225.33 103.661L227.161 97.2925L229.205 97.8685C229.689 98.0043 230.141 98.234 230.536 98.5446C230.932 98.8552 231.262 99.2407 231.508 99.6789C231.754 100.117 231.912 100.6 231.971 101.099C232.031 101.598 231.992 102.104 231.856 102.588Z" fill="#FAFAFA"/>
</g>
<defs>
<clipPath id="clip0_284_7736">
<rect width="394.567" height="294" fill="white"/>
</clipPath>
</defs>
</svg>
