<svg width="28" height="28" viewBox="0 0 28 28" fill="none" xmlns="http://www.w3.org/2000/svg">
<path d="M22.943 19.6127C22.6199 20.3658 22.2208 21.0839 21.7518 21.7559C21.1253 22.6507 20.6108 23.269 20.2165 23.6132C19.604 24.1755 18.946 24.4649 18.2425 24.4812C17.7385 24.4812 17.1295 24.3377 16.4202 24.046C15.7085 23.7555 15.0552 23.6132 14.4567 23.6132C13.8302 23.6132 13.1582 23.7555 12.4383 24.046C11.7197 24.3377 11.1387 24.4905 10.6942 24.5045C10.021 24.5337 9.34782 24.2374 8.67699 23.6132C8.24882 23.2399 7.71332 22.5982 7.07049 21.6905C6.38216 20.7234 5.81632 19.5975 5.37299 18.3177C4.89816 16.9329 4.66016 15.5935 4.66016 14.2962C4.66016 12.811 4.98099 11.5289 5.62382 10.4555C6.11003 9.61258 6.80513 8.90904 7.64216 8.4127C8.46754 7.91764 9.40976 7.65108 10.3722 7.64037C10.9088 7.64037 11.6123 7.80603 12.4838 8.1327C13.3553 8.45937 13.9153 8.62503 14.1592 8.62503C14.3435 8.62503 14.963 8.4302 16.0177 8.04403C17.0128 7.68587 17.8528 7.5377 18.5412 7.59603C20.4078 7.74653 21.809 8.48153 22.7412 9.80687C21.0728 10.8184 20.248 12.2335 20.2643 14.05C20.2783 15.4652 20.7928 16.6424 21.8008 17.5769C22.2465 18.0033 22.7664 18.3446 23.335 18.5837C23.2113 18.9419 23.0807 19.2837 22.943 19.6127ZM18.6648 2.77653C18.6648 3.88487 18.2588 4.92087 17.4527 5.8787C16.4773 7.01737 15.299 7.67653 14.0215 7.5727C14.0048 7.43333 13.9966 7.29307 13.997 7.1527C13.997 6.08753 14.459 4.94887 15.2838 4.0167C15.6945 3.54536 16.2172 3.1522 16.8507 2.83953C17.483 2.53153 18.0803 2.3612 18.6427 2.33203C18.6578 2.48136 18.6648 2.62953 18.6648 2.77653Z" fill="#9D9D9D"/>
</svg>
