
<svg width="28" height="28" viewBox="0 0 28 28" fill="none" xmlns="http://www.w3.org/2000/svg">
<path d="M22.943 19.6128C22.6199 20.3659 22.2208 21.084 21.7518 21.756C21.1253 22.6508 20.6108 23.2692 20.2165 23.6133C19.604 24.1757 18.946 24.465 18.2425 24.4813C17.7385 24.4813 17.1295 24.3378 16.4202 24.0462C15.7085 23.7557 15.0552 23.6133 14.4567 23.6133C13.8302 23.6133 13.1582 23.7557 12.4383 24.0462C11.7197 24.3378 11.1387 24.4907 10.6942 24.5047C10.021 24.5338 9.34782 24.2375 8.67699 23.6133C8.24882 23.24 7.71332 22.5983 7.07049 21.6907C6.38216 20.7235 5.81632 19.5977 5.37299 18.3178C4.89816 16.933 4.66016 15.5937 4.66016 14.2963C4.66016 12.8112 4.98099 11.529 5.62382 10.4557C6.11003 9.6127 6.80513 8.90916 7.64216 8.41282C8.46754 7.91777 9.40976 7.65121 10.3722 7.64049C10.9088 7.64049 11.6123 7.80615 12.4838 8.13282C13.3553 8.45949 13.9153 8.62515 14.1592 8.62515C14.3435 8.62515 14.963 8.43032 16.0177 8.04415C17.0128 7.68599 17.8528 7.53782 18.5412 7.59615C20.4078 7.74665 21.809 8.48165 22.7412 9.80699C21.0728 10.8185 20.248 12.2337 20.2643 14.0502C20.2783 15.4653 20.7928 16.6425 21.8008 17.577C22.2465 18.0034 22.7664 18.3447 23.335 18.5838C23.2113 18.942 23.0807 19.2838 22.943 19.6128ZM18.6648 2.77665C18.6648 3.88499 18.2588 4.92099 17.4527 5.87882C16.4773 7.01749 15.299 7.67665 14.0215 7.57282C14.0048 7.43345 13.9966 7.29319 13.997 7.15282C13.997 6.08765 14.459 4.94899 15.2838 4.01682C15.6945 3.54549 16.2172 3.15232 16.8507 2.83965C17.483 2.53165 18.0803 2.36132 18.6427 2.33215C18.6578 2.48149 18.6648 2.62965 18.6648 2.77665Z" fill="#9D9D9D"/>
</svg>
