<svg width="317" height="292" viewBox="0 0 317 292" fill="none" xmlns="http://www.w3.org/2000/svg">
<g clip-path="url(#clip0_256_7358)">
<path d="M308.625 99.9401C306.716 94.6567 304.518 89.4823 302.041 84.4403C280.32 40.2247 239.863 10.2401 190.051 2.35304C187.907 2.01469 185.753 1.71521 183.591 1.4546C142.935 -3.42853 86.0104 2.66852 62.8087 40.2521C50.7518 59.7709 55.6966 84.3855 42.9196 103.349C26.3704 127.963 5.09592 140.26 1.15239 178.674C-1.74183 206.937 -0.390736 237.477 19.5944 260.027C43.1459 286.603 83.562 295.752 118.08 290.65C151.59 285.705 181.588 269.156 210.9 253.615C238.718 238.862 270.534 228.15 293.07 205.606C321.498 177.124 321.47 135.487 308.625 99.9401Z" fill="#049C01"/>
<path opacity="0.7" d="M308.625 99.9401C306.716 94.6567 304.518 89.4823 302.041 84.4403C280.32 40.2247 239.863 10.2401 190.051 2.35304C187.907 2.01469 185.753 1.71521 183.591 1.4546C142.935 -3.42853 86.0104 2.66852 62.8087 40.2521C50.7518 59.7709 55.6966 84.3855 42.9196 103.349C26.3704 127.963 5.09592 140.26 1.15239 178.674C-1.74183 206.937 -0.390736 237.477 19.5944 260.027C43.1459 286.603 83.562 295.752 118.08 290.65C151.59 285.705 181.588 269.156 210.9 253.615C238.718 238.862 270.534 228.15 293.07 205.606C321.498 177.124 321.47 135.487 308.625 99.9401Z" fill="white"/>
<path d="M35.3819 88.157C38.1252 89.3435 44.7709 89.1926 44.7778 89.1926C44.7847 89.1926 43.3444 84.8307 43.2141 84.5701C41.7533 81.5113 37.1308 76.4636 33.3724 76.9711C32.7498 77.0725 32.1555 77.304 31.6282 77.6503C31.101 77.9967 30.6526 78.4503 30.3123 78.9815C29.9719 79.5126 29.7473 80.1095 29.653 80.7333C29.5587 81.3571 29.5968 81.9937 29.7649 82.6018C30.389 85.2079 33.0638 87.142 35.3819 88.157Z" fill="#CCCCCC"/>
<path d="M102.779 89.6179C102.833 89.6591 103.986 85.1943 104.027 84.8994C104.493 81.5457 103.423 74.7834 100.008 73.1305C99.4303 72.8731 98.805 72.7404 98.1728 72.7412C97.5405 72.742 96.9155 72.8763 96.3387 73.1352C95.7619 73.3942 95.2463 73.772 94.8255 74.2439C94.4048 74.7158 94.0884 75.2712 93.897 75.8738C92.978 78.3909 94.1371 81.484 95.5156 83.61C97.1342 86.0653 102.772 89.6179 102.779 89.6179Z" fill="#CCCCCC"/>
<path d="M122.661 65.476C118.889 65.0713 114.431 70.2768 113.059 73.3356C112.943 73.6031 111.557 78.0061 111.626 78.0061H111.708C111.022 78.8154 110.234 79.6933 109.431 80.6672C107.95 82.4778 106.304 84.5421 104.63 86.9082C102.826 89.4378 101.173 92.0714 99.6786 94.7953C97.9895 97.8371 96.5734 101.023 95.4471 104.315C95.451 104.353 95.451 104.393 95.4471 104.431C95.4471 103.32 95.4471 100.213 95.3922 99.9734C94.9532 96.6128 92.1345 90.3717 88.4035 89.6859C87.7807 89.5889 87.1445 89.6241 86.5362 89.7892C85.9279 89.9543 85.3611 90.2455 84.8728 90.6439C84.3844 91.0424 83.9853 91.5392 83.7015 92.102C83.4177 92.6648 83.2555 93.281 83.2255 93.9106C83.0061 96.5853 84.9401 99.2601 86.8261 100.947C88.9591 102.847 94.8709 104.685 95.3373 104.836C94.2796 108.206 93.4457 111.643 92.8409 115.123C92.4774 117.181 92.1551 119.238 91.9013 121.296C91.9013 120.336 91.867 119.478 91.8533 119.355C91.4144 115.994 88.5956 109.753 84.8647 109.067C84.2417 108.969 83.6051 109.004 82.9963 109.168C82.3875 109.333 81.8203 109.624 81.3317 110.023C80.8431 110.422 80.444 110.919 80.1605 111.482C79.8771 112.045 79.7156 112.662 79.6866 113.292C79.4672 115.96 81.4012 118.635 83.2941 120.322C85.187 122.009 90.2141 123.703 91.5241 124.128C91.4281 124.924 91.3183 125.713 91.2292 126.508C90.7697 130.315 90.3307 134.121 89.7889 137.838C89.5969 139.148 89.3637 140.431 89.1031 141.72C89.1031 140.863 89.0688 140.143 89.0551 140.033C88.623 136.672 85.8042 130.431 82.0733 129.745C81.45 129.647 80.813 129.682 80.2039 129.846C79.5948 130.011 79.0271 130.302 78.538 130.701C78.0488 131.099 77.6491 131.596 77.3649 132.16C77.0807 132.723 76.9183 133.34 76.8884 133.97C76.669 136.638 78.6099 139.313 80.4959 141C82.3819 142.687 86.929 144.216 88.5133 144.731C88.2321 146.034 87.9578 147.351 87.6354 148.606C87.3885 149.456 87.2171 150.293 86.9496 151.136C86.6821 151.98 86.4078 152.81 86.1472 153.633C85.5779 155.197 84.995 156.822 84.3983 158.331C83.9936 159.394 83.589 160.388 83.1844 161.396C83.3901 160.1 83.7399 157.542 83.7399 157.323C83.6956 154.335 82.8832 151.408 81.3806 148.825C81.3946 148.492 81.3739 148.159 81.3189 147.831C81.2404 147.205 81.0313 146.604 80.7051 146.065C80.3788 145.525 79.9428 145.061 79.4254 144.701C78.9079 144.342 78.3206 144.095 77.7016 143.977C77.0825 143.859 76.4456 143.873 75.8322 144.018C72.1699 144.998 69.8381 151.431 69.6598 154.819C69.6598 155.018 69.7832 157.199 69.8861 158.571C69.7009 157.775 69.5294 157 69.3306 156.177C68.9465 154.559 68.5144 152.947 68.0549 151.219C67.808 150.391 67.5542 149.554 67.2936 148.709C67.0605 147.865 66.7038 147.001 66.4089 146.144C65.6819 144.155 64.8521 142.179 63.9742 140.211C65.3939 139.868 70.4142 138.593 72.4305 137.043C74.4469 135.493 76.5455 132.982 76.5455 130.301C76.5629 129.671 76.4474 129.044 76.2066 128.461C75.9657 127.878 75.6048 127.353 75.1474 126.918C74.6901 126.484 74.1464 126.151 73.5519 125.941C72.9574 125.731 72.3252 125.649 71.6967 125.699C67.9177 126.11 64.6463 132.125 63.9605 135.445C63.9193 135.65 63.693 138.085 63.597 139.429C63.0552 138.25 62.5271 137.063 61.9441 135.89C60.257 132.461 58.4395 129.108 56.6495 125.719C56.1008 124.684 55.5659 123.662 55.0241 122.606C55.5316 122.489 61.5326 121.097 63.7959 119.362C65.8054 117.819 67.9109 115.302 67.9109 112.62C67.9269 111.993 67.8115 111.37 67.5723 110.791C67.333 110.212 66.9751 109.689 66.5217 109.256C66.0682 108.823 65.5292 108.49 64.9393 108.278C64.3493 108.066 63.7216 107.98 63.0963 108.025C59.3243 108.437 56.046 114.451 55.3601 117.771C55.3121 118.018 54.9967 121.529 54.9555 122.421C53.769 120.137 52.6031 117.846 51.5263 115.562C50.0829 112.446 48.8435 109.238 47.816 105.961C48.056 105.913 54.3314 104.486 56.6427 102.71C58.6521 101.167 60.7576 98.6428 60.7576 95.9681C60.7752 95.3371 60.6595 94.7096 60.4182 94.1263C60.1769 93.543 59.8154 93.0172 59.3573 92.583C58.8992 92.1488 58.3547 91.816 57.7593 91.6063C57.1639 91.3967 56.5311 91.3148 55.902 91.3662C52.1299 91.7777 48.8585 97.7855 48.1726 101.105C48.1246 101.324 47.8846 103.999 47.7954 105.275H47.5828C46.6341 101.961 45.9868 98.5685 45.6488 95.1382C45.4362 93.2522 45.3401 91.4416 45.2853 89.6516C46.4786 89.5076 51.9378 88.7806 54.2011 87.4089C56.4643 86.0372 58.7619 83.8289 59.0019 81.161C59.0868 80.5363 59.0394 79.9008 58.8629 79.2956C58.6864 78.6904 58.3847 78.1291 57.9773 77.648C57.5699 77.1669 57.066 76.7768 56.4981 76.5029C55.9303 76.2291 55.3113 76.0776 54.6812 76.0584C50.8885 76.0584 46.9724 81.6685 45.93 84.8919C45.8682 85.0634 45.491 86.9494 45.2441 88.2593C45.2441 87.4638 45.203 86.6408 45.2098 85.8795C45.2098 83.0059 45.395 80.3928 45.5733 78.0541C45.6899 76.7305 45.8134 75.5371 45.9437 74.4192C47.0479 73.6648 51.4303 70.5649 52.802 68.3496C54.1737 66.1344 55.2093 63.0961 54.2285 60.6272C54.0165 60.0348 53.6825 59.4935 53.2482 59.0382C52.814 58.583 52.2891 58.2239 51.7074 57.9841C51.1257 57.7443 50.5002 57.6292 49.8712 57.6462C49.2423 57.6632 48.6239 57.8119 48.056 58.0827C44.6817 59.8247 43.797 66.6145 44.3525 69.9613C44.4005 70.2494 45.6762 74.6799 45.7242 74.6387L45.7928 74.5976C45.6419 75.6675 45.4979 76.8196 45.3607 78.0747C45.1344 80.3997 44.8943 83.0333 44.8258 85.9138C44.7184 89.0177 44.7917 92.1252 45.0452 95.2205C45.3154 98.6941 45.8937 102.137 46.7735 105.508C46.7735 105.549 46.7735 105.59 46.7735 105.625C46.1769 104.692 44.4211 102.12 44.2634 101.942C42.0481 99.3767 36.2529 95.7281 32.762 97.2095C32.1955 97.4753 31.6908 97.8564 31.2799 98.3283C30.8691 98.8003 30.5612 99.3527 30.376 99.9504C30.1908 100.548 30.1322 101.178 30.2041 101.799C30.276 102.421 30.4768 103.021 30.7936 103.56C32.0899 105.906 35.1761 107.065 37.652 107.435C40.4776 107.847 46.4237 106.118 46.897 105.981C47.8776 109.384 49.0827 112.717 50.5045 115.96C51.3206 117.853 52.2053 119.739 53.1175 121.611C52.5757 120.816 52.0819 120.109 52.0064 120.02C49.7843 117.455 43.9959 113.807 40.4982 115.288C39.9252 115.551 39.4141 115.932 38.9978 116.406C38.5816 116.88 38.2696 117.436 38.082 118.038C37.8945 118.64 37.8356 119.275 37.9092 119.901C37.9828 120.527 38.1872 121.131 38.5092 121.673C39.7986 124.019 42.8917 125.185 45.3676 125.548C47.8434 125.912 53.0077 124.547 54.352 124.176C54.7086 124.862 55.0378 125.61 55.415 126.323C57.1365 129.752 58.8442 133.181 60.4696 136.569C61.032 137.763 61.5395 138.963 62.0607 140.163C61.5738 139.477 61.1623 138.874 61.0937 138.791C58.8716 136.233 53.0832 132.619 49.5854 134.066C49.0127 134.329 48.5017 134.709 48.0855 135.182C47.6693 135.655 47.3573 136.21 47.1697 136.812C46.9821 137.414 46.9232 138.048 46.9967 138.674C47.0703 139.299 47.2746 139.903 47.5965 140.444C48.8859 142.797 51.979 143.956 54.4549 144.319C56.9307 144.683 61.6012 143.455 63.1992 143.009C63.6862 144.258 64.1868 145.499 64.5709 146.727C64.8384 147.57 65.1538 148.366 65.3733 149.23C65.5928 150.094 65.8465 150.924 66.0591 151.754C66.4501 153.379 66.8616 155.053 67.1976 156.644C67.4445 157.748 67.6571 158.804 67.8834 159.867C67.3348 158.667 66.21 156.342 66.1003 156.164C64.4268 153.297 59.2488 148.825 55.5522 149.751C54.9454 149.924 54.3818 150.222 53.898 150.627C53.4142 151.031 53.021 151.533 52.7441 152.1C52.4672 152.667 52.3127 153.286 52.2908 153.916C52.2689 154.546 52.38 155.174 52.6168 155.759C53.5358 158.276 56.4163 159.874 58.8373 160.628C61.5052 161.445 67.4034 160.704 68.1441 160.628C68.4938 162.391 68.8299 164.112 69.1042 165.738C70.0918 171.32 70.7022 176.025 71.0863 179.324H73.6582C73.6582 179.249 73.6582 179.18 73.6239 179.105C73.1644 175.758 72.4442 170.998 71.3195 165.326C70.9628 163.536 70.5513 161.623 70.1124 159.668C71.8909 158.96 73.6247 158.145 75.3042 157.227C77.2451 159.332 82.2242 161.794 82.8483 162.11C82.1625 163.776 81.4766 165.388 80.832 166.911C78.5756 172.109 76.4975 176.361 74.9887 179.331H77.8143C79.186 176.382 80.9966 172.473 82.9032 167.782C83.589 166.094 84.2748 164.277 85.0224 162.405C85.7082 162.549 91.579 163.735 94.3017 163.125C96.7707 162.562 99.7884 161.17 100.865 158.729C101.14 158.165 101.293 157.55 101.315 156.924C101.337 156.297 101.228 155.673 100.994 155.091C100.76 154.51 100.407 153.984 99.9568 153.547C99.507 153.11 98.9707 152.773 98.3824 152.556C94.7887 151.342 89.2951 155.43 87.2856 158.159C87.1622 158.317 86.0717 160.217 85.3996 161.41C85.6877 160.642 85.9757 159.901 86.2569 159.113C86.833 157.542 87.3611 155.965 87.9303 154.271C88.1841 153.441 88.431 152.604 88.6847 151.754C88.9385 150.903 89.1305 150.012 89.3706 149.127C89.8575 147.069 90.2553 144.964 90.6051 142.838C91.9767 143.339 96.8736 145.039 99.4112 144.895C101.949 144.751 105.104 143.791 106.564 141.542C106.927 141.026 107.176 140.439 107.297 139.821C107.417 139.202 107.406 138.565 107.264 137.95C107.121 137.336 106.851 136.759 106.471 136.256C106.09 135.754 105.608 135.337 105.056 135.033C101.681 133.291 95.6322 136.501 93.2318 138.887C93.0809 139.038 91.5515 140.945 90.7285 142.015C90.9343 140.732 91.14 139.45 91.2978 138.147C91.771 134.388 92.1208 130.561 92.498 126.748C92.6077 125.582 92.738 124.416 92.8615 123.251C93.3415 123.436 99.1231 125.589 101.962 125.39C104.486 125.212 107.655 124.279 109.123 122.037C109.484 121.519 109.732 120.932 109.852 120.313C109.971 119.693 109.959 119.056 109.816 118.441C109.673 117.827 109.402 117.249 109.022 116.746C108.641 116.243 108.159 115.826 107.607 115.521C104.239 113.786 98.1904 116.989 95.7831 119.382C95.6048 119.561 93.4033 122.311 92.882 123.038C93.1495 120.48 93.4444 117.922 93.8354 115.418C94.3483 112.032 95.079 108.683 96.0231 105.391C96.2495 105.481 102.271 107.751 105.179 107.545C107.71 107.373 110.871 106.441 112.339 104.198C112.701 103.681 112.949 103.094 113.069 102.475C113.189 101.856 113.178 101.219 113.035 100.604C112.893 99.9901 112.623 99.4125 112.243 98.9091C111.864 98.4058 111.382 97.9879 110.83 97.6827C107.456 95.9475 101.407 99.1504 99.0065 101.544C98.8488 101.702 97.1685 103.793 96.3935 104.808L96.2015 104.706C97.2417 101.421 98.5729 98.2348 100.179 95.1862C101.043 93.4991 101.962 91.9354 102.923 90.4334C103.999 90.9684 108.951 93.3756 111.592 93.4785C114.122 93.5814 117.373 93.0053 119.074 90.9341C119.489 90.4599 119.8 89.9038 119.987 89.3017C120.173 88.6996 120.231 88.0651 120.157 87.4391C120.083 86.8132 119.878 86.2099 119.555 85.6683C119.233 85.1267 118.8 84.6589 118.285 84.2952C115.124 82.1966 108.759 84.7204 106.112 86.8328C105.968 86.9494 104.63 88.2799 103.67 89.2606C104.102 88.5748 104.534 87.889 104.96 87.2512C106.544 84.8576 108.149 82.7658 109.582 80.9278C110.405 79.8853 111.166 78.9594 111.893 78.1022C113.224 78.1022 118.594 77.917 120.946 76.8128C123.299 75.7086 125.857 73.7334 126.433 71.1067C126.601 70.4867 126.634 69.8379 126.53 69.204C126.425 68.5702 126.187 67.9661 125.829 67.4324C125.472 66.8988 125.004 66.448 124.457 66.1105C123.911 65.773 123.298 65.5566 122.661 65.476Z" fill="#CCCCCC"/>
<path d="M146.844 186.588C149.587 187.774 156.233 187.623 156.233 187.623C156.233 187.623 154.806 183.261 154.676 183.001C153.215 179.942 148.592 174.887 144.827 175.402C144.205 175.503 143.612 175.734 143.086 176.08C142.559 176.426 142.112 176.879 141.772 177.41C141.432 177.941 141.208 178.537 141.114 179.16C141.02 179.783 141.059 180.418 141.227 181.025C141.851 183.632 144.525 185.573 146.844 186.588Z" fill="#CCCCCC"/>
<path d="M214.233 188.048C214.295 188.089 215.447 183.625 215.488 183.33C215.955 179.976 214.885 173.214 211.469 171.561C210.893 171.303 210.27 171.168 209.639 171.167C209.008 171.166 208.384 171.297 207.807 171.552C207.23 171.808 206.713 172.182 206.29 172.65C205.867 173.118 205.547 173.67 205.352 174.27C204.439 176.787 205.598 179.873 206.977 181.999C208.589 184.489 214.233 188.048 214.233 188.048Z" fill="#CCCCCC"/>
<path d="M234.122 163.914C230.35 163.503 225.892 168.681 224.486 171.774C224.363 172.041 222.985 176.444 223.053 176.437H223.135C222.415 177.253 221.661 178.131 220.852 179.105C219.377 180.916 217.724 182.98 216.051 185.346C214.252 187.878 212.601 190.511 211.106 193.233C209.415 196.275 207.999 199.46 206.874 202.753C206.874 202.787 206.874 202.835 206.84 202.869C206.84 201.758 206.84 198.651 206.778 198.411C206.346 195.051 203.527 188.81 199.797 188.124C199.173 188.027 198.537 188.062 197.928 188.227C197.319 188.392 196.752 188.683 196.263 189.082C195.774 189.48 195.375 189.977 195.09 190.54C194.806 191.102 194.643 191.719 194.612 192.349C194.392 195.023 196.333 197.691 198.219 199.378C200.352 201.285 206.257 203.123 206.73 203.267C205.67 206.637 204.836 210.074 204.234 213.555C203.87 215.612 203.548 217.67 203.294 219.727C203.294 218.767 203.294 217.91 203.246 217.786C202.807 214.426 199.989 208.184 196.258 207.499C195.635 207.401 194.998 207.435 194.389 207.6C193.78 207.764 193.213 208.055 192.725 208.454C192.236 208.853 191.837 209.35 191.554 209.913C191.27 210.477 191.109 211.093 191.08 211.723C190.86 214.391 192.794 217.066 194.68 218.753C196.566 220.44 201.607 222.134 202.91 222.56C202.814 223.355 202.704 224.144 202.608 224.939C202.156 228.746 201.717 232.552 201.175 236.269C200.983 237.579 200.75 238.862 200.489 240.144C200.489 239.294 200.455 238.574 200.441 238.464C200.009 235.103 197.19 228.862 193.453 228.177C192.83 228.078 192.193 228.113 191.584 228.277C190.975 228.442 190.408 228.733 189.92 229.132C189.431 229.531 189.032 230.028 188.748 230.591C188.465 231.154 188.303 231.771 188.275 232.401C188.055 235.069 189.996 237.744 191.882 239.431C193.768 241.118 198.315 242.648 199.899 243.155C199.618 244.465 199.344 245.775 199.015 247.03C198.775 247.887 198.596 248.724 198.329 249.568C198.061 250.411 197.787 251.234 197.526 252.057C196.95 253.628 196.374 255.246 195.778 256.762C195.373 257.818 194.968 258.82 194.564 259.828C194.769 258.525 195.112 255.966 195.119 255.754C195.08 252.772 194.274 249.851 192.78 247.27C192.794 246.937 192.774 246.604 192.719 246.276C192.64 245.65 192.431 245.049 192.105 244.509C191.779 243.97 191.343 243.506 190.825 243.146C190.308 242.787 189.72 242.54 189.101 242.422C188.482 242.304 187.845 242.318 187.232 242.462C183.563 243.436 181.238 249.876 181.06 253.264C181.06 253.463 181.176 255.644 181.286 257.016C181.101 256.22 180.929 255.438 180.73 254.622C180.346 252.997 179.914 251.392 179.455 249.657C179.201 248.834 178.954 247.997 178.693 247.153C178.433 246.31 178.104 245.446 177.809 244.582C177.082 242.6 176.252 240.624 175.367 238.656C176.787 238.313 181.814 237.031 183.83 235.487C185.847 233.944 187.945 231.421 187.945 228.746C187.963 228.115 187.847 227.487 187.606 226.904C187.365 226.321 187.003 225.795 186.545 225.361C186.087 224.926 185.542 224.594 184.947 224.384C184.352 224.174 183.719 224.093 183.09 224.144C179.318 224.555 176.046 230.563 175.36 233.883C175.319 234.095 175.093 236.53 174.997 237.874C174.455 236.688 173.927 235.508 173.337 234.335C171.65 230.906 169.839 227.552 168.049 224.164C167.494 223.129 166.959 222.107 166.424 221.051C166.925 220.934 172.932 219.542 175.196 217.807C177.198 216.264 179.311 213.747 179.311 211.065C179.328 210.435 179.213 209.808 178.972 209.225C178.731 208.642 178.37 208.117 177.913 207.683C177.455 207.249 176.912 206.916 176.317 206.705C175.723 206.495 175.09 206.413 174.462 206.463C170.69 206.875 167.412 212.889 166.726 216.209C166.678 216.456 166.362 219.967 166.321 220.859C165.135 218.575 163.969 216.277 162.892 214C161.452 210.883 160.215 207.676 159.188 204.399C159.428 204.344 165.697 202.917 168.015 201.148C170.025 199.605 172.13 197.081 172.13 194.399C172.147 193.769 172.03 193.142 171.788 192.56C171.547 191.977 171.185 191.452 170.727 191.019C170.269 190.585 169.725 190.253 169.13 190.044C168.535 189.835 167.903 189.753 167.274 189.804C163.502 190.216 160.224 196.224 159.545 199.543C159.497 199.762 159.25 202.437 159.168 203.706H158.948C158.006 200.391 157.361 196.999 157.021 193.569C156.809 191.683 156.713 189.866 156.658 188.083C157.851 187.939 163.31 187.212 165.573 185.84C167.734 184.53 170.127 182.26 170.409 179.592C170.495 178.967 170.448 178.331 170.272 177.726C170.096 177.12 169.794 176.558 169.387 176.077C168.979 175.596 168.475 175.205 167.906 174.932C167.338 174.658 166.718 174.508 166.088 174.49C162.295 174.49 158.379 180.1 157.33 183.323C157.275 183.495 156.898 185.339 156.644 186.691C156.644 185.895 156.603 185.072 156.61 184.304C156.61 181.437 156.795 178.817 156.973 176.478C157.083 175.162 157.213 173.968 157.343 172.85C158.448 172.096 162.83 168.996 164.202 166.781C165.573 164.566 166.595 161.5 165.608 159.01C165.397 158.417 165.065 157.874 164.631 157.417C164.197 156.961 163.671 156.601 163.089 156.361C162.507 156.121 161.881 156.006 161.251 156.024C160.622 156.042 160.003 156.193 159.435 156.466C156.061 158.208 155.176 164.998 155.732 168.344C155.78 168.633 157.055 173.063 157.103 173.022L157.172 172.981C157.021 174.051 156.877 175.196 156.74 176.458C156.514 178.783 156.274 181.416 156.205 184.297C156.098 187.401 156.171 190.508 156.424 193.604C156.695 197.077 157.273 200.52 158.153 203.891C158.153 203.932 158.153 203.967 158.153 204.008C157.556 203.068 155.8 200.503 155.643 200.325C153.421 197.76 147.632 194.111 144.141 195.593C143.567 195.855 143.054 196.235 142.637 196.708C142.219 197.181 141.906 197.737 141.718 198.34C141.529 198.942 141.47 199.577 141.544 200.204C141.618 200.831 141.823 201.435 142.145 201.978C143.435 204.323 146.528 205.482 149.004 205.853C151.829 206.264 157.776 204.536 158.249 204.399C159.229 207.801 160.435 211.135 161.856 214.378C162.672 216.27 163.557 218.15 164.462 220.029C163.921 219.233 163.434 218.527 163.351 218.438C161.136 215.873 155.341 212.224 151.85 213.705C151.276 213.968 150.764 214.348 150.347 214.822C149.931 215.296 149.618 215.852 149.431 216.454C149.243 217.057 149.184 217.692 149.258 218.318C149.333 218.945 149.538 219.549 149.861 220.091C151.15 222.436 154.237 223.595 156.719 223.965C159.202 224.336 164.36 222.964 165.704 222.594C166.06 223.28 166.39 224.027 166.767 224.74C168.488 228.17 170.196 231.599 171.821 234.987C172.384 236.18 172.891 237.38 173.406 238.581C172.926 237.895 172.514 237.284 172.439 237.209C170.223 234.644 164.435 230.995 160.937 232.484C160.365 232.746 159.853 233.126 159.437 233.6C159.021 234.073 158.709 234.628 158.521 235.229C158.334 235.831 158.275 236.465 158.349 237.091C158.422 237.717 158.626 238.32 158.948 238.862C160.238 241.214 163.331 242.373 165.807 242.737C168.283 243.1 172.946 241.873 174.551 241.427C175.038 242.668 175.532 243.916 175.923 245.144C176.19 245.988 176.512 246.783 176.732 247.647C176.951 248.511 177.205 249.341 177.418 250.171C177.802 251.797 178.213 253.463 178.556 255.054C178.803 256.165 179.016 257.222 179.242 258.285C178.7 257.084 177.576 254.759 177.459 254.574C175.655 251.707 170.484 247.222 166.808 248.162C166.201 248.334 165.638 248.632 165.154 249.037C164.67 249.442 164.277 249.944 164 250.511C163.723 251.077 163.569 251.696 163.547 252.327C163.525 252.957 163.636 253.585 163.873 254.17C164.792 256.687 167.672 258.285 170.093 259.039C172.761 259.855 178.659 259.108 179.4 259.039C179.75 260.802 180.086 262.523 180.36 264.148C181.348 269.731 181.958 274.436 182.335 277.728H185.175C185.175 277.652 185.175 277.591 185.14 277.508C184.681 274.168 183.961 269.402 182.829 263.737C182.479 261.94 182.068 260.033 181.629 258.079C183.405 257.365 185.138 256.55 186.821 255.637C188.761 257.743 193.741 260.205 194.365 260.52C193.679 262.187 192.993 263.799 192.348 265.321C190.092 270.52 188.007 274.765 186.505 277.735H189.29C190.661 274.793 192.472 270.876 194.378 266.192C195.064 264.505 195.784 262.688 196.491 260.808C197.177 260.959 203.047 262.146 205.77 261.535C208.246 260.973 211.257 259.581 212.34 257.139C212.62 256.573 212.777 255.955 212.801 255.324C212.826 254.694 212.718 254.065 212.484 253.479C212.249 252.893 211.895 252.363 211.442 251.923C210.99 251.483 210.45 251.143 209.858 250.926C206.264 249.719 200.77 253.806 198.754 256.536C198.637 256.693 197.547 258.593 196.875 259.787C197.163 259.018 197.451 258.278 197.732 257.482C198.308 255.918 198.836 254.341 199.406 252.647L200.16 250.13C200.427 249.3 200.606 248.381 200.846 247.503C201.34 245.446 201.731 243.34 202.087 241.214C203.459 241.708 208.356 243.416 210.893 243.237C213.431 243.059 216.586 242.133 218.047 239.884C218.409 239.368 218.658 238.781 218.779 238.163C218.899 237.544 218.888 236.907 218.746 236.292C218.603 235.678 218.333 235.101 217.953 234.598C217.572 234.096 217.09 233.679 216.538 233.375C213.163 231.633 207.114 234.843 204.714 237.229C204.563 237.38 203.034 239.287 202.211 240.357C202.41 239.074 202.622 237.792 202.78 236.489C203.246 232.724 203.603 228.904 203.973 225.09C204.09 223.918 204.22 222.758 204.337 221.593C204.824 221.778 210.605 223.924 213.445 223.725C215.968 223.554 219.137 222.621 220.598 220.379C220.96 219.862 221.21 219.275 221.33 218.656C221.451 218.037 221.44 217.399 221.297 216.784C221.155 216.169 220.885 215.592 220.504 215.088C220.124 214.585 219.642 214.168 219.089 213.863C215.715 212.128 209.666 215.331 207.265 217.724C207.087 217.903 204.885 220.653 204.364 221.38C204.632 218.815 204.927 216.264 205.317 213.76C205.833 210.36 206.569 206.997 207.519 203.692C207.745 203.781 213.767 206.052 216.675 205.846C219.199 205.668 222.367 204.742 223.828 202.499C224.191 201.983 224.44 201.396 224.561 200.776C224.681 200.157 224.67 199.519 224.528 198.905C224.385 198.29 224.115 197.712 223.735 197.209C223.354 196.706 222.872 196.288 222.319 195.984C218.945 194.242 212.903 197.451 210.495 199.845C210.338 200.003 208.664 202.094 207.889 203.109L207.697 203.006C208.738 199.721 210.069 196.536 211.675 193.487C212.539 191.8 213.458 190.236 214.418 188.727C215.495 189.269 220.447 191.67 223.087 191.779C225.618 191.882 228.869 191.306 230.57 189.235C230.985 188.761 231.296 188.205 231.483 187.603C231.669 187 231.727 186.366 231.653 185.74C231.579 185.114 231.373 184.511 231.051 183.969C230.729 183.428 230.296 182.96 229.781 182.596C226.619 180.497 220.255 183.021 217.608 185.134C217.464 185.243 216.126 186.574 215.166 187.562C215.598 186.876 216.023 186.19 216.449 185.552C218.04 183.158 219.638 181.067 221.071 179.222C221.894 178.186 222.662 177.26 223.389 176.403C224.72 176.403 230.09 176.218 232.442 175.114C234.795 174.009 237.353 172.027 237.929 169.408C238.074 168.794 238.089 168.157 237.972 167.538C237.855 166.918 237.609 166.33 237.25 165.812C236.891 165.294 236.427 164.857 235.888 164.53C235.349 164.203 234.748 163.993 234.122 163.914Z" fill="#CCCCCC"/>
<path d="M30.9584 190.847C33.7841 191.766 40.4023 190.977 40.4023 190.977C40.4023 190.977 38.5575 186.773 38.4066 186.547C36.6577 183.646 31.5482 179.064 27.8722 179.935C27.2657 180.097 26.6998 180.384 26.2111 180.778C25.7224 181.172 25.3217 181.664 25.0348 182.223C24.7479 182.781 24.5812 183.393 24.5454 184.02C24.5096 184.647 24.6056 185.274 24.8271 185.861C25.6981 188.392 28.5512 190.065 30.9584 190.847Z" fill="#CCCCCC"/>
<path d="M98.1771 185.798C98.2388 185.798 98.9521 181.279 98.9658 180.998C99.1098 177.61 97.3884 170.984 93.8289 169.668C93.2314 169.466 92.5981 169.392 91.9702 169.451C91.3424 169.511 90.734 169.702 90.1848 170.011C89.6355 170.321 89.1577 170.743 88.7823 171.25C88.4069 171.757 88.1425 172.337 88.0062 172.953C87.3203 175.552 88.788 178.515 90.3654 180.497C92.2172 182.808 98.1702 185.798 98.1771 185.798Z" fill="#CCCCCC"/>
<path d="M115.638 159.847C111.845 159.806 107.881 165.388 106.804 168.605C106.708 168.886 105.762 173.406 105.831 173.406H105.906C105.275 174.284 104.61 175.23 103.897 176.279C102.607 178.227 101.153 180.436 99.7473 182.953C98.2001 185.645 96.8101 188.425 95.5843 191.279C94.1968 194.469 93.0952 197.776 92.2923 201.161V201.285C92.2031 200.174 91.8533 197.081 91.8053 196.848C91.044 193.549 87.6355 187.609 83.8565 187.246C83.227 187.21 82.5968 187.306 82.007 187.529C81.4171 187.752 80.8807 188.097 80.4326 188.54C79.9844 188.984 79.6345 189.517 79.4056 190.104C79.1767 190.692 79.0738 191.321 79.1037 191.951C79.1449 194.632 81.3327 197.108 83.3764 198.603C85.674 200.29 91.7367 201.552 92.2237 201.648C91.4925 205.114 90.9931 208.624 90.7286 212.155C90.564 214.213 90.4611 216.27 90.3856 218.369C90.2828 217.416 90.1799 216.558 90.1525 216.442C89.3912 213.136 85.9895 207.204 82.2037 206.84C81.5744 206.804 80.9446 206.9 80.355 207.123C79.7655 207.346 79.2295 207.691 78.7819 208.135C78.3343 208.578 77.9851 209.111 77.7569 209.699C77.5288 210.286 77.4268 210.915 77.4577 211.545C77.4989 214.227 79.6798 216.696 81.7236 218.198C83.7674 219.7 88.9385 220.893 90.3102 221.188C90.3102 221.99 90.2553 222.786 90.2416 223.588C90.1525 227.422 90.0839 231.249 89.9056 235C89.837 236.324 89.7272 237.627 89.6244 238.923C89.5284 238.073 89.4392 237.36 89.4118 237.257C88.6573 233.951 85.2488 228.012 81.4698 227.689C80.8398 227.651 80.2087 227.746 79.6178 227.968C79.027 228.19 78.4897 228.535 78.0411 228.979C77.5925 229.423 77.2427 229.957 77.0145 230.545C76.7863 231.134 76.685 231.764 76.717 232.394C76.7582 235.069 78.946 237.545 80.9829 239.04C83.0198 240.535 87.704 241.619 89.3226 241.982C89.1717 243.306 89.0277 244.643 88.8219 245.919C88.6642 246.79 88.5682 247.64 88.3624 248.511C88.1567 249.382 87.9852 250.226 87.8001 251.069C87.3817 252.688 86.9633 254.355 86.5176 255.918C86.2158 257.009 85.9072 258.044 85.6054 259.087C85.6808 257.77 85.7837 255.191 85.7631 254.972C85.4386 252.004 84.3544 249.169 82.6152 246.742C82.5966 246.41 82.5438 246.082 82.4574 245.761C82.3188 245.146 82.0525 244.568 81.6756 244.063C81.2988 243.558 80.8199 243.138 80.2701 242.83C79.7204 242.522 79.1119 242.333 78.4844 242.276C77.8569 242.218 77.2244 242.294 76.6279 242.497C73.0684 243.827 71.3744 250.459 71.5253 253.847C71.5253 254.046 71.875 256.2 72.1151 257.557C71.8545 256.782 71.6076 256.021 71.3332 255.226C70.7914 253.648 70.2085 252.091 69.5843 250.425L68.583 248.045C68.2676 247.229 67.8355 246.406 67.4583 245.576C66.5461 243.669 65.5242 241.783 64.4543 239.911C65.826 239.431 70.716 237.675 72.5746 235.933C74.4332 234.191 76.2986 231.496 76.0037 228.828C75.9596 228.199 75.7836 227.586 75.4872 227.029C75.1908 226.472 74.7806 225.984 74.2833 225.596C73.786 225.208 73.2126 224.929 72.6004 224.776C71.9882 224.624 71.3508 224.603 70.7297 224.713C67.0125 225.481 64.3309 231.784 63.9742 235.151C63.9742 235.364 63.9742 237.812 63.9742 239.157C63.2884 238.032 62.678 236.907 61.9853 235.796C59.9758 232.579 57.8703 229.383 55.7374 226.194C55.0516 225.214 54.4549 224.226 53.8171 223.245C54.3109 223.081 60.1542 221.119 62.2322 219.171C64.084 217.443 65.9632 214.727 65.6614 212.066C65.6193 211.436 65.4447 210.822 65.149 210.264C64.8532 209.706 64.443 209.217 63.9451 208.829C63.4473 208.44 62.873 208.161 62.2599 208.01C61.6468 207.859 61.0087 207.839 60.3873 207.951C56.6701 208.719 53.9954 215.022 53.6319 218.39C53.6319 218.643 53.6319 222.169 53.6799 223.06C52.3082 220.9 50.8954 218.733 49.6198 216.538C47.888 213.586 46.3486 210.525 45.011 207.375C45.2442 207.293 51.3481 205.27 53.481 203.26C55.3328 201.532 57.2119 198.816 56.9102 196.148C56.8671 195.518 56.6918 194.905 56.3957 194.347C56.0996 193.79 55.6894 193.301 55.1918 192.913C54.6942 192.525 54.1204 192.246 53.5077 192.094C52.8951 191.943 52.2574 191.922 51.6361 192.033C47.9189 192.808 45.2442 199.104 44.8807 202.478C44.8807 202.698 44.8807 205.386 44.8807 206.662L44.6681 206.703C43.4343 203.503 42.4865 200.201 41.8356 196.834C41.4446 194.975 41.1497 193.178 40.9508 191.43C42.1236 191.169 47.4868 189.921 49.6061 188.336C51.7253 186.752 53.7965 184.331 53.8102 181.65C53.8358 181.018 53.7281 180.389 53.494 179.802C53.26 179.216 52.9048 178.685 52.4518 178.245C51.9988 177.805 51.458 177.465 50.8649 177.248C50.2717 177.031 49.6394 176.942 49.0094 176.986C45.2304 177.349 41.8767 183.316 41.1497 186.622C41.1086 186.807 40.9097 188.679 40.7794 190.051C40.6902 189.262 40.5805 188.446 40.5119 187.685C40.2376 184.825 40.169 182.198 40.121 179.86C40.121 178.529 40.121 177.329 40.121 176.211C41.1429 175.354 45.2099 171.842 46.3415 169.51C47.4731 167.178 48.2207 164.024 47.0273 161.637C46.7598 161.066 46.375 160.558 45.8981 160.145C45.4212 159.733 44.8628 159.425 44.2592 159.243C43.6557 159.06 43.0204 159.007 42.3949 159.086C41.7694 159.166 41.1675 159.376 40.6285 159.703C37.4394 161.76 37.1993 168.619 38.0909 171.876C38.1664 172.164 39.8604 176.451 39.9152 176.403L39.977 176.355C39.929 177.432 39.8947 178.591 39.8809 179.86C39.8809 182.198 39.8809 184.839 40.1073 187.712C40.2957 190.813 40.669 193.901 41.2252 196.957C41.8261 200.383 42.7327 203.748 43.9342 207.012C43.9342 207.053 43.9685 207.094 43.9822 207.128C43.2964 206.25 41.3006 203.871 41.1223 203.699C38.667 201.367 32.5494 198.288 29.2163 200.105C28.6706 200.421 28.1976 200.849 27.828 201.36C27.4584 201.871 27.2005 202.454 27.0712 203.071C26.9418 203.688 26.9438 204.325 27.077 204.942C27.2103 205.558 27.4718 206.14 27.8446 206.648C29.3603 208.863 32.5425 209.721 35.0733 209.844C37.9263 209.981 43.6805 207.691 44.1331 207.505C45.4338 210.805 46.9552 214.012 48.687 217.107C49.6815 218.911 50.7445 220.701 51.8281 222.484C51.2109 221.743 50.6554 221.112 50.5662 221.003C48.1109 218.664 41.9933 215.591 38.6602 217.409C38.1145 217.725 37.6415 218.152 37.2719 218.663C36.9023 219.174 36.6445 219.757 36.5151 220.374C36.3857 220.992 36.3877 221.629 36.5209 222.245C36.6542 222.862 36.9157 223.443 37.2885 223.952C38.8042 226.167 41.9865 227.024 44.5172 227.141C47.0479 227.257 52.0613 225.412 53.3301 224.905C53.7553 225.591 54.1668 226.277 54.5921 226.962C56.6495 230.206 58.707 233.437 60.6137 236.667C61.2995 237.805 61.9099 238.951 62.5409 240.096C61.9922 239.445 61.5258 238.896 61.4435 238.821C58.9882 236.482 52.8706 233.409 49.5375 235.22C48.9918 235.536 48.5188 235.963 48.1492 236.474C47.7796 236.985 47.5218 237.568 47.3924 238.185C47.263 238.803 47.265 239.44 47.3982 240.056C47.5315 240.673 47.793 241.254 48.1658 241.763C49.6815 243.978 52.8638 244.835 55.3945 244.959C57.9252 245.082 62.4243 243.402 63.9742 242.805C64.5778 243.999 65.195 245.192 65.73 246.372C66.0729 247.188 66.4638 247.949 66.7724 248.786L67.7189 251.234C68.2607 252.812 68.8299 254.43 69.3237 255.987C69.6735 257.064 70.0096 258.092 70.3045 259.135C69.6186 257.99 68.3087 255.788 68.1715 255.617C66.114 252.928 60.5176 248.964 56.9513 250.253C56.3706 250.489 55.8456 250.844 55.4098 251.294C54.9741 251.744 54.6372 252.281 54.4209 252.869C54.2046 253.457 54.1136 254.084 54.1537 254.71C54.1938 255.335 54.3641 255.945 54.6538 256.501C55.8128 258.922 58.8374 260.253 61.3201 260.753C64.0634 261.309 69.8518 259.999 70.5788 259.828C71.1 261.549 71.587 263.257 72.0259 264.82C73.5485 270.307 74.6046 274.895 75.3042 278.146L77.8692 277.899C77.8692 277.824 77.8349 277.762 77.8143 277.68C77.0393 274.402 75.8597 269.731 74.1863 264.196C73.6651 262.447 73.0684 260.582 72.4443 258.71C74.1436 257.83 75.7901 256.852 77.3754 255.781C79.5083 257.688 84.707 259.656 85.3722 259.896C84.8647 261.624 84.3435 263.291 83.8359 264.862C82.0871 270.259 80.4068 274.69 79.2134 277.79L82.0253 277.515C83.1295 274.45 84.5286 270.369 85.9826 265.534C86.5107 263.785 87.0388 261.906 87.5669 259.972C88.2527 260.054 94.2195 260.657 96.8736 259.793C99.274 259.005 102.113 257.324 102.984 254.787C103.208 254.197 103.305 253.566 103.268 252.937C103.232 252.307 103.063 251.692 102.773 251.131C102.483 250.571 102.079 250.078 101.586 249.685C101.093 249.291 100.522 249.006 99.9119 248.847C96.2152 247.99 91.1469 252.585 89.4049 255.5C89.302 255.671 88.3967 257.653 87.8481 258.929C88.0538 258.14 88.2733 257.372 88.479 256.556C88.8974 254.944 89.2677 253.319 89.6792 251.577C89.8438 250.727 90.0153 249.869 90.1799 249.005C90.3445 248.141 90.4611 247.222 90.5983 246.324C90.8863 244.232 91.0783 242.092 91.2224 239.938C92.642 240.302 97.676 241.53 100.186 241.104C102.696 240.679 105.748 239.458 106.983 237.079C107.293 236.529 107.485 235.921 107.545 235.293C107.604 234.665 107.531 234.032 107.33 233.434C107.129 232.836 106.804 232.288 106.377 231.824C105.949 231.36 105.429 230.991 104.85 230.741C101.325 229.37 95.6186 233.114 93.4582 235.727C93.321 235.885 91.9836 237.936 91.2704 239.074C91.3458 237.778 91.4281 236.489 91.4624 235.172C91.5653 231.379 91.5516 227.539 91.5516 223.712C91.5516 222.539 91.5516 221.366 91.5516 220.193C92.0591 220.33 98.0121 221.915 100.824 221.442C103.32 221.023 106.386 219.796 107.621 217.416C107.931 216.867 108.123 216.258 108.182 215.63C108.242 215.003 108.169 214.369 107.968 213.771C107.767 213.174 107.442 212.625 107.015 212.161C106.587 211.697 106.067 211.328 105.488 211.079C101.962 209.673 96.2564 213.452 94.096 216.065C93.9314 216.257 92.0385 219.206 91.5584 219.981C91.5584 217.402 91.627 214.837 91.771 212.306C91.9527 208.886 92.3582 205.482 92.985 202.115C93.2181 202.177 99.4249 203.857 102.305 203.377C104.802 202.951 107.861 201.724 109.102 199.351C109.413 198.802 109.604 198.194 109.664 197.566C109.724 196.938 109.651 196.304 109.449 195.706C109.248 195.109 108.923 194.56 108.496 194.096C108.069 193.632 107.548 193.263 106.969 193.014C103.444 191.608 97.7378 195.38 95.5774 197.993C95.4334 198.164 93.9657 200.414 93.2936 201.498L93.0947 201.415C93.811 198.046 94.8278 194.748 96.1329 191.56C96.8188 189.79 97.5938 188.131 98.3756 186.56C99.5004 186.992 104.665 188.906 107.291 188.755C109.822 188.611 112.998 187.726 114.493 185.504C114.861 184.992 115.118 184.409 115.247 183.791C115.375 183.174 115.372 182.536 115.238 181.92C115.104 181.303 114.842 180.722 114.469 180.214C114.096 179.705 113.621 179.281 113.073 178.968C109.719 177.185 103.629 180.34 101.194 182.671C101.064 182.795 99.8639 184.249 98.9997 185.319C99.3632 184.633 99.7267 183.872 100.083 183.2C101.455 180.662 102.827 178.399 104.075 176.458C104.795 175.34 105.447 174.345 106.132 173.42C107.463 173.269 112.792 172.59 115.048 171.266C117.305 169.942 119.636 167.72 119.938 165.059C120.041 164.428 120.008 163.782 119.841 163.164C119.674 162.547 119.377 161.972 118.97 161.478C118.562 160.985 118.055 160.584 117.48 160.303C116.905 160.021 116.277 159.866 115.638 159.847Z" fill="#CCCCCC"/>
<path d="M306.601 278.496H314.145" stroke="#263238" stroke-width="0.685832" stroke-linecap="round" stroke-linejoin="round"/>
<path d="M15.8086 278.496H299.057" stroke="#263238" stroke-width="0.685832" stroke-linecap="round" stroke-linejoin="round"/>
<path d="M187.747 25.4238H77.9793C72.4795 25.4238 68.021 29.8823 68.021 35.3821V268.538C68.021 274.037 72.4795 278.496 77.9793 278.496H187.747C193.247 278.496 197.705 274.037 197.705 268.538V35.3821C197.705 29.8823 193.247 25.4238 187.747 25.4238Z" fill="#263238"/>
<path opacity="0.3" d="M149.649 25.4238H77.9861C75.3444 25.4238 72.8108 26.4728 70.9421 28.3401C69.0735 30.2075 68.0228 32.7404 68.021 35.3821V233.588L149.649 25.4238Z" fill="white"/>
<path d="M191.937 42.6104H73.7891V263.476H191.937V42.6104Z" fill="white" stroke="#263238" stroke-width="0.685832" stroke-linecap="round" stroke-linejoin="round"/>
<path d="M187.918 44.9023H178.125V50.2724H187.918V44.9023Z" stroke="#263238" stroke-width="0.562383" stroke-linecap="round" stroke-linejoin="round"/>
<path d="M185.765 44.9023H178.125V50.2724H185.765V44.9023Z" fill="#263238" stroke="#263238" stroke-width="0.500658" stroke-linecap="round" stroke-linejoin="round"/>
<path d="M189.276 46.4033H187.897V48.7694H189.276V46.4033Z" fill="#263238" stroke="#263238" stroke-width="0.500658" stroke-linecap="round" stroke-linejoin="round"/>
<path d="M78.2466 46.5684H76.4497V49.6477H78.2466V46.5684Z" fill="#263238" stroke="#263238" stroke-width="0.603532" stroke-linecap="round" stroke-linejoin="round"/>
<path d="M81.0723 45.4844H79.2754V49.6474H81.0723V45.4844Z" fill="#263238" stroke="#263238" stroke-width="0.603532" stroke-linecap="round" stroke-linejoin="round"/>
<path d="M83.8911 44.209H82.0942V49.6476H83.8911V44.209Z" fill="#263238" stroke="#263238" stroke-width="0.603532" stroke-linecap="round" stroke-linejoin="round"/>
<path d="M189.146 53.2617H75.6953V61.7935H189.146V53.2617Z" fill="#049C01"/>
<path d="M177.685 104.027H86.5381C84.9866 104.027 83.4986 103.411 82.4015 102.314C81.3043 101.216 80.688 99.7284 80.688 98.1768V66.7383L87.608 74.0698H177.685C179.237 74.0698 180.725 74.6862 181.822 75.7833C182.919 76.8804 183.535 78.3684 183.535 79.92V98.1768C183.535 99.7284 182.919 101.216 181.822 102.314C180.725 103.411 179.237 104.027 177.685 104.027Z" fill="#049C01"/>
<path d="M104.247 89.0405C104.247 87.4128 103.764 85.8216 102.86 84.4682C101.955 83.1148 100.67 82.0599 99.1661 81.437C97.6623 80.8141 96.0075 80.6511 94.411 80.9687C92.8146 81.2862 91.3481 82.0701 90.1971 83.2211C89.0462 84.372 88.2623 85.8385 87.9448 87.4349C87.6272 89.0314 87.7902 90.6862 88.4131 92.19C89.036 93.6938 90.0909 94.9792 91.4443 95.8835C92.7977 96.7878 94.3889 97.2705 96.0166 97.2705C98.1993 97.2705 100.293 96.4034 101.836 94.86C103.38 93.3166 104.247 91.2233 104.247 89.0405Z" fill="white"/>
<path d="M108.417 80.3516H125.466" stroke="#263238" stroke-width="1.37166" stroke-linecap="round" stroke-linejoin="round"/>
<path d="M108.417 86.2979H174.983" stroke="#263238" stroke-width="0.685832" stroke-linecap="round" stroke-linejoin="round"/>
<path d="M108.417 91.2012H174.983" stroke="#263238" stroke-width="0.685832" stroke-linecap="round" stroke-linejoin="round"/>
<path d="M108.417 96.627H174.983" stroke="#263238" stroke-width="0.685832" stroke-linecap="round" stroke-linejoin="round"/>
<path d="M177.685 185.49H86.5381C84.9866 185.49 83.4986 184.874 82.4015 183.776C81.3043 182.679 80.688 181.191 80.688 179.64V148.201L87.608 155.533H177.685C179.237 155.533 180.725 156.149 181.822 157.246C182.919 158.343 183.535 159.831 183.535 161.383V179.64C183.535 181.191 182.919 182.679 181.822 183.776C180.725 184.874 179.237 185.49 177.685 185.49Z" fill="#049C01"/>
<path d="M104.247 170.504C104.247 168.877 103.764 167.285 102.86 165.932C101.955 164.579 100.67 163.524 99.1661 162.901C97.6623 162.278 96.0075 162.115 94.411 162.433C92.8146 162.75 91.3481 163.534 90.1971 164.685C89.0462 165.836 88.2623 167.302 87.9448 168.899C87.6272 170.495 87.7902 172.15 88.4131 173.654C89.036 175.158 90.0909 176.443 91.4443 177.347C92.7977 178.252 94.3889 178.734 96.0166 178.734C98.1993 178.734 100.293 177.867 101.836 176.324C103.38 174.78 104.247 172.687 104.247 170.504Z" fill="white"/>
<path d="M108.417 161.814H125.466" stroke="#263238" stroke-width="1.37166" stroke-linecap="round" stroke-linejoin="round"/>
<path d="M108.417 167.761H174.983" stroke="#263238" stroke-width="0.685832" stroke-linecap="round" stroke-linejoin="round"/>
<path d="M108.417 172.665H174.983" stroke="#263238" stroke-width="0.685832" stroke-linecap="round" stroke-linejoin="round"/>
<path d="M108.417 178.09H174.983" stroke="#263238" stroke-width="0.685832" stroke-linecap="round" stroke-linejoin="round"/>
<path d="M88.5889 234.602H179.736C181.288 234.602 182.776 233.986 183.873 232.889C184.97 231.792 185.586 230.304 185.586 228.752V197.32L178.666 204.645H88.5889C87.0374 204.645 85.5494 205.261 84.4522 206.358C83.3551 207.456 82.7388 208.944 82.7388 210.495V228.752C82.7388 230.304 83.3551 231.792 84.4522 232.889C85.5494 233.986 87.0374 234.602 88.5889 234.602Z" fill="#808080"/>
<path d="M103.853 225.436C107.064 222.224 107.064 217.018 103.853 213.806C100.641 210.595 95.4346 210.595 92.2233 213.806C89.012 217.018 89.012 222.224 92.2233 225.436C95.4347 228.647 100.641 228.647 103.853 225.436Z" fill="white"/>
<path d="M110.467 210.935H141.905" stroke="#263238" stroke-width="1.37166" stroke-linecap="round" stroke-linejoin="round"/>
<path d="M110.467 216.874H177.034" stroke="#263238" stroke-width="0.685832" stroke-linecap="round" stroke-linejoin="round"/>
<path d="M110.467 221.777H177.034" stroke="#263238" stroke-width="0.685832" stroke-linecap="round" stroke-linejoin="round"/>
<path d="M110.467 227.202H177.034" stroke="#263238" stroke-width="0.685832" stroke-linecap="round" stroke-linejoin="round"/>
<path d="M129.039 275.342C129.04 274.469 128.783 273.615 128.299 272.889C127.815 272.163 127.126 271.596 126.32 271.262C125.514 270.927 124.627 270.839 123.77 271.009C122.914 271.179 122.128 271.599 121.511 272.216C120.894 272.834 120.474 273.62 120.304 274.476C120.134 275.332 120.222 276.219 120.556 277.025C120.891 277.832 121.457 278.52 122.183 279.004C122.91 279.488 123.763 279.746 124.636 279.745C125.214 279.745 125.787 279.631 126.321 279.409C126.855 279.188 127.341 278.864 127.749 278.455C128.158 278.046 128.483 277.561 128.704 277.027C128.925 276.492 129.039 275.92 129.039 275.342Z" stroke="white" stroke-width="0.685832" stroke-linecap="round" stroke-linejoin="round"/>
<path d="M241.81 264.293L240.253 269.67C240.253 269.67 233.711 273.86 232.661 276.94C231.612 280.019 233.004 282.07 235.48 282.001C237.956 281.932 241.735 281.055 243.196 278.915C244.656 276.775 245.733 274.649 247.407 273.27C249.08 271.892 251.371 272.008 252.022 268.373C252.674 264.739 249.793 263.676 247.496 263.367C245.198 263.058 241.81 264.293 241.81 264.293Z" fill="white" stroke="#263238" stroke-width="0.685832" stroke-linecap="round" stroke-linejoin="round"/>
<path d="M223.89 146.014C222.072 150.377 221.162 155.065 221.215 159.792C221.215 159.792 219.075 171.088 221.791 185.669C224.507 200.249 230.021 212.087 230.021 213.417C230.021 214.748 229.507 228.286 231.173 233.375C232.84 238.464 241.337 261.638 241.337 261.638C241.337 261.638 240.864 264.889 241.838 265.623C242.812 266.357 245.493 266.851 246.056 266.645C246.732 266.455 247.419 266.306 248.113 266.199L249.156 269.217C250.101 269.369 251.061 269.406 252.016 269.326C253.521 269.202 254.955 268.629 256.131 267.68C256.131 267.68 260.211 251.179 262.742 240.062C265.273 228.945 266.494 212.155 266.494 212.155C266.494 212.155 271.946 190.284 272.666 176.746C273.386 163.208 270.609 158.331 270.609 158.331C270.299 154.644 269.487 151.017 268.194 147.55C266.137 142.283 262.173 143.538 247.455 141.494C232.737 139.45 228.78 141.096 227.463 141.707C226.146 142.317 223.89 146.014 223.89 146.014Z" fill="#263238" stroke="#263238" stroke-width="0.685832" stroke-linecap="round" stroke-linejoin="round"/>
<path d="M248.106 257.873C248.278 259.725 248.374 260.891 248.374 260.891" stroke="#808080" stroke-width="0.685832" stroke-linecap="round" stroke-linejoin="round"/>
<path d="M245.884 176.204C245.884 176.204 244.053 201.621 245.384 207.176C246.591 212.217 247.215 215.008 247.215 215.008C247.215 215.008 244.965 229.164 245.946 236.564C246.529 240.988 247.283 248.82 247.798 254.396" stroke="#808080" stroke-width="0.685832" stroke-linecap="round" stroke-linejoin="round"/>
<path d="M258.044 163.16C259.138 162.601 260.287 162.16 261.473 161.843" stroke="#808080" stroke-width="0.685832" stroke-linecap="round" stroke-linejoin="round"/>
<path d="M246.934 172.933C249.263 169.829 252.055 167.102 255.212 164.847" stroke="#808080" stroke-width="0.685832" stroke-linecap="round" stroke-linejoin="round"/>
<path d="M234.143 167.344C236.325 169.916 239.008 172.016 242.03 173.516" stroke="#808080" stroke-width="0.685832" stroke-linecap="round" stroke-linejoin="round"/>
<path d="M253.71 163.976C256.396 162.283 259.308 160.979 262.358 160.101" stroke="#808080" stroke-width="0.685832" stroke-linecap="round" stroke-linejoin="round"/>
<path d="M246.172 83.6172C246.172 83.6172 245.946 88.5552 245.082 90.0434C244.218 91.5317 235.062 91.0653 231.448 92.2724C227.833 93.4795 225.542 96.4628 224.143 98.6986C222.744 100.934 209.583 125.446 210.036 128.34C210.488 131.235 210.722 132.517 214.898 132.215C219.075 131.914 229.335 119.918 229.335 119.918L229.651 130.686L223.89 146.014C223.89 146.014 231.509 150.356 245.836 152.495C260.163 154.635 268.915 148.524 268.915 148.524L266.665 134.163L269.408 122.758C269.408 122.758 275.437 135.185 277.357 138.23C279.277 141.275 283.831 140.973 286.101 137.428C288.372 133.882 287.747 131.351 285.601 126.66C283.454 121.969 279.01 107.676 277.261 104.076C275.512 100.475 274.696 97.5739 269.511 95.1597C264.326 92.7456 256.275 91.902 256.275 91.902L256.412 84.0424L246.172 83.6172Z" fill="#049C01" stroke="#263238" stroke-width="0.685832" stroke-linecap="round" stroke-linejoin="round"/>
<path d="M256.412 84.0493L246.172 83.6172C246.172 83.6172 245.946 88.5552 245.082 90.0434C244.567 90.9144 241.227 91.1133 237.819 91.374C239.238 99.0451 242.963 106.101 248.497 111.599C248.497 111.599 259.587 103.074 264.47 93.4314C261.775 92.7401 259.037 92.2291 256.275 91.902L256.412 84.0493Z" fill="#263238" stroke="#263238" stroke-width="0.685832" stroke-linecap="round" stroke-linejoin="round"/>
<path d="M227.634 119.835C227.634 119.835 226.948 114.603 229.692 106.229" stroke="#263238" stroke-width="0.685832" stroke-linecap="round" stroke-linejoin="round"/>
<path d="M256.412 84.0493L246.173 83.6172C246.173 83.6172 245.946 88.5552 245.082 90.0434C244.801 90.5235 243.649 90.7978 242.112 90.9967C242.051 92.7113 242.147 96.6617 243.909 99.9126C245.25 102.445 246.914 104.792 248.861 106.894C248.861 106.894 254.204 102.169 257.16 96.9703C258.01 95.4801 258.737 93.9226 259.334 92.3135C257.516 92.0118 256.275 91.8815 256.275 91.8815L256.412 84.0493Z" fill="white" stroke="#263238" stroke-width="0.685832" stroke-linecap="round" stroke-linejoin="round"/>
<path d="M245.891 86.7652C247.523 88.4427 249.555 89.6771 251.796 90.3521C253.257 90.7799 254.773 90.9879 256.295 90.9693L256.412 84.0493L246.172 83.6172C246.172 83.6172 246.097 85.1535 245.891 86.7652Z" fill="#263238" stroke="#263238" stroke-width="0.685832" stroke-linecap="round" stroke-linejoin="round"/>
<path d="M272.837 60.5593C272.837 60.5593 270.094 42.2407 255.836 40.6701C241.577 39.0996 228.766 48.3926 227.168 54.5719C225.57 60.7513 233.039 65.8676 232.511 68.0623C231.982 70.2569 226.043 70.0306 224.795 74.6188C223.547 79.207 229.548 81.6143 229.548 81.6143C229.548 81.6143 218.664 81.5389 222.566 86.3671C226.468 91.1954 232.325 88.651 233.862 87.053C234.302 86.5411 234.598 85.921 234.718 85.2567C234.839 84.5924 234.78 83.9079 234.547 83.274C234.547 83.274 239.575 86.0928 244.451 83.7747C249.327 81.4566 249.999 77.2799 249.999 77.2799C249.999 77.2799 256.062 81.8475 265.629 77.4102C275.197 72.9728 274.106 63.2889 272.837 60.5593Z" fill="#263238" stroke="#263238" stroke-width="0.685832" stroke-linecap="round" stroke-linejoin="round"/>
<path d="M267.083 66.6016C267.249 67.5425 267.225 68.507 267.013 69.4385C266.801 70.37 266.405 71.2499 265.849 72.0265C263.977 74.3927 262.344 73.0073 262.344 73.0073L262.742 66.2861L267.083 66.6016Z" fill="white" stroke="#263238" stroke-width="0.685832" stroke-linecap="round" stroke-linejoin="round"/>
<path d="M237.414 66.7451C237.172 67.6646 237.115 68.6229 237.246 69.5647C237.376 70.5064 237.692 71.4129 238.175 72.2318C239.828 74.7556 241.605 73.5143 241.605 73.5143L241.803 66.7863L237.414 66.7451Z" fill="white" stroke="#263238" stroke-width="0.685832" stroke-linecap="round" stroke-linejoin="round"/>
<path d="M240.658 62.6918C240.658 62.6918 240.768 73.1713 241.275 76.9159C241.783 80.6606 244.396 88.8906 251.508 88.4791C259.8 88.0058 261.11 79.2958 262.413 75.894C263.716 72.4923 264.189 62.4106 264.189 62.4106C264.189 62.4106 264.265 51.5264 254.718 49.8324C245.171 48.1384 241.989 54.1806 240.658 62.6918Z" fill="white" stroke="#263238" stroke-width="0.685832" stroke-linecap="round" stroke-linejoin="round"/>
<path d="M248.072 72.5613C248.072 73.2471 247.709 73.8575 247.222 73.8712C246.735 73.885 246.316 73.3226 246.296 72.6162C246.275 71.9098 246.652 71.3199 247.146 71.2994C247.64 71.2788 248.051 71.8549 248.072 72.5613Z" fill="#263238"/>
<path d="M256.782 72.8969C256.782 73.5828 256.425 74.1931 255.932 74.2069C255.438 74.2206 255.026 73.6582 255.006 72.9518C254.985 72.2454 255.369 71.6556 255.856 71.6418C256.343 71.6281 256.761 72.1905 256.782 72.8969Z" fill="#263238"/>
<path d="M249.423 78.0615C249.423 78.0615 250.644 79.4332 252.997 78.5485" stroke="#263238" stroke-width="0.685832" stroke-linecap="round" stroke-linejoin="round"/>
<path d="M246.899 80.1123C246.899 80.1123 248.957 82.4236 251.515 82.1698C252.917 82.0901 254.238 81.4882 255.219 80.4827" stroke="#263238" stroke-width="0.685832" stroke-linecap="round" stroke-linejoin="round"/>
<path d="M234.095 68.028C234.095 68.028 236.763 71.3131 244.272 71.0937C248.819 70.9405 253.232 69.5149 257.008 66.9787C257.008 66.9787 252.571 70.8673 256.13 70.7645C259.69 70.6616 262.42 69.5848 266.24 64.928C270.06 60.2712 269.47 53.5569 266.994 50.066C264.518 46.5751 253.963 44.9154 244.019 49.1607C234.074 53.406 232.195 64.1256 234.095 68.028Z" fill="#263238" stroke="#263238" stroke-width="0.685832" stroke-linecap="round" stroke-linejoin="round"/>
<path d="M237.017 65.3188C236.421 64.9188 235.855 64.4765 235.323 63.9951" stroke="#808080" stroke-width="0.685832" stroke-linecap="round" stroke-linejoin="round"/>
<path d="M265.945 58.6934C265.945 58.6934 260.883 64.9619 259.436 65.2019C257.989 65.4419 258.229 60.8606 258.229 60.8606C254.614 63.3683 250.734 65.4704 246.659 67.1291C245.468 67.5305 244.209 67.6917 242.956 67.6034C241.702 67.5151 240.478 67.1791 239.355 66.6147" stroke="#808080" stroke-width="0.685832" stroke-linecap="round" stroke-linejoin="round"/>
<path d="M249.19 269.217C249.19 269.217 248.991 275.314 248.902 278.75C248.812 282.186 250.019 284.429 252.331 284.361C254.642 284.292 260.177 285.65 261.425 282.763C262.673 279.875 258.092 273.161 257.447 270.5C256.802 267.839 256.37 266.344 256.37 266.344L249.176 267.715L249.19 269.217Z" fill="white" stroke="#263238" stroke-width="0.685832" stroke-linecap="round" stroke-linejoin="round"/>
<path d="M179.907 112.82C179.907 112.82 176.903 110.523 174.784 110.523C172.665 110.523 171.959 108.931 170.895 108.582C169.832 108.232 169.661 111.051 170.895 111.579C172.13 112.107 173.721 112.82 173.721 112.82L174.956 115.118L181.492 115.804L179.907 112.82Z" fill="white" stroke="#263238" stroke-width="0.685832" stroke-linecap="round" stroke-linejoin="round"/>
<path d="M171.773 141.165L259.868 148.709C260.611 148.773 261.359 148.69 262.069 148.465C262.78 148.24 263.439 147.876 264.009 147.396C264.579 146.916 265.049 146.328 265.392 145.666C265.735 145.004 265.943 144.281 266.006 143.538L267.179 129.822L267.515 125.885L268.599 113.163L261.302 119.651L174.249 112.216C173.506 112.152 172.758 112.235 172.048 112.461C171.337 112.686 170.678 113.049 170.108 113.529C169.538 114.01 169.068 114.598 168.725 115.26C168.383 115.922 168.174 116.645 168.111 117.387L166.602 135.034C166.475 136.533 166.948 138.021 167.918 139.17C168.887 140.32 170.274 141.038 171.773 141.165Z" fill="#808080"/>
<path d="M190.092 128.149C190.226 126.577 189.891 125.001 189.129 123.62C188.367 122.238 187.213 121.114 185.812 120.388C184.412 119.663 182.827 119.369 181.26 119.544C179.692 119.719 178.211 120.355 177.005 121.372C175.799 122.388 174.921 123.739 174.483 125.255C174.044 126.77 174.065 128.381 174.542 129.885C175.02 131.388 175.932 132.716 177.164 133.701C178.396 134.686 179.893 135.284 181.464 135.419C182.508 135.508 183.559 135.391 184.558 135.074C185.557 134.757 186.483 134.246 187.284 133.571C188.085 132.896 188.746 132.07 189.228 131.139C189.709 130.209 190.003 129.193 190.092 128.149Z" fill="white"/>
<path d="M194.872 120.097L225.261 122.689" stroke="#263238" stroke-width="1.37166" stroke-linecap="round" stroke-linejoin="round"/>
<path d="M194.385 125.837L258.716 131.33" stroke="#263238" stroke-width="0.685832" stroke-linecap="round" stroke-linejoin="round"/>
<path d="M193.98 130.583L258.312 136.077" stroke="#263238" stroke-width="0.685832" stroke-linecap="round" stroke-linejoin="round"/>
<path d="M193.535 135.822L257.866 141.316" stroke="#263238" stroke-width="0.685832" stroke-linecap="round" stroke-linejoin="round"/>
<path d="M270.218 129.382C270.218 129.382 273.832 128.271 277.584 127.435C281.335 126.598 286.198 129.101 287.309 131.742C288.42 134.382 287.864 136.467 286.472 138.552C285.08 140.637 283.002 141.611 279.806 140.911C277.632 140.438 275.362 138.134 274.662 136.741L273.976 135.37C273.976 135.37 273.421 134.533 272.865 134.533" fill="#049C01"/>
<path d="M270.218 129.382C270.218 129.382 273.832 128.271 277.584 127.435C281.335 126.598 286.198 129.101 287.309 131.742C288.42 134.382 287.864 136.467 286.472 138.552C285.08 140.637 283.002 141.611 279.806 140.911C277.632 140.438 275.362 138.134 274.662 136.741L273.976 135.37C273.976 135.37 273.421 134.533 272.865 134.533" stroke="#263238" stroke-width="0.685832" stroke-linecap="round" stroke-linejoin="round"/>
<path d="M268.846 127.99C268.846 127.99 265.664 124.164 264.12 124.602C262.948 124.939 258.188 125.974 255.966 126.488C255.831 126.518 255.705 126.579 255.598 126.666C255.491 126.753 255.405 126.864 255.348 126.99C255.291 127.115 255.263 127.252 255.268 127.39C255.273 127.528 255.31 127.663 255.376 127.785C255.457 127.931 255.577 128.052 255.722 128.134C255.867 128.216 256.032 128.257 256.199 128.251L262.865 127.99L263.702 129.362L255.41 130.734C255.17 130.773 254.953 130.901 254.803 131.093C254.653 131.285 254.581 131.527 254.601 131.769C254.62 132.017 254.734 132.248 254.92 132.414C255.105 132.58 255.347 132.669 255.595 132.661L264.175 132.037L256.748 134.78C256.578 134.829 256.425 134.924 256.306 135.055C256.187 135.185 256.107 135.346 256.074 135.52C256.042 135.693 256.058 135.872 256.121 136.037C256.184 136.202 256.292 136.346 256.432 136.454C256.64 136.606 256.897 136.672 257.152 136.639L265.561 134.863L261.898 137.812C261.987 138.497 262.502 138.545 263.229 138.299L270.217 135.795C271.373 136.234 272.596 136.466 273.832 136.481C275.773 136.481 276.191 134.122 274.662 131.893C273.132 129.664 268.846 127.99 268.846 127.99Z" fill="white" stroke="#263238" stroke-width="0.685832" stroke-linecap="round" stroke-linejoin="round"/>
<path d="M263.702 129.383C264.702 129.195 265.716 129.09 266.734 129.067" stroke="#263238" stroke-width="0.685832" stroke-linecap="round" stroke-linejoin="round"/>
<path d="M264.175 132.064L266.658 131.481" stroke="#263238" stroke-width="0.685832" stroke-linecap="round" stroke-linejoin="round"/>
<path d="M265.561 134.91L267.755 134.107" stroke="#263238" stroke-width="0.685832" stroke-linecap="round" stroke-linejoin="round"/>
<path d="M168.084 110.673C167.88 110.829 167.739 111.054 167.686 111.305C167.633 111.557 167.672 111.819 167.796 112.045C168.482 113.313 169.922 115.59 171.074 115.474C172.665 115.295 171.424 113.704 171.074 112.998C170.628 112.268 170.143 111.562 169.62 110.885C169.534 110.769 169.426 110.671 169.302 110.597C169.178 110.524 169.04 110.475 168.897 110.456C168.754 110.436 168.608 110.445 168.468 110.482C168.329 110.519 168.198 110.584 168.084 110.673Z" fill="white" stroke="#263238" stroke-width="0.685832" stroke-linecap="round" stroke-linejoin="round"/>
<path d="M166.842 113.321C166.641 113.479 166.502 113.704 166.45 113.955C166.399 114.206 166.438 114.468 166.561 114.693C167.247 115.961 168.687 118.238 169.839 118.122C171.424 117.95 170.189 116.359 169.839 115.653C169.396 114.919 168.91 114.211 168.385 113.533C168.299 113.417 168.19 113.319 168.065 113.245C167.94 113.171 167.802 113.123 167.658 113.103C167.515 113.083 167.369 113.092 167.228 113.13C167.088 113.167 166.957 113.232 166.842 113.321Z" fill="white" stroke="#263238" stroke-width="0.685832" stroke-linecap="round" stroke-linejoin="round"/>
<path d="M164.826 118.224C164.661 118.351 164.547 118.533 164.505 118.737C164.464 118.941 164.497 119.154 164.6 119.335C165.169 120.364 166.321 122.216 167.261 122.078C168.55 121.941 167.542 120.645 167.261 120.076C166.902 119.479 166.508 118.904 166.081 118.354C166.008 118.262 165.918 118.185 165.815 118.128C165.712 118.071 165.598 118.035 165.481 118.023C165.364 118.011 165.246 118.023 165.133 118.057C165.021 118.092 164.916 118.148 164.826 118.224Z" fill="white" stroke="#263238" stroke-width="0.685832" stroke-linecap="round" stroke-linejoin="round"/>
<path d="M165.285 115.262C165.083 115.419 164.943 115.644 164.89 115.895C164.837 116.146 164.875 116.408 164.997 116.633C165.683 117.902 167.124 120.172 168.276 120.063C169.867 119.884 168.625 118.293 168.276 117.587C167.833 116.854 167.348 116.149 166.822 115.474C166.737 115.357 166.629 115.259 166.504 115.184C166.38 115.11 166.242 115.061 166.099 115.041C165.955 115.022 165.809 115.031 165.67 115.069C165.53 115.107 165.399 115.172 165.285 115.262Z" fill="white" stroke="#263238" stroke-width="0.685832" stroke-linecap="round" stroke-linejoin="round"/>
</g>
<defs>
<clipPath id="clip0_256_7358">
<rect width="316.889" height="292" fill="white"/>
</clipPath>
</defs>
</svg>
