<svg width="195" height="38" viewBox="0 0 195 38" fill="none" xmlns="http://www.w3.org/2000/svg">
<path d="M21.8916 0.198046V4.43805H13.4916V28.998H8.45157V4.43805H0.0515656V0.198046H21.8916ZM22.0603 14.318V9.91805C23.8603 8.95805 26.2603 8.47805 29.2603 8.47805C35.1403 8.47805 38.1003 11.238 38.1003 16.318V28.998H33.6603L33.5803 26.918L33.6603 25.398H33.5803C33.2603 26.198 32.5403 27.078 31.3803 28.078C30.2203 29.038 28.7803 29.518 27.0203 29.518C23.3403 29.518 20.6603 27.278 20.6603 23.558C20.6603 21.118 21.7803 19.318 24.0603 18.198C26.3403 17.078 29.3803 16.798 33.2603 17.318V16.558C33.2603 13.958 31.6603 12.638 28.5003 12.638C25.9803 12.638 23.8603 13.198 22.0603 14.318ZM28.1003 25.718C29.5003 25.718 30.7003 25.158 31.6603 24.038C32.6603 22.918 33.1403 21.638 33.1403 20.198C27.9803 19.358 25.3403 20.718 25.3403 23.158C25.3403 24.718 26.4603 25.718 28.1003 25.718ZM43.3163 23.558V0.198046H48.1963V22.518C48.1963 24.358 48.9163 25.278 50.3563 25.278C51.0363 25.278 51.6763 25.158 52.2363 24.958V29.038C51.4363 29.358 50.3563 29.518 48.9963 29.518C45.5963 29.518 43.3163 27.678 43.3163 23.558ZM68.6919 8.99805H74.3719L67.4119 17.398L74.8919 28.998H69.3319L63.6919 19.958L60.7719 23.198V28.998H55.9719V0.198046H60.8519V18.118L68.6919 8.99805ZM107.782 0.198046V4.43805H99.3822V28.998H94.3422V4.43805H85.9422V0.198046H107.782ZM107.951 14.318V9.91805C109.751 8.95805 112.151 8.47805 115.151 8.47805C121.031 8.47805 123.991 11.238 123.991 16.318V28.998H119.551L119.471 26.918L119.551 25.398H119.471C119.151 26.198 118.431 27.078 117.271 28.078C116.111 29.038 114.671 29.518 112.911 29.518C109.231 29.518 106.551 27.278 106.551 23.558C106.551 21.118 107.671 19.318 109.951 18.198C112.231 17.078 115.271 16.798 119.151 17.318V16.558C119.151 13.958 117.551 12.638 114.391 12.638C111.871 12.638 109.751 13.198 107.951 14.318ZM113.991 25.718C115.391 25.718 116.591 25.158 117.551 24.038C118.551 22.918 119.031 21.638 119.031 20.198C113.871 19.358 111.231 20.718 111.231 23.158C111.231 24.718 112.351 25.718 113.991 25.718ZM129.442 28.998V8.99805H133.962L134.082 11.558C134.082 11.838 134.042 12.158 134.002 12.518L133.922 12.998H134.002C134.482 11.918 135.362 10.878 136.682 9.91805C138.002 8.95805 139.522 8.47805 141.242 8.47805C145.842 8.47805 148.162 11.158 148.162 16.478V28.998H143.282V17.318C143.282 14.398 142.202 12.918 140.002 12.918C138.362 12.918 137.002 13.518 135.922 14.678C134.842 15.838 134.322 17.318 134.322 19.078V28.998H129.442ZM158.737 24.158C158.737 24.998 159.937 25.358 163.177 25.718C168.577 26.358 171.137 27.998 171.137 31.518C171.137 33.518 170.217 35.078 168.377 36.198C166.537 37.358 164.097 37.918 161.097 37.918C155.457 37.918 151.697 35.998 151.697 32.598C151.697 30.318 153.937 28.438 156.977 27.798C155.177 27.518 154.017 26.598 154.017 25.158C154.017 23.918 155.097 22.758 156.977 22.158C154.097 21.038 152.257 18.678 152.257 15.678C152.257 13.558 153.057 11.798 154.657 10.478C156.297 9.15805 158.297 8.47805 160.657 8.47805C161.897 8.47805 163.017 8.63805 163.977 8.99805H171.337V12.518H168.777C168.457 12.518 168.097 12.478 167.657 12.358C168.537 13.318 168.977 14.438 168.977 15.678C168.977 17.598 168.297 19.198 166.977 20.478C165.657 21.718 163.937 22.478 161.857 22.678C160.097 22.838 158.737 23.478 158.737 24.158ZM160.657 19.518C163.057 19.518 164.617 17.998 164.617 15.798C164.617 13.598 163.017 11.998 160.657 11.998C158.377 11.998 156.737 13.598 156.737 15.798C156.737 17.998 158.377 19.518 160.657 19.518ZM161.177 34.718C164.257 34.718 166.297 33.598 166.297 31.878C166.297 29.998 164.497 29.038 160.937 29.038C158.337 29.038 156.377 30.318 156.377 31.958C156.377 33.718 158.297 34.718 161.177 34.718ZM183.788 8.47805C186.828 8.47805 189.348 9.47805 191.308 11.478C193.268 13.438 194.268 15.958 194.268 18.998C194.268 22.038 193.268 24.558 191.308 26.558C189.348 28.518 186.828 29.518 183.788 29.518C180.788 29.518 178.268 28.518 176.268 26.518C174.308 24.518 173.308 21.998 173.308 18.998C173.308 15.998 174.308 13.478 176.268 11.478C178.268 9.47805 180.788 8.47805 183.788 8.47805ZM179.588 23.598C180.708 24.758 182.108 25.358 183.788 25.358C185.468 25.358 186.868 24.758 187.948 23.598C189.068 22.398 189.628 20.878 189.628 18.998C189.628 17.118 189.068 15.598 187.948 14.438C186.868 13.238 185.468 12.638 183.788 12.638C182.108 12.638 180.708 13.238 179.588 14.438C178.508 15.598 177.948 17.118 177.948 18.998C177.948 20.878 178.508 22.398 179.588 23.598Z" fill="#049C01"/>
</svg>
