<svg width="28" height="24" viewBox="0 0 28 24" fill="none" xmlns="http://www.w3.org/2000/svg">
<path d="M25.4305 4.69035C22.6687 3.09613 19.1373 4.04345 17.5413 6.80519L13.5182 13.7743C12.3541 15.7867 13.8528 16.49 15.5238 17.4919L19.395 19.7262C20.7059 20.4823 22.3803 20.0334 23.1365 18.7242L27.2722 11.5622C28.6616 9.15553 27.8371 6.07978 25.4305 4.69035Z" fill="#EA4335"/>
<path d="M20.8777 7.57492L17.0065 5.34065C14.8695 4.15438 13.6594 4.07586 12.782 5.47038L7.07256 15.3583C5.47832 18.1183 6.42735 21.6481 9.18735 23.2389C11.594 24.6283 14.6698 23.8039 16.0592 21.3972L21.8779 11.3181C22.6375 10.0072 22.1886 8.33108 20.8777 7.57492Z" fill="#FBBC04"/>
<path d="M21.623 2.49189L18.9039 0.921568C15.8965 -0.814321 12.0509 0.214921 10.315 3.22243L5.13806 12.1886C4.37338 13.5114 4.82741 15.2046 6.15026 15.9676L9.19532 17.7257C10.699 18.5945 12.621 18.079 13.4898 16.5753L19.4041 6.33237C20.6296 4.21071 23.3418 3.48358 25.4634 4.70911L21.623 2.49189Z" fill="#34A853"/>
<path d="M11.0505 5.78783L8.1113 4.09461C6.80039 3.34018 5.12598 3.78738 4.36984 5.09484L0.843445 11.1884C-0.892448 14.1873 0.136797 18.0244 3.1443 19.7552L5.38201 21.0438L8.09592 22.6073L9.27368 23.2849C7.18275 21.8853 6.51878 19.0809 7.79721 16.8722L8.71038 15.2951L12.0542 9.51734C12.8086 8.21332 12.3597 6.54226 11.0505 5.78783Z" fill="#4285F4"/>
</svg>
