<svg width="28" height="24" viewBox="0 0 28 24" fill="none" xmlns="http://www.w3.org/2000/svg">
<path d="M25.4305 4.69011C22.6687 3.09589 19.1373 4.0432 17.5413 6.80494L13.5182 13.774C12.3541 15.7865 13.8528 16.4897 15.5238 17.4916L19.395 19.7259C20.7059 20.4821 22.3803 20.0332 23.1365 18.724L27.2722 11.562C28.6616 9.15528 27.8371 6.07953 25.4305 4.69011Z" fill="#EA4335"/>
<path d="M20.8777 7.5748L17.0065 5.34053C14.8695 4.15426 13.6594 4.07574 12.782 5.47025L7.07256 15.3582C5.47832 18.1182 6.42735 21.648 9.18735 23.2388C11.594 24.6282 14.6698 23.8038 16.0592 21.3971L21.8779 11.318C22.6375 10.0071 22.1886 8.33096 20.8777 7.5748Z" fill="#FBBC04"/>
<path d="M21.624 2.49189L18.9049 0.921568C15.8974 -0.814321 12.0519 0.214921 10.316 3.22243L5.13903 12.1886C4.37436 13.5114 4.82838 15.2046 6.15123 15.9676L9.19629 17.7257C10.7 18.5945 12.6219 18.079 13.4908 16.5753L19.4051 6.33237C20.6306 4.21071 23.3428 3.48358 25.4644 4.70911L21.624 2.49189Z" fill="#34A853"/>
<path d="M11.0505 5.78734L8.1113 4.09412C6.80039 3.33969 5.12598 3.78689 4.36984 5.09435L0.843445 11.1879C-0.892448 14.1868 0.136797 18.0239 3.1443 19.7547L5.38201 21.0433L8.09592 22.6068L9.27368 23.2845C7.18275 21.8849 6.51878 19.0805 7.79721 16.8717L8.71038 15.2946L12.0542 9.51685C12.8086 8.21283 12.3597 6.54177 11.0505 5.78734Z" fill="#4285F4"/>
</svg>
