<svg width="349" height="260" viewBox="0 0 349 260" fill="none" xmlns="http://www.w3.org/2000/svg">
<g clip-path="url(#clip0_256_7674)">
<path d="M348.89 228.488H0V228.663H348.89V228.488Z" fill="#EBEBEB"/>
<path d="M284.081 233.24H232.591V233.415H284.081V233.24Z" fill="#EBEBEB"/>
<path d="M78.3679 234.413H72.3042V234.588H78.3679V234.413Z" fill="#EBEBEB"/>
<path d="M298.169 239.715H284.778V239.889H298.169V239.715Z" fill="#EBEBEB"/>
<path d="M173.517 237.357H139.556V237.532H173.517V237.357Z" fill="#EBEBEB"/>
<path d="M133.346 237.357H116.334V237.532H133.346V237.357Z" fill="#EBEBEB"/>
<path d="M59.7374 234.413H36.606V234.588H59.7374V234.413Z" fill="#EBEBEB"/>
<path d="M165.374 197.367H30.6399C29.5844 197.365 28.5728 196.945 27.8271 196.198C27.0814 195.451 26.6626 194.438 26.6626 193.383V3.98433C26.6626 2.92883 27.0814 1.91645 27.8271 1.16945C28.5728 0.422441 29.5844 0.00184851 30.6399 0L165.374 0C166.431 0 167.445 0.419776 168.192 1.16698C168.939 1.91419 169.359 2.92762 169.359 3.98433V193.383C169.359 193.906 169.256 194.424 169.055 194.908C168.855 195.391 168.562 195.83 168.192 196.2C167.822 196.57 167.383 196.864 166.899 197.064C166.416 197.264 165.898 197.367 165.374 197.367ZM30.6399 0.174445C29.6307 0.176294 28.6634 0.578507 27.9505 1.2928C27.2375 2.00709 26.837 2.97509 26.837 3.98433V193.383C26.837 194.392 27.2375 195.36 27.9505 196.074C28.6634 196.789 29.6307 197.191 30.6399 197.193H165.374C166.384 197.191 167.352 196.789 168.066 196.075C168.78 195.361 169.182 194.393 169.184 193.383V3.98433C169.182 2.97445 168.78 2.00646 168.066 1.29237C167.352 0.578279 166.384 0.17629 165.374 0.174445H30.6399Z" fill="#EBEBEB"/>
<path d="M316.311 197.367H181.57C180.514 197.365 179.501 196.945 178.754 196.198C178.008 195.451 177.587 194.439 177.585 193.383V3.98433C177.587 2.92818 178.008 1.91583 178.754 1.16902C179.501 0.422213 180.514 0.00184479 181.57 0L316.311 0C317.365 0.0036928 318.375 0.425099 319.12 1.1719C319.864 1.91871 320.282 2.93003 320.282 3.98433V193.383C320.282 194.437 319.864 195.449 319.12 196.195C318.375 196.942 317.365 197.364 316.311 197.367ZM181.57 0.174445C180.56 0.17629 179.592 0.578279 178.878 1.29237C178.164 2.00646 177.762 2.97445 177.76 3.98433V193.383C177.762 194.393 178.164 195.361 178.878 196.075C179.592 196.789 180.56 197.191 181.57 197.193H316.311C317.321 197.191 318.289 196.789 319.003 196.075C319.717 195.361 320.119 194.393 320.121 193.383V3.98433C320.119 2.97445 319.717 2.00646 319.003 1.29237C318.289 0.578279 317.321 0.17629 316.311 0.174445H181.57Z" fill="#EBEBEB"/>
<path d="M53.0312 153.631H160.482L160.482 27.7233L53.0312 27.7233L53.0312 153.631Z" fill="#E6E6E6"/>
<path d="M50.6451 153.631H158.089L158.089 27.7233L50.6451 27.7233L50.6451 153.631Z" fill="#F5F5F5"/>
<path d="M53.0312 157.712H160.482V153.637H53.0312V157.712Z" fill="#E6E6E6"/>
<path d="M46.3471 157.712H153.798V153.637H46.3471V157.712Z" fill="#F5F5F5"/>
<path d="M153.791 149.625V31.7422L54.9295 31.7422L54.9295 149.625H153.791Z" fill="#FAFAFA"/>
<path d="M144.085 149.625L127.129 31.7354H100.069L117.025 149.625H144.085Z" fill="white"/>
<path d="M110.71 149.625L93.7608 31.7354H75.123L92.0791 149.625H110.71Z" fill="white"/>
<path d="M56.7441 149.618L56.7441 31.7354H54.9369L54.9369 149.618H56.7441Z" fill="#E6E6E6"/>
<path d="M52.4244 138.53H156.317V133.15H52.4244V138.53Z" fill="#F5F5F5"/>
<path d="M200.765 228.488H217.345L217.345 62.3677H200.765L200.765 228.488Z" fill="#E6E6E6"/>
<path d="M203.913 228.489H200.766V219.529H207.213L203.913 228.489Z" fill="#F0F0F0"/>
<path d="M284.101 228.488H300.681V62.3677H284.101V228.488Z" fill="#E6E6E6"/>
<path d="M200.765 224.078H286.851V62.3745H200.765V224.078Z" fill="#F0F0F0"/>
<path d="M239.835 212.126H206.125C205.255 212.126 204.421 211.781 203.806 211.165C203.191 210.55 202.845 209.716 202.845 208.846V67.8948C202.847 67.0256 203.193 66.1925 203.808 65.5778C204.422 64.9632 205.256 64.6171 206.125 64.6152H239.835C240.704 64.6152 241.539 64.9608 242.154 65.5758C242.769 66.1908 243.114 67.025 243.114 67.8948V208.846C243.115 209.277 243.031 209.704 242.866 210.103C242.702 210.501 242.46 210.863 242.156 211.168C241.851 211.472 241.489 211.714 241.091 211.878C240.692 212.043 240.265 212.127 239.835 212.126ZM206.125 65.3479C205.449 65.3479 204.801 65.6162 204.324 66.0939C203.846 66.5715 203.578 67.2193 203.578 67.8948V208.846C203.573 209.184 203.636 209.519 203.762 209.832C203.888 210.145 204.074 210.43 204.311 210.67C204.548 210.91 204.831 211.101 205.142 211.231C205.453 211.361 205.787 211.428 206.125 211.428H239.835C240.512 211.428 241.161 211.159 241.64 210.68C242.119 210.201 242.388 209.552 242.388 208.874V67.8948C242.387 67.2187 242.117 66.5709 241.638 66.0935C241.159 65.616 240.511 65.3479 239.835 65.3479H206.125Z" fill="#E0E0E0"/>
<path d="M281.492 212.126H247.782C246.912 212.126 246.078 211.781 245.463 211.165C244.848 210.55 244.502 209.716 244.502 208.846V67.8948C244.504 67.0256 244.85 66.1925 245.465 65.5778C246.08 64.9632 246.913 64.6171 247.782 64.6152H281.492C282.361 64.6171 283.194 64.9632 283.809 65.5778C284.423 66.1925 284.77 67.0256 284.771 67.8948V208.846C284.771 209.716 284.426 210.55 283.811 211.165C283.196 211.781 282.362 212.126 281.492 212.126ZM247.782 65.3479C247.106 65.3479 246.457 65.616 245.979 66.0935C245.5 66.5709 245.23 67.2187 245.228 67.8948V208.846C245.224 209.184 245.288 209.519 245.414 209.832C245.541 210.145 245.729 210.43 245.966 210.67C246.204 210.911 246.487 211.101 246.798 211.231C247.11 211.361 247.444 211.428 247.782 211.428H281.492C282.169 211.428 282.819 211.159 283.298 210.68C283.777 210.201 284.046 209.552 284.046 208.874V67.8948C284.044 67.2187 283.774 66.5709 283.295 66.0935C282.816 65.616 282.168 65.3479 281.492 65.3479H247.782Z" fill="#E0E0E0"/>
<path d="M253.713 138.9C253.713 139.452 253.549 139.991 253.243 140.45C252.936 140.909 252.5 141.267 251.99 141.478C251.48 141.689 250.919 141.745 250.377 141.637C249.836 141.529 249.339 141.263 248.948 140.873C248.558 140.483 248.292 139.985 248.184 139.444C248.077 138.903 248.132 138.341 248.343 137.831C248.555 137.321 248.912 136.885 249.371 136.579C249.83 136.272 250.37 136.108 250.922 136.108C251.662 136.108 252.372 136.402 252.896 136.926C253.419 137.449 253.713 138.159 253.713 138.9Z" fill="#FAFAFA"/>
<path d="M239.507 138.9C239.507 139.452 239.343 139.991 239.036 140.45C238.729 140.909 238.294 141.267 237.784 141.478C237.274 141.689 236.712 141.745 236.171 141.637C235.629 141.529 235.132 141.263 234.742 140.873C234.351 140.483 234.086 139.985 233.978 139.444C233.87 138.903 233.926 138.341 234.137 137.831C234.348 137.321 234.706 136.885 235.165 136.579C235.624 136.272 236.163 136.108 236.715 136.108C237.456 136.108 238.166 136.402 238.689 136.926C239.212 137.449 239.507 138.159 239.507 138.9Z" fill="#FAFAFA"/>
<path d="M283.704 228.489H286.851V219.529H280.403L283.704 228.489Z" fill="#F0F0F0"/>
<path d="M254.348 38.4891H227.938L238.948 34.749H265.359L254.348 38.4891Z" fill="#E6E6E6"/>
<path d="M260.649 62.3672H287.06V38.4891H260.649V62.3672Z" fill="#EBEBEB"/>
<path d="M223.5 62.3672H230.554V50.8887H223.5V62.3672Z" fill="#EBEBEB"/>
<path d="M223.499 50.8896H214.756V62.3681H223.499V50.8896Z" fill="#F5F5F5"/>
<path d="M260.656 38.49H287.067L276.056 36.0059H249.645L260.656 38.49Z" fill="#EBEBEB"/>
<path d="M260.656 38.4902H227.938V62.3683H260.656V38.4902Z" fill="#F5F5F5"/>
<path d="M124.128 228.489H146.778L144.106 173.985H124.128V228.489Z" fill="#F5F5F5"/>
<path d="M52.501 228.488H139.472L145.487 172.149H58.5089L52.501 228.488Z" fill="#E6E6E6"/>
<path d="M49.9824 228.488H136.961L142.969 172.149H55.9903L49.9824 228.488Z" fill="#F0F0F0"/>
<path d="M132.872 222.25L138.37 178.388H60.0791L54.5806 222.25H132.872Z" fill="#FAFAFA"/>
<path d="M174.445 260.001C249.165 260.001 309.738 256.464 309.738 252.102C309.738 247.74 249.165 244.203 174.445 244.203C99.7249 244.203 39.1523 247.74 39.1523 252.102C39.1523 256.464 99.7249 260.001 174.445 260.001Z" fill="#F5F5F5"/>
<path d="M251.301 75.5522L250.469 92.1455L251.215 92.1829L252.047 75.5896L251.301 75.5522Z" fill="#049C01"/>
<path d="M250.296 95.5909L249.996 101.57L250.742 101.608L251.042 95.6282L250.296 95.5909Z" fill="#049C01"/>
<path d="M233.212 209.605H161.884C160.664 209.614 159.455 209.372 158.332 208.894C157.209 208.417 156.196 207.714 155.356 206.828C154.516 205.943 153.867 204.895 153.449 203.749C153.031 202.602 152.852 201.382 152.925 200.164L160.88 42.4656C161.038 39.9318 162.147 37.5512 163.986 35.8006C165.825 34.0499 168.257 33.0584 170.795 33.0246H242.129C243.35 33.0158 244.559 33.2577 245.682 33.7353C246.804 34.2129 247.817 34.9161 248.657 35.8013C249.497 36.6864 250.147 37.7347 250.565 38.881C250.983 40.0274 251.161 41.2475 251.089 42.4656L243.134 200.164C242.976 202.699 241.865 205.081 240.025 206.831C238.185 208.582 235.751 209.573 233.212 209.605Z" fill="#049C01"/>
<path opacity="0.2" d="M214.016 194.617H192.503C190.953 194.627 189.418 194.319 187.992 193.713C186.566 193.106 185.28 192.213 184.212 191.09C183.145 189.966 182.319 188.636 181.787 187.18C181.254 185.725 181.025 184.176 181.115 182.629L184.911 106.92C185.105 103.709 186.509 100.691 188.84 98.4746C191.17 96.2578 194.255 95.0069 197.471 94.9739H218.984C220.533 94.9637 222.067 95.2712 223.493 95.8775C224.919 96.4837 226.205 97.3758 227.272 98.4986C228.339 99.6214 229.165 100.951 229.698 102.406C230.231 103.86 230.46 105.408 230.372 106.955L226.548 182.671C226.354 185.877 224.954 188.891 222.629 191.107C220.305 193.323 217.227 194.577 214.016 194.617ZM197.471 95.7554C194.458 95.7904 191.57 96.9648 189.387 99.0424C187.205 101.12 185.89 103.947 185.707 106.955L181.89 182.671C181.803 184.112 182.013 185.556 182.507 186.912C183.002 188.269 183.77 189.509 184.764 190.556C185.758 191.603 186.957 192.434 188.286 192.999C189.615 193.563 191.045 193.848 192.489 193.835H214.002C217.009 193.801 219.892 192.632 222.074 190.561C224.256 188.491 225.575 185.673 225.766 182.671L229.569 106.92C229.654 105.479 229.443 104.036 228.947 102.681C228.452 101.325 227.684 100.086 226.69 99.0393C225.697 97.9927 224.499 97.1612 223.171 96.5963C221.843 96.0315 220.413 95.7452 218.97 95.7554H197.471Z" fill="white"/>
<path opacity="0.1" d="M195.957 115.886H177.815C176.594 115.895 175.385 115.653 174.262 115.176C173.138 114.698 172.125 113.995 171.285 113.11C170.444 112.225 169.794 111.177 169.375 110.03C168.956 108.884 168.777 107.664 168.848 106.445L169.762 88.261C169.929 85.7374 171.037 83.3686 172.869 81.6248C174.701 79.881 177.121 78.8898 179.65 78.8479H197.827C199.048 78.8381 200.258 79.0793 201.382 79.5565C202.505 80.0337 203.519 80.7367 204.36 81.622C205.201 82.5072 205.851 83.5558 206.269 84.7027C206.688 85.8495 206.866 87.0702 206.794 88.2889L205.88 106.473C205.713 109.003 204.599 111.376 202.76 113.121C200.921 114.866 198.492 115.853 195.957 115.886Z" fill="black"/>
<path d="M190.668 110.311H172.484C171.263 110.32 170.054 110.078 168.931 109.6C167.807 109.123 166.794 108.42 165.953 107.535C165.113 106.65 164.463 105.602 164.044 104.455C163.625 103.309 163.446 102.089 163.517 100.87L164.438 82.6859C164.602 80.1558 165.713 77.7804 167.551 76.0341C169.389 74.2878 171.819 73.2993 174.354 73.2659H192.538C193.758 73.257 194.967 73.4989 196.09 73.9765C197.213 74.4541 198.226 75.1573 199.066 76.0425C199.906 76.9276 200.555 77.9759 200.974 79.1223C201.392 80.2686 201.57 81.4887 201.498 82.7068L200.583 100.891C200.42 103.421 199.309 105.797 197.47 107.543C195.632 109.289 193.203 110.278 190.668 110.311Z" fill="white"/>
<path opacity="0.1" d="M221.496 186.229H208.545C207.675 186.235 206.813 186.063 206.013 185.723C205.212 185.383 204.49 184.882 203.891 184.251C203.292 183.621 202.829 182.874 202.53 182.057C202.231 181.24 202.103 180.371 202.153 179.503L202.809 166.545C202.915 164.734 203.703 163.03 205.015 161.777C206.326 160.523 208.064 159.814 209.878 159.79H222.829C223.698 159.784 224.56 159.956 225.361 160.296C226.161 160.637 226.883 161.138 227.482 161.768C228.082 162.399 228.545 163.145 228.844 163.962C229.143 164.779 229.271 165.648 229.22 166.517L228.564 179.475C228.459 181.286 227.671 182.989 226.359 184.243C225.048 185.496 223.31 186.206 221.496 186.229Z" fill="black"/>
<path d="M217.707 182.26H204.77C203.9 182.266 203.039 182.094 202.239 181.753C201.439 181.413 200.717 180.912 200.118 180.282C199.52 179.651 199.057 178.904 198.759 178.087C198.461 177.27 198.334 176.401 198.385 175.533L199.034 162.575C199.148 160.77 199.94 159.074 201.25 157.827C202.561 156.58 204.294 155.873 206.103 155.849H219.06C219.93 155.842 220.791 156.015 221.592 156.355C222.392 156.695 223.113 157.196 223.712 157.827C224.311 158.458 224.773 159.205 225.071 160.021C225.37 160.838 225.497 161.707 225.445 162.575L224.789 175.533C224.678 177.342 223.886 179.042 222.572 180.29C221.257 181.538 219.519 182.242 217.707 182.26Z" fill="white"/>
<path d="M174.549 143.043H165.199C164.568 143.048 163.944 142.923 163.364 142.676C162.784 142.429 162.261 142.065 161.828 141.606C161.395 141.148 161.061 140.605 160.848 140.012C160.634 139.419 160.545 138.788 160.587 138.159L161.061 128.808C161.135 127.5 161.703 126.268 162.649 125.362C163.596 124.455 164.851 123.941 166.162 123.924H175.505C176.136 123.919 176.76 124.044 177.34 124.291C177.92 124.538 178.443 124.902 178.876 125.361C179.309 125.819 179.643 126.362 179.856 126.955C180.07 127.548 180.159 128.179 180.117 128.808L179.643 138.159C179.569 139.466 179.002 140.697 178.057 141.603C177.112 142.51 175.858 143.024 174.549 143.043Z" fill="white"/>
<path d="M234.509 143.043H225.166C224.536 143.048 223.911 142.923 223.331 142.676C222.751 142.429 222.228 142.065 221.795 141.606C221.362 141.148 221.029 140.605 220.815 140.012C220.601 139.419 220.512 138.788 220.554 138.159L221.028 128.808C221.101 127.5 221.667 126.269 222.612 125.362C223.558 124.455 224.812 123.941 226.122 123.924H235.472C236.103 123.919 236.728 124.044 237.308 124.291C237.888 124.538 238.41 124.902 238.843 125.361C239.276 125.819 239.61 126.362 239.823 126.955C240.037 127.548 240.126 128.179 240.085 128.808L239.61 138.159C239.536 139.467 238.969 140.699 238.022 141.606C237.075 142.512 235.82 143.026 234.509 143.043Z" fill="white"/>
<path d="M204.532 143.043H195.182C194.552 143.048 193.927 142.923 193.347 142.676C192.767 142.429 192.244 142.065 191.811 141.606C191.378 141.148 191.045 140.605 190.831 140.012C190.618 139.419 190.529 138.788 190.57 138.159L191.044 128.808C191.118 127.5 191.686 126.268 192.633 125.362C193.579 124.455 194.835 123.941 196.145 123.924H205.488C206.119 123.919 206.744 124.044 207.324 124.291C207.904 124.538 208.427 124.902 208.859 125.361C209.292 125.819 209.626 126.362 209.84 126.955C210.053 127.548 210.142 128.179 210.101 128.808L209.626 138.159C209.552 139.466 208.986 140.697 208.04 141.603C207.095 142.51 205.842 143.024 204.532 143.043Z" fill="white"/>
<path d="M239.338 60.5168H170.823C170.142 60.5218 169.467 60.3869 168.84 60.1204C168.214 59.854 167.648 59.4616 167.179 58.9678C166.71 58.4739 166.347 57.8889 166.114 57.2492C165.88 56.6094 165.78 55.9285 165.82 55.2485V55.1229C165.91 53.7094 166.529 52.3816 167.555 51.405C168.581 50.4283 169.937 49.8747 171.354 49.8547H239.841C240.522 49.8487 241.198 49.9829 241.826 50.2489C242.453 50.515 243.02 50.9071 243.489 51.4011C243.959 51.8951 244.323 52.4804 244.557 53.1206C244.791 53.7609 244.891 54.4424 244.851 55.1229V55.2485C244.762 56.6585 244.145 57.9833 243.124 58.9595C242.102 59.9356 240.751 60.4915 239.338 60.5168Z" fill="white"/>
<path d="M236.233 52.1934L237.105 54.1681L239.268 54.4821L237.614 56.0172L237.88 58.1803L235.982 57.1616L233.986 58.1803L234.467 56.0172L232.974 54.4821L235.165 54.1681L236.233 52.1934Z" fill="#049C01"/>
<path opacity="0.1" d="M174.786 55.1865C174.754 55.7197 174.52 56.2204 174.131 56.5862C173.741 56.952 173.227 57.1552 172.693 57.1543C172.439 57.1567 172.187 57.1067 171.953 57.0073C171.718 56.9079 171.507 56.7612 171.333 56.5766C171.158 56.3919 171.023 56.1731 170.936 55.9339C170.85 55.6948 170.814 55.4403 170.83 55.1865C170.862 54.6534 171.097 54.1527 171.486 53.7869C171.875 53.421 172.389 53.2178 172.923 53.2188C173.177 53.2174 173.429 53.2681 173.663 53.3679C173.896 53.4676 174.107 53.6143 174.281 53.7987C174.456 53.9832 174.591 54.2015 174.678 54.4402C174.765 54.679 174.802 54.933 174.786 55.1865Z" fill="#049C01"/>
<path opacity="0.1" d="M179.832 55.1867C179.799 55.7198 179.565 56.2205 179.176 56.5863C178.787 56.9521 178.272 57.1554 177.738 57.1544C177.484 57.1568 177.231 57.1067 176.997 57.0074C176.762 56.9081 176.551 56.7616 176.375 56.577C176.2 56.3925 176.064 56.1738 175.977 55.9346C175.89 55.6954 175.853 55.4408 175.868 55.1867C175.9 54.6535 176.135 54.1528 176.524 53.787C176.913 53.4212 177.427 53.218 177.961 53.2189C178.216 53.2155 178.469 53.2648 178.704 53.3638C178.939 53.4628 179.151 53.6093 179.327 53.794C179.502 53.9788 179.638 54.1979 179.725 54.4376C179.811 54.6772 179.848 54.9323 179.832 55.1867Z" fill="#049C01"/>
<path opacity="0.1" d="M184.912 55.1867C184.879 55.7198 184.645 56.2205 184.256 56.5863C183.867 56.9521 183.352 57.1554 182.818 57.1544C182.563 57.1578 182.31 57.1085 182.076 57.0095C181.841 56.9105 181.629 56.7641 181.453 56.5793C181.277 56.3945 181.142 56.1754 181.055 55.9357C180.968 55.6961 180.932 55.4411 180.948 55.1867C180.98 54.6535 181.215 54.1528 181.604 53.787C181.993 53.4212 182.507 53.218 183.041 53.2189C183.296 53.2155 183.549 53.2648 183.784 53.3638C184.019 53.4628 184.231 53.6093 184.407 53.794C184.582 53.9788 184.718 54.1979 184.805 54.4376C184.892 54.6772 184.928 54.9323 184.912 55.1867Z" fill="#049C01"/>
<path opacity="0.2" d="M199.732 41.5171L203.681 44.6152L203.995 38.4189L199.732 41.5171Z" fill="white"/>
<path opacity="0.2" d="M212.32 41.5171L208.057 44.6152L208.364 38.4189L212.32 41.5171Z" fill="white"/>
<path opacity="0.2" d="M236.791 84.1998H211.88C211.619 84.2013 211.36 84.1488 211.12 84.0455C210.879 83.9422 210.663 83.7905 210.485 83.5997C210.301 83.4086 210.16 83.1816 210.068 82.933C209.977 82.6844 209.938 82.4197 209.954 82.1553C209.987 81.6181 210.221 81.1129 210.608 80.7395C210.996 80.3661 211.509 80.1517 212.048 80.1387H236.965C237.229 80.1364 237.49 80.1882 237.733 80.2911C237.976 80.3939 238.195 80.5456 238.377 80.7366C238.559 80.9276 238.7 81.154 238.791 81.4016C238.881 81.6493 238.92 81.9129 238.905 82.1763C238.872 82.7177 238.636 83.2266 238.244 83.6017C237.852 83.9767 237.333 84.1903 236.791 84.1998ZM212.062 80.5295C211.619 80.5356 211.195 80.7086 210.874 81.0139C210.553 81.3192 210.359 81.7343 210.331 82.1763C210.318 82.3866 210.348 82.5974 210.421 82.7955C210.493 82.9936 210.605 83.1747 210.75 83.3276C210.896 83.4804 211.071 83.6019 211.265 83.6846C211.46 83.7674 211.669 83.8098 211.88 83.8091H236.791C237.236 83.8046 237.663 83.6314 237.985 83.3245C238.308 83.0175 238.502 82.5997 238.528 82.1553C238.539 81.9446 238.507 81.7339 238.434 81.5359C238.361 81.338 238.248 81.157 238.103 81.004C237.958 80.8524 237.783 80.732 237.59 80.6504C237.397 80.5688 237.189 80.5277 236.979 80.5295H212.062Z" fill="white"/>
<path opacity="0.2" d="M236.547 89.775H211.636C211.371 89.7774 211.109 89.7253 210.866 89.6221C210.623 89.5188 210.403 89.3665 210.221 89.1747C210.039 88.9829 209.899 88.7557 209.808 88.5072C209.718 88.2588 209.68 87.9943 209.696 87.7305C209.729 87.1933 209.962 86.688 210.35 86.3146C210.738 85.9412 211.251 85.7268 211.789 85.7139H236.707C236.968 85.7136 237.227 85.7667 237.467 85.8699C237.707 85.9731 237.923 86.1242 238.103 86.314C238.285 86.5041 238.425 86.7301 238.516 86.9776C238.606 87.2251 238.643 87.4886 238.626 87.7514C238.595 88.2875 238.364 88.7925 237.979 89.167C237.595 89.5415 237.083 89.7584 236.547 89.775ZM211.817 86.1046C211.374 86.1108 210.95 86.2838 210.629 86.589C210.309 86.8943 210.115 87.3094 210.087 87.7514C210.074 87.962 210.105 88.1729 210.178 88.3711C210.25 88.5692 210.362 88.7504 210.507 88.9035C210.653 89.0565 210.828 89.1782 211.022 89.2609C211.216 89.3435 211.425 89.3855 211.636 89.3842H236.547C236.991 89.3796 237.417 89.2062 237.738 88.8991C238.06 88.592 238.252 88.1742 238.277 87.7305C238.289 87.5202 238.258 87.3098 238.186 87.1119C238.114 86.9139 238.003 86.7327 237.858 86.5791C237.714 86.4275 237.539 86.3071 237.346 86.2255C237.153 86.1439 236.945 86.1028 236.735 86.1046H211.817Z" fill="white"/>
<path opacity="0.2" d="M168.862 184.631C168.598 184.632 168.337 184.58 168.094 184.476C167.851 184.372 167.632 184.22 167.45 184.029C167.268 183.837 167.128 183.61 167.037 183.362C166.946 183.114 166.907 182.85 166.923 182.586L168.165 157.697C168.198 157.159 168.431 156.653 168.818 156.278C169.206 155.904 169.719 155.688 170.258 155.673C170.522 155.669 170.783 155.719 171.027 155.82C171.271 155.921 171.491 156.071 171.674 156.261C171.857 156.451 171.999 156.676 172.092 156.923C172.184 157.17 172.225 157.433 172.212 157.697L170.956 182.607C170.924 183.146 170.692 183.653 170.304 184.028C169.916 184.403 169.402 184.618 168.862 184.631ZM170.3 156.022C169.856 156.028 169.431 156.202 169.11 156.509C168.789 156.816 168.596 157.233 168.569 157.676L167.313 182.586C167.3 182.797 167.33 183.008 167.402 183.206C167.474 183.405 167.587 183.586 167.732 183.738C167.878 183.891 168.053 184.012 168.248 184.094C168.442 184.175 168.652 184.216 168.862 184.212C169.305 184.206 169.729 184.033 170.05 183.728C170.371 183.423 170.565 183.008 170.593 182.566L171.849 157.655C171.862 157.444 171.832 157.234 171.759 157.036C171.687 156.837 171.575 156.656 171.43 156.503C171.279 156.347 171.096 156.226 170.894 156.146C170.692 156.067 170.475 156.032 170.258 156.043L170.3 156.022Z" fill="white"/>
<path d="M103.537 106.761L106.865 109.664L100.718 112.455C100.49 111.234 100.333 110.002 100.25 108.763C100.214 108.312 100.358 107.864 100.651 107.519C100.944 107.174 101.362 106.959 101.813 106.921L103.537 106.761Z" fill="#FFC3BD"/>
<path d="M108.1 115.559H102.651L100.718 112.433L106.865 109.656L108.1 115.559Z" fill="#FFC3BD"/>
<path d="M139.249 63.498C141.573 66.4427 143.987 69.4641 146.395 72.3878C148.802 75.3115 151.279 78.2212 153.791 80.9286L154.747 81.9264L155.11 82.2963C155.209 82.4 155.316 82.4956 155.431 82.5823C156.017 83.044 156.643 83.4526 157.301 83.8035C158.879 84.6116 160.511 85.311 162.185 85.8968C165.674 87.1668 169.338 88.2693 172.973 89.295L172.436 93.391C168.397 93.3318 164.373 92.8855 160.42 92.0582C158.337 91.6377 156.297 91.0329 154.321 90.2509C153.205 89.812 152.137 89.2603 151.132 88.6042C150.845 88.4187 150.568 88.2184 150.302 88.0041L149.883 87.6622L149.583 87.397L148.439 86.3713C145.498 83.6432 142.703 80.762 140.066 77.7398C137.442 74.7532 134.979 71.7249 132.585 68.5011L139.249 63.498Z" fill="#FFC3BD"/>
<path d="M179.477 88.5973L180.97 94.3679L175.123 94.04L176.448 87.6064L179.477 88.5973Z" fill="#FFC3BD"/>
<path d="M171.34 89.3154L176.448 87.6338L175.122 94.0673C175.122 94.0673 170.607 95.3861 168.988 92.0856L171.34 89.3154Z" fill="#FFC3BD"/>
<path d="M110.076 65.9195C109.015 69.5619 107.905 73.2183 106.775 76.8398L105.1 82.2615L104.291 84.955L103.907 86.2738L103.586 87.4809C103.446 88.1701 103.371 88.871 103.363 89.5743C103.363 90.3976 103.363 91.2838 103.363 92.177C103.454 93.9703 103.593 95.8194 103.789 97.6755C104.165 101.388 104.626 105.184 105.086 108.938L101.074 109.956C99.6907 106.291 98.5257 102.547 97.5853 98.7431C97.1247 96.8242 96.6991 94.8844 96.399 92.8678C96.2525 91.856 96.1199 90.8303 96.0432 89.7417C95.9434 88.5346 95.9762 87.3202 96.1409 86.1203C96.1967 85.7225 96.2386 85.5481 96.2874 85.2759L96.42 84.5223L96.72 83.057C96.9224 82.0871 97.1387 81.1311 97.369 80.1821C97.8062 78.2842 98.2714 76.4048 98.7645 74.5441C99.7554 70.804 100.858 67.1197 102.03 63.4424L110.076 65.9195Z" fill="#FFC3BD"/>
<path d="M130.422 41.4896C130.331 41.9222 130.485 42.3339 130.764 42.4037C131.043 42.4734 131.35 42.1804 131.462 41.7477C131.573 41.3151 131.399 40.8964 131.12 40.8267C130.841 40.7569 130.485 41.05 130.422 41.4896Z" fill="#263238"/>
<path d="M130.443 42.3203C130.676 43.7846 131.103 45.2114 131.713 46.5628C130.799 47.0862 129.571 46.4302 129.571 46.4302L130.443 42.3203Z" fill="#ED847E"/>
<path d="M131.574 38.8464C131.616 38.8477 131.658 38.8381 131.696 38.8186C131.734 38.799 131.766 38.7702 131.79 38.7348C131.81 38.7069 131.824 38.6754 131.832 38.642C131.839 38.6086 131.84 38.574 131.835 38.5402C131.829 38.5064 131.816 38.4742 131.798 38.4453C131.779 38.4164 131.755 38.3915 131.727 38.3719C131.376 38.1548 130.977 38.0256 130.566 37.9952C130.154 37.9649 129.741 38.0343 129.362 38.1975C129.298 38.2243 129.247 38.2754 129.221 38.3396C129.195 38.4037 129.195 38.4756 129.222 38.5394C129.249 38.6033 129.3 38.6538 129.364 38.68C129.428 38.7062 129.5 38.7058 129.564 38.679C129.862 38.5504 130.187 38.4948 130.511 38.5166C130.835 38.5385 131.149 38.6372 131.427 38.8046C131.471 38.8322 131.522 38.8467 131.574 38.8464Z" fill="#263238"/>
<path d="M115.469 42.873C114.98 47.9389 115.699 52.8443 114.562 57.2473C114.562 57.2473 115.825 61.3293 123.312 61.3293C131.546 61.3293 127.087 57.2473 127.087 57.2473C122.551 56.1727 122.537 52.8374 123.2 49.7113L115.469 42.873Z" fill="#FFC3BD"/>
<path d="M112.971 58.6496C112.329 57.3517 111.903 55.5235 113.229 55.056C114.688 54.5466 122.482 54.3582 125.308 55.3351C126.062 55.5357 126.707 56.0232 127.106 56.6935C127.505 57.3637 127.626 58.1635 127.443 58.9217L112.971 58.6496Z" fill="#049C01"/>
<path d="M98.0107 242.646C97.4948 242.514 96.996 242.322 96.5244 242.074C96.4995 242.061 96.479 242.04 96.4654 242.016C96.4518 241.991 96.4456 241.963 96.4476 241.935C96.4509 241.907 96.4617 241.88 96.4789 241.858C96.4962 241.836 96.5191 241.819 96.5453 241.809C96.7896 241.725 98.9527 241.013 99.5249 241.502C99.5859 241.557 99.631 241.628 99.6556 241.706C99.6801 241.785 99.6832 241.868 99.6644 241.948C99.6491 242.089 99.5989 242.223 99.5185 242.339C99.438 242.454 99.3299 242.548 99.2039 242.611C98.8216 242.758 98.4009 242.77 98.0107 242.646ZM96.971 241.948C97.92 242.381 98.6945 242.528 99.0643 242.332C99.1499 242.287 99.2228 242.221 99.2764 242.141C99.33 242.061 99.3627 241.968 99.3713 241.872C99.3823 241.84 99.3835 241.806 99.3748 241.774C99.3661 241.741 99.3478 241.712 99.3225 241.69C99.0434 241.467 97.8432 241.711 96.9919 241.976L96.971 241.948Z" fill="#049C01"/>
<path d="M96.5588 242.089C96.5313 242.084 96.5066 242.069 96.489 242.047C96.4698 242.029 96.4563 242.005 96.4501 241.979C96.4439 241.953 96.4453 241.926 96.4541 241.901C96.4541 241.831 97.0123 240.177 97.8497 239.807C97.9477 239.759 98.0545 239.731 98.1636 239.725C98.2727 239.719 98.3819 239.735 98.4847 239.772C98.5885 239.797 98.6804 239.857 98.7442 239.943C98.808 240.028 98.8397 240.133 98.8335 240.24C98.8335 240.938 97.3333 241.929 96.6495 242.11L96.5588 242.089ZM98.3032 239.996C98.1847 239.974 98.0623 239.991 97.9543 240.045C97.431 240.296 97.0123 241.238 96.8239 241.719C97.5217 241.398 98.5126 240.61 98.5335 240.205C98.5335 240.17 98.5335 240.079 98.3591 240.017L98.3032 239.996Z" fill="#049C01"/>
<path d="M136.123 246.903C135.591 246.892 135.062 246.819 134.546 246.686C134.519 246.681 134.495 246.667 134.476 246.647C134.457 246.627 134.445 246.602 134.442 246.575C134.437 246.547 134.44 246.518 134.451 246.492C134.462 246.466 134.481 246.444 134.504 246.428C134.728 246.289 136.667 245.103 137.33 245.444C137.405 245.48 137.467 245.537 137.511 245.608C137.554 245.678 137.576 245.759 137.575 245.842C137.592 245.982 137.574 246.124 137.523 246.256C137.472 246.388 137.389 246.504 137.282 246.596C136.942 246.827 136.533 246.935 136.123 246.903ZM134.965 246.491C135.984 246.693 136.772 246.659 137.1 246.379C137.173 246.316 137.229 246.236 137.263 246.146C137.297 246.056 137.308 245.959 137.295 245.863C137.297 245.83 137.29 245.796 137.274 245.767C137.258 245.737 137.234 245.712 137.205 245.696C136.856 245.514 135.753 246.031 134.965 246.491Z" fill="#049C01"/>
<path d="M134.581 246.694C134.556 246.702 134.53 246.702 134.504 246.694C134.484 246.679 134.467 246.659 134.456 246.636C134.445 246.613 134.44 246.587 134.442 246.562C134.442 246.485 134.588 244.748 135.286 244.182C135.368 244.11 135.465 244.056 135.569 244.023C135.674 243.991 135.784 243.981 135.893 243.994C136.001 243.994 136.105 244.031 136.188 244.1C136.271 244.169 136.327 244.265 136.347 244.371C136.479 245.069 135.272 246.36 134.651 246.694C134.628 246.701 134.604 246.701 134.581 246.694ZM135.795 244.252C135.675 244.254 135.558 244.298 135.467 244.378C135.055 244.924 134.812 245.579 134.77 246.262C135.391 245.794 136.165 244.796 136.081 244.399C136.081 244.364 136.081 244.28 135.872 244.259H135.809L135.795 244.252Z" fill="#049C01"/>
<path d="M128.106 246.477H133.611L133.667 233.722H128.162L128.106 246.477Z" fill="#FFC3BD"/>
<path d="M89.728 241.753L95.0312 242.73L98.8341 230.177L93.5309 229.207L89.728 241.753Z" fill="#FFC3BD"/>
<path d="M96.0427 241.314L90.0209 239.919C89.9154 239.895 89.805 239.908 89.7083 239.957C89.6116 240.005 89.5347 240.085 89.4906 240.184L87.4879 244.74C87.44 244.854 87.4179 244.977 87.4231 245.101C87.4283 245.224 87.4608 245.345 87.5181 245.454C87.5755 245.564 87.6563 245.659 87.7548 245.733C87.8534 245.808 87.9671 245.86 88.088 245.885C90.1814 246.345 91.242 246.464 93.8866 247.092C95.5194 247.476 98.8408 248.439 101.088 248.976C103.335 249.513 104.074 247.329 103.181 246.883C99.2316 244.992 97.9198 243.394 96.8312 241.859C96.6408 241.59 96.3615 241.397 96.0427 241.314Z" fill="#263238"/>
<path d="M133.549 245.836H127.534C127.426 245.836 127.322 245.873 127.239 245.942C127.156 246.011 127.1 246.107 127.08 246.213L126.18 251.097C126.16 251.218 126.166 251.341 126.198 251.459C126.231 251.577 126.289 251.686 126.368 251.779C126.447 251.872 126.545 251.947 126.656 251.998C126.768 252.049 126.888 252.075 127.011 252.074C129.181 252.074 132.314 251.914 135.042 251.914C138.231 251.914 139.361 252.088 143.101 252.088C145.362 252.088 145.892 249.799 144.95 249.59C140.603 248.648 138.705 248.55 134.895 246.255C134.493 245.994 134.028 245.849 133.549 245.836Z" fill="#263238"/>
<path d="M104.43 59.2413C99.0575 64.3699 97.4526 75.8763 97.4526 75.8763L107.166 80.6352C109.092 76.6415 110.695 72.4996 111.959 68.2496C113.899 61.4881 108.317 55.536 104.43 59.2413Z" fill="#263238"/>
<path opacity="0.2" d="M109.259 66.8467L104.312 79.2183L107.165 80.6139C107.165 80.6139 108.763 77.3971 110.347 73.1337L109.259 66.8467Z" fill="black"/>
<path d="M138.419 83.0924C138.377 89.2398 138.007 96.8875 137.086 106.377H107.626C107.263 102.051 109.07 81.6549 104.688 61.2309C104.611 60.8712 104.607 60.4995 104.679 60.1386C104.75 59.7776 104.894 59.435 105.103 59.1318C105.311 58.8287 105.579 58.5713 105.891 58.3755C106.202 58.1797 106.55 58.0496 106.914 57.9932C109.226 57.6242 111.555 57.3727 113.892 57.2396C118.061 57.0022 122.241 57.0022 126.41 57.2396C129.29 57.5297 132.143 58.0429 134.944 58.7747C134.944 58.7747 137.463 61.503 138.223 74.3003C138.356 76.8263 138.433 79.736 138.419 83.0924Z" fill="#263238"/>
<path d="M110.445 57.1068L109.161 57.2603C109.109 57.2663 109.06 57.2825 109.015 57.3081C108.97 57.3336 108.931 57.3679 108.9 57.409C108.869 57.45 108.846 57.4969 108.833 57.5469C108.82 57.5969 108.818 57.649 108.826 57.7C109.223 60.3236 112.566 75.9818 137.435 98.869C137.487 98.9197 137.554 98.9542 137.625 98.9686C137.697 98.983 137.771 98.9767 137.839 98.9503C137.907 98.9239 137.967 98.8786 138.01 98.8197C138.053 98.7608 138.079 98.6907 138.084 98.6178L138.181 97.1664C138.185 97.1091 138.176 97.0516 138.154 96.9983C138.132 96.9451 138.099 96.8976 138.056 96.8594C113.04 73.9652 111.024 60.0096 110.877 57.4697C110.874 57.417 110.86 57.3656 110.836 57.3186C110.812 57.2715 110.779 57.2298 110.738 57.1959C110.698 57.1619 110.651 57.1366 110.601 57.1213C110.55 57.106 110.497 57.1011 110.445 57.1068Z" fill="#049C01"/>
<path d="M126.389 87.0752L137.701 97.9466L136.389 98.77C135.537 99.3027 134.557 99.5956 133.552 99.6177C132.547 99.6398 131.555 99.3903 130.681 98.8956L127.694 97.2C126.567 96.5559 125.699 95.5387 125.24 94.3236C124.782 93.1086 124.761 91.7717 125.182 90.5432L126.389 87.0752Z" fill="#049C01"/>
<path d="M130.129 96.824C130.227 97.0404 130.68 97.0055 131.148 96.7403C131.615 96.4752 131.908 96.0844 131.846 95.8611C131.783 95.6378 131.294 95.6797 130.827 95.9448C130.359 96.21 130.031 96.6077 130.129 96.824Z" fill="#263238"/>
<path opacity="0.2" d="M138.419 83.0929C136.633 79.8412 133.395 73.3239 133.855 69.5908L138.203 74.3008C138.356 76.8268 138.433 79.7365 138.419 83.0929Z" fill="black"/>
<path d="M129.146 63.756C128.678 68.9754 140.575 81.6261 140.575 81.6261L150.114 73.8598C150.114 73.8598 146.193 67.0634 141.196 62.2348C135.621 56.841 129.669 57.8737 129.146 63.756Z" fill="#263238"/>
<g opacity="0.2">
<path d="M133.666 233.722L133.638 240.811H128.126L128.154 233.722H133.666Z" fill="black"/>
<path d="M93.5301 229.208L98.8332 230.185L96.8725 236.646L91.5693 235.676L93.5301 229.208Z" fill="black"/>
</g>
<path d="M116.25 36.9399C115.448 42.3616 114.701 45.4807 116.794 48.8998C117.461 50.0096 118.417 50.9165 119.561 51.5226C120.705 52.1287 121.992 52.4111 123.285 52.3393C124.577 52.2675 125.826 51.8442 126.895 51.1151C127.965 50.3861 128.815 49.3788 129.354 48.202C131.511 43.6874 132.467 35.5792 127.736 32.1531C126.734 31.3864 125.548 30.8971 124.297 30.7346C123.046 30.5721 121.774 30.7421 120.61 31.2274C119.445 31.7127 118.429 32.4962 117.664 33.499C116.899 34.5019 116.411 35.6886 116.25 36.9399Z" fill="#FFC3BD"/>
<path d="M126.027 41.9579C125.985 43.4999 122.028 48.5379 118.658 49.1659C115.009 49.8637 114.067 48.8101 113.488 43.8349C112.825 38.1131 110.906 38.1131 110.075 34.4637C109.022 29.8653 113.529 25.6717 118.86 28.1837C123.48 30.3887 127.75 26.0903 130.932 24.7715C134.114 23.4527 134.609 27.1649 132.481 29.656C130.353 32.1471 133.716 30.6119 134.693 31.6586C136.438 33.5287 133.577 37.7363 126.438 39.404C127.694 40.7367 126.027 41.9579 126.027 41.9579Z" fill="#263238"/>
<path d="M124.352 40.2828C124.367 41.6628 124.822 43.002 125.649 44.1066C126.759 45.551 128.05 44.8463 128.357 43.2483C128.636 41.8109 128.399 39.3268 126.996 38.4476C125.594 37.5684 124.352 38.636 124.352 40.2828Z" fill="#FFC3BD"/>
<path d="M126.634 106.377C126.634 106.377 122.015 148.467 119.189 164.237C116.097 181.507 100.09 235.711 100.09 235.711L90.2236 233.617C90.2236 233.617 101.242 182.917 102.728 165.814C104.34 147.26 107.612 106.391 107.612 106.391L126.634 106.377Z" fill="#049C01"/>
<path opacity="0.15" d="M126.634 106.377C126.634 106.377 122.015 148.467 119.189 164.237C116.097 181.507 100.09 235.711 100.09 235.711L90.2236 233.617C90.2236 233.617 101.242 182.917 102.728 165.814C104.34 147.26 107.612 106.391 107.612 106.391L126.634 106.377Z" fill="white"/>
<path d="M102.302 232.361C102.344 232.361 100.62 235.968 100.62 235.968L89.5186 233.603L90.314 230.239L102.302 232.361Z" fill="#263238"/>
<path opacity="0.2" d="M123.264 121.372C116.091 122.768 117.898 149.744 119.3 163.609C121.01 153.805 123.334 134.951 124.883 121.567C124.379 121.327 123.81 121.258 123.264 121.372Z" fill="black"/>
<path d="M137.086 106.376C137.086 106.376 139.438 147.545 139.487 164.355C139.536 181.799 135.642 239.017 135.642 239.017H126.299C126.299 239.017 123.787 182.839 122.712 165.68C121.533 146.973 117.709 106.369 117.709 106.369L137.086 106.376Z" fill="#049C01"/>
<path opacity="0.15" d="M137.086 106.376C137.086 106.376 139.438 147.545 139.487 164.355C139.536 181.799 135.642 239.017 135.642 239.017H126.299C126.299 239.017 123.787 182.839 122.712 165.68C121.533 146.973 117.709 106.369 117.709 106.369L137.086 106.376Z" fill="white"/>
<path d="M137.295 235.305C137.337 235.305 136.918 239.177 136.918 239.177H125.6L125.161 235.723L137.295 235.305Z" fill="#263238"/>
</g>
<defs>
<clipPath id="clip0_256_7674">
<rect width="348.89" height="260" fill="white"/>
</clipPath>
</defs>
</svg>
