<svg width="382" height="276" viewBox="0 0 382 276" fill="none" xmlns="http://www.w3.org/2000/svg">
<path d="M381.219 249.58H0.1238V249.77H381.219V249.58Z" fill="#EBEBEB"/>
<path d="M343.034 261.843H317.79V262.034H343.034V261.843Z" fill="#EBEBEB"/>
<path d="M252.576 263.916H245.953V264.107H252.576V263.916Z" fill="#EBEBEB"/>
<path d="M317.028 254.77H302.401V254.96H317.028V254.77Z" fill="#EBEBEB"/>
<path d="M73.0275 256.05H40.1085V256.241H73.0275V256.05Z" fill="#EBEBEB"/>
<path d="M84.6429 256.05H79.8182V256.241H84.6429V256.05Z" fill="#EBEBEB"/>
<path d="M171.731 259.267H100.329V259.457H171.731V259.267Z" fill="#EBEBEB"/>
<path d="M180.763 215.586H33.5917C32.4388 215.584 31.3338 215.124 30.5193 214.308C29.7047 213.492 29.2473 212.387 29.2473 211.234V4.35211C29.2473 3.19918 29.7047 2.09336 30.5193 1.2774C31.3338 0.461435 32.4388 0.00201915 33.5917 0L180.763 0C181.917 0 183.024 0.458525 183.841 1.2747C184.657 2.09088 185.115 3.19786 185.115 4.35211V211.234C185.115 211.805 185.003 212.371 184.784 212.899C184.565 213.427 184.245 213.907 183.841 214.311C183.437 214.715 182.957 215.036 182.429 215.254C181.901 215.473 181.335 215.586 180.763 215.586ZM33.5917 0.190548C32.4894 0.192567 31.4328 0.631907 30.654 1.41213C29.8752 2.19236 29.4378 3.24972 29.4378 4.35211V211.234C29.4378 212.336 29.8752 213.393 30.654 214.174C31.4328 214.954 32.4894 215.393 33.5917 215.395H180.763C181.866 215.393 182.924 214.954 183.704 214.174C184.484 213.394 184.923 212.337 184.925 211.234V4.35211C184.923 3.24901 184.484 2.19168 183.704 1.41167C182.924 0.631659 181.866 0.192563 180.763 0.190548H33.5917Z" fill="#EBEBEB"/>
<path d="M345.633 215.586H198.454C197.3 215.584 196.194 215.125 195.379 214.309C194.563 213.493 194.104 212.387 194.102 211.234V4.35211C194.104 3.19848 194.563 2.09267 195.379 1.27693C196.194 0.461187 197.3 0.00201508 198.454 0L345.633 0C346.784 0.00403368 347.887 0.464338 348.7 1.28008C349.513 2.09582 349.97 3.2005 349.97 4.35211V211.234C349.97 212.385 349.513 213.49 348.7 214.306C347.887 215.121 346.784 215.582 345.633 215.586ZM198.454 0.190548C197.351 0.192563 196.293 0.631659 195.513 1.41167C194.733 2.19168 194.294 3.24901 194.292 4.35211V211.234C194.294 212.337 194.733 213.394 195.513 214.174C196.293 214.954 197.351 215.393 198.454 215.395H345.633C346.736 215.393 347.793 214.954 348.573 214.174C349.353 213.394 349.792 212.337 349.794 211.234V4.35211C349.792 3.24901 349.353 2.19168 348.573 1.41167C347.793 0.631659 346.736 0.192563 345.633 0.190548H198.454Z" fill="#EBEBEB"/>
<path d="M284.543 57.2101H273.743V90.8304H284.543V57.2101Z" fill="#E6E6E6"/>
<path d="M313.818 90.8305H277.98L272.569 51.4785H308.407L313.818 90.8305Z" fill="#F0F0F0"/>
<path d="M317.698 90.8305H280.686L275.275 51.4785H312.287L317.698 90.8305Z" fill="#F5F5F5"/>
<path d="M283.361 87.7284L278.804 54.5807H309.611L314.177 87.7284H283.361Z" fill="white"/>
<path d="M289.451 77.6905L287.736 65.2515C287.685 64.9232 287.706 64.5878 287.798 64.2685C287.89 63.9493 288.051 63.6538 288.268 63.4028C288.486 63.1518 288.756 62.9513 289.059 62.8151C289.362 62.6789 289.691 62.6104 290.023 62.6143H301.219C301.78 62.6101 302.323 62.8119 302.744 63.1815C303.166 63.551 303.437 64.0626 303.506 64.6189L305.213 77.0579C305.264 77.3862 305.243 77.7216 305.151 78.0409C305.059 78.3601 304.899 78.6556 304.681 78.9066C304.464 79.1576 304.194 79.3581 303.891 79.4943C303.588 79.6305 303.259 79.699 302.927 79.695H291.745C291.183 79.7012 290.639 79.5002 290.216 79.1305C289.793 78.7608 289.52 78.2481 289.451 77.6905Z" fill="#F5F5F5"/>
<path d="M217.31 20.3736H55.8852V119.954H217.31V20.3736Z" fill="#E6E6E6"/>
<path d="M221.457 20.3736H57.8219V119.954H221.457V20.3736Z" fill="#F0F0F0"/>
<path d="M217.31 119.954H55.8852V127.659H217.31V119.954Z" fill="#E6E6E6"/>
<path d="M228.362 119.954H64.7272V127.659H228.362V119.954Z" fill="#F0F0F0"/>
<path d="M215.648 114.153V26.1812L63.6292 26.1812V114.153L215.648 114.153Z" fill="#FAFAFA"/>
<path d="M74.7883 114.153L108.866 26.1812H124.948L90.8705 114.153H74.7883Z" fill="white"/>
<path d="M94.3298 114.153L128.407 26.1812H134.673L100.595 114.153H94.3298Z" fill="white"/>
<path d="M153.949 114.153L188.027 26.1812H194.292L160.222 114.153H153.949Z" fill="white"/>
<path d="M215.648 114.146V26.1736H214.909V114.146H215.648Z" fill="#E6E6E6"/>
<path d="M339.68 90.8301H305.503V249.579H339.68V90.8301Z" fill="#E6E6E6"/>
<path d="M336.242 249.58H339.679V239.801H332.637L336.242 249.58Z" fill="#F0F0F0"/>
<path d="M279.795 90.8301H245.618V249.579H279.795V90.8301Z" fill="#E6E6E6"/>
<path d="M339.68 90.8301H276.791V243.581H339.68V90.8301Z" fill="#F0F0F0"/>
<path d="M280.229 249.58H276.791V239.801H283.834L280.229 249.58Z" fill="#F0F0F0"/>
<path d="M337.013 93.6277H279.46V165.685H337.013V93.6277Z" fill="#E6E6E6"/>
<path d="M314.466 99.2374H302.004C299.325 99.2354 296.675 98.6884 294.214 97.6297C291.753 96.5709 289.534 95.0226 287.69 93.0789H328.78C326.937 95.0237 324.718 96.5727 322.257 97.6315C319.796 98.6903 317.145 99.2367 314.466 99.2374Z" fill="#F0F0F0"/>
<path d="M337.013 168.604H279.46V240.662H337.013V168.604Z" fill="#E6E6E6"/>
<path d="M314.466 174.206H302.004C299.326 174.206 296.676 173.66 294.215 172.603C291.754 171.545 289.534 169.998 287.69 168.056H328.78C326.937 169.999 324.717 171.547 322.256 172.605C319.795 173.662 317.145 174.207 314.466 174.206Z" fill="#F0F0F0"/>
<path d="M98.8275 140.96H155.702L163.949 174.542H107.067L98.8275 140.96Z" fill="#E6E6E6"/>
<path d="M107.066 174.542L107.303 176.402H164.177L163.949 174.542H107.066Z" fill="#E6E6E6"/>
<path d="M100.58 140.96H157.455L165.702 174.542H108.819L100.58 140.96Z" fill="#F0F0F0"/>
<path d="M110.024 173.01L102.532 142.492H156.251L163.744 173.01H110.024Z" fill="white"/>
<path d="M123.644 174.542L123.873 176.402H186.502L186.274 174.542H123.644Z" fill="#F0F0F0"/>
<path d="M200.793 176.401H193.979V249.572H200.793V176.401Z" fill="#E6E6E6"/>
<path d="M202.951 176.401H198.218V249.572H202.951V176.401Z" fill="#F0F0F0"/>
<path d="M116.609 184.771H204.421V176.394H116.609V184.771Z" fill="#F0F0F0"/>
<path d="M113.553 184.778H106.739V249.572H113.553V184.778Z" fill="#E6E6E6"/>
<path d="M115.702 184.778H110.969V249.572H115.702V184.778Z" fill="#F0F0F0"/>
<path d="M70.4212 184.778H63.6072V249.572H70.4212V184.778Z" fill="#E6E6E6"/>
<path d="M72.5773 184.778H67.8441V249.572H72.5773V184.778Z" fill="#F0F0F0"/>
<path d="M157.669 184.778H150.855V249.572H157.669V184.778Z" fill="#E6E6E6"/>
<path d="M159.818 184.778H155.085V249.572H159.818V184.778Z" fill="#F0F0F0"/>
<path d="M116.602 176.401H63.6072V184.778H116.602V176.401Z" fill="#E6E6E6"/>
<path d="M222.942 249.579H221.288L216.586 226.218L215.755 222.133L210.541 196.645H190.725L180 249.579H178.324L189.269 195.7C189.305 195.522 189.399 195.362 189.537 195.244C189.676 195.127 189.85 195.059 190.031 195.052H211.25C211.432 195.058 211.607 195.125 211.745 195.242C211.884 195.36 211.978 195.522 212.012 195.7L216.586 218.055L217.416 222.141L222.942 249.579Z" fill="#F0F0F0"/>
<path d="M254.763 249.58H253.102L242.355 196.645H222.538L217.347 222.141L216.585 226.218L211.837 249.58H210.183L215.754 222.141L216.578 218.063L221.151 195.708C221.188 195.531 221.283 195.371 221.421 195.253C221.559 195.136 221.732 195.068 221.913 195.06H243.064C243.245 195.067 243.419 195.134 243.557 195.252C243.695 195.369 243.79 195.53 243.826 195.708L254.763 249.58Z" fill="#F0F0F0"/>
<path d="M205.915 195.883H242.333C249.284 195.883 253.141 191.15 255.107 183.368L256.067 178.917C256.392 177.571 256.406 176.168 256.109 174.816C255.813 173.463 255.213 172.195 254.355 171.108C253.497 170.021 252.403 169.143 251.156 168.541C249.91 167.938 248.542 167.626 247.157 167.629H224.292C219.566 167.629 218.316 168.757 215.046 175.876C211.776 182.995 205.915 195.883 205.915 195.883Z" fill="#F0F0F0"/>
<path d="M225.771 195.868H186.96C186.477 195.868 186.013 195.676 185.672 195.334C185.33 194.993 185.138 194.529 185.138 194.046V193.879C185.138 192.557 185.663 191.289 186.598 190.354C187.533 189.419 188.801 188.894 190.123 188.894H225.771V195.876V195.868Z" fill="#F0F0F0"/>
<path d="M220.115 41.6999H109.345C108.162 41.6918 106.989 41.9263 105.9 42.3887C104.811 42.8512 103.827 43.5318 103.011 44.3888C102.195 45.2457 101.563 46.2608 101.154 47.3714C100.745 48.482 100.568 49.6645 100.633 50.8462L111.022 266.226C111.17 268.68 112.241 270.986 114.02 272.683C115.798 274.38 118.153 275.34 120.61 275.372H231.38C232.563 275.381 233.735 275.146 234.824 274.684C235.913 274.221 236.896 273.54 237.711 272.683C238.527 271.826 239.158 270.811 239.566 269.7C239.974 268.59 240.151 267.407 240.084 266.226L229.703 50.8462C229.555 48.3927 228.484 46.086 226.705 44.3894C224.927 42.6928 222.572 41.732 220.115 41.6999Z" fill="black"/>
<path d="M224.208 41.6997H113.409C112.226 41.6916 111.053 41.926 109.964 42.3886C108.875 42.8511 107.893 43.5319 107.077 44.389C106.261 45.2461 105.63 46.2612 105.222 47.3718C104.814 48.4823 104.638 49.6647 104.704 50.846L115.085 266.226C115.233 268.68 116.304 270.986 118.083 272.683C119.861 274.379 122.216 275.34 124.674 275.372H235.443C236.626 275.38 237.798 275.146 238.887 274.683C239.976 274.221 240.959 273.54 241.775 272.683C242.59 271.826 243.222 270.811 243.63 269.7C244.038 268.59 244.214 267.407 244.147 266.226L233.766 50.846C233.619 48.3977 232.552 46.0953 230.78 44.3995C229.008 42.7037 226.661 41.7395 224.208 41.6997Z" fill="#263238"/>
<path d="M124.36 269.275C123.544 269.254 122.765 268.931 122.175 268.367C121.585 267.804 121.225 267.04 121.167 266.226L110.801 50.8463C110.784 50.4535 110.846 50.0612 110.984 49.6929C111.121 49.3247 111.332 48.9881 111.604 48.7033C111.875 48.4186 112.201 48.1916 112.562 48.036C112.923 47.8803 113.312 47.7992 113.705 47.7975H224.474C225.291 47.8165 226.071 48.1395 226.661 48.7035C227.252 49.2674 227.611 50.0316 227.668 50.8463L238.049 266.226C238.066 266.618 238.004 267.01 237.867 267.378C237.729 267.746 237.519 268.082 237.249 268.366C236.979 268.651 236.653 268.878 236.293 269.034C235.933 269.19 235.545 269.272 235.152 269.275H124.36Z" fill="#049C01"/>
<path opacity="0.1" d="M124.308 267.75C123.9 267.737 123.512 267.574 123.217 267.293C122.922 267.012 122.74 266.632 122.707 266.226L112.326 50.8461C112.32 50.6507 112.353 50.456 112.422 50.2732C112.492 50.0905 112.597 49.9235 112.732 49.7817C112.867 49.6399 113.028 49.5263 113.207 49.4473C113.386 49.3684 113.579 49.3257 113.774 49.3218H224.543C224.951 49.3353 225.339 49.4981 225.634 49.7792C225.929 50.0603 226.111 50.44 226.144 50.8461L236.525 266.226C236.532 266.422 236.5 266.617 236.431 266.8C236.362 266.983 236.256 267.151 236.121 267.293C235.987 267.435 235.825 267.548 235.645 267.627C235.466 267.706 235.273 267.748 235.077 267.75H124.308Z" fill="black"/>
<g opacity="0.3">
<path d="M157.737 255.334H135.793C135.191 255.327 134.613 255.092 134.178 254.676C133.742 254.26 133.48 253.695 133.446 253.093L131.845 219.778C131.827 219.484 131.869 219.189 131.97 218.912C132.071 218.636 132.228 218.383 132.432 218.17C132.635 217.958 132.879 217.79 133.149 217.676C133.419 217.562 133.709 217.505 134.002 217.507H155.984C156.585 217.512 157.161 217.745 157.596 218.16C158.03 218.575 158.291 219.14 158.324 219.74L159.901 253.048C159.92 253.342 159.878 253.638 159.778 253.916C159.677 254.194 159.52 254.448 159.317 254.662C159.114 254.877 158.869 255.047 158.597 255.163C158.325 255.279 158.032 255.337 157.737 255.334ZM133.972 218.269C133.781 218.266 133.592 218.303 133.416 218.377C133.24 218.451 133.081 218.561 132.95 218.699C132.818 218.837 132.716 219 132.651 219.18C132.585 219.359 132.558 219.549 132.569 219.74L134.177 253.048C134.199 253.455 134.374 253.84 134.669 254.123C134.963 254.406 135.354 254.567 135.763 254.572H157.737C157.928 254.573 158.117 254.535 158.293 254.461C158.469 254.386 158.627 254.276 158.759 254.137C158.89 253.998 158.992 253.834 159.057 253.655C159.123 253.475 159.151 253.284 159.139 253.093L157.531 219.778C157.513 219.37 157.34 218.985 157.046 218.701C156.753 218.417 156.361 218.257 155.953 218.254L133.972 218.269Z" fill="#FAFAFA"/>
<path d="M155.663 226.043H135.031C134.93 226.043 134.833 226.003 134.761 225.932C134.69 225.86 134.65 225.763 134.65 225.662C134.65 225.561 134.69 225.464 134.761 225.393C134.833 225.321 134.93 225.281 135.031 225.281H155.686C155.787 225.281 155.884 225.321 155.956 225.393C156.027 225.464 156.067 225.561 156.067 225.662C156.067 225.714 156.057 225.766 156.036 225.814C156.016 225.861 155.986 225.905 155.948 225.94C155.91 225.976 155.865 226.003 155.816 226.021C155.767 226.039 155.715 226.047 155.663 226.043Z" fill="#FAFAFA"/>
<path d="M155.877 230.35H135.214C135.113 230.348 135.017 230.307 134.946 230.236C134.875 230.165 134.835 230.069 134.833 229.969C134.833 229.868 134.873 229.771 134.944 229.699C135.016 229.628 135.113 229.588 135.214 229.588H155.877C155.978 229.588 156.075 229.628 156.146 229.699C156.218 229.771 156.258 229.868 156.258 229.969C156.256 230.069 156.215 230.165 156.144 230.236C156.073 230.307 155.977 230.348 155.877 230.35Z" fill="#FAFAFA"/>
<path d="M156.082 234.656H135.419C135.319 234.654 135.223 234.613 135.152 234.542C135.081 234.471 135.04 234.375 135.038 234.275C135.038 234.174 135.078 234.077 135.15 234.005C135.221 233.934 135.318 233.894 135.419 233.894H156.082C156.183 233.894 156.28 233.934 156.352 234.005C156.423 234.077 156.463 234.174 156.463 234.275C156.463 234.376 156.423 234.473 156.352 234.544C156.28 234.616 156.183 234.656 156.082 234.656Z" fill="#FAFAFA"/>
<path d="M156.288 238.962H135.633C135.532 238.962 135.435 238.922 135.363 238.851C135.292 238.779 135.252 238.682 135.252 238.581C135.252 238.48 135.292 238.383 135.363 238.312C135.435 238.24 135.532 238.2 135.633 238.2H156.288C156.389 238.2 156.486 238.24 156.558 238.312C156.629 238.383 156.669 238.48 156.669 238.581C156.669 238.682 156.629 238.779 156.558 238.851C156.486 238.922 156.389 238.962 156.288 238.962Z" fill="#FAFAFA"/>
<path d="M156.493 243.261H135.838C135.737 243.261 135.64 243.221 135.569 243.15C135.497 243.078 135.457 242.981 135.457 242.88C135.457 242.779 135.497 242.682 135.569 242.611C135.64 242.539 135.737 242.499 135.838 242.499H156.493C156.594 242.499 156.691 242.539 156.763 242.611C156.834 242.682 156.875 242.779 156.875 242.88C156.875 242.981 156.834 243.078 156.763 243.15C156.691 243.221 156.594 243.261 156.493 243.261Z" fill="#FAFAFA"/>
<path d="M152.47 247.568H136.045C135.944 247.568 135.847 247.527 135.775 247.456C135.704 247.385 135.663 247.288 135.663 247.187C135.663 247.085 135.704 246.989 135.775 246.917C135.847 246.846 135.944 246.805 136.045 246.805H152.47C152.57 246.807 152.666 246.848 152.737 246.919C152.808 246.99 152.849 247.086 152.851 247.187C152.851 247.288 152.811 247.385 152.739 247.456C152.668 247.527 152.571 247.568 152.47 247.568Z" fill="#FAFAFA"/>
</g>
<g opacity="0.3">
<path d="M171.57 133.14L156.501 135.548C155.92 134.112 155.151 132.759 154.215 131.524C153.311 130.58 152.245 129.805 151.067 129.237L151.631 141.044C160.01 143.254 165.648 145.584 168.544 148.033C170.391 149.572 171.89 151.485 172.941 153.647C173.992 155.808 174.572 158.168 174.642 160.571C174.845 163.385 174.328 166.205 173.14 168.765C172.01 171.149 170.386 173.266 168.376 174.977C166.503 176.581 164.337 177.808 161.997 178.589C159.263 179.412 156.429 179.858 153.575 179.916L153.674 181.989C153.697 182.374 153.64 182.76 153.508 183.122C153.375 183.484 153.17 183.816 152.904 184.095C152.638 184.375 152.317 184.596 151.962 184.747C151.607 184.897 151.224 184.973 150.838 184.969C150.037 184.961 149.268 184.648 148.688 184.095C148.108 183.542 147.76 182.789 147.713 181.989L147.614 179.916C144.269 179.701 140.966 179.05 137.79 177.98C135.354 177.101 133.103 175.778 131.151 174.077C129.376 172.566 127.873 170.761 126.707 168.742C125.534 166.555 124.679 164.212 124.169 161.783L140.564 159.862C141.184 162.56 141.946 164.507 142.851 165.701C143.989 167.092 145.449 168.185 147.104 168.887L146.41 154.458C140.821 152.934 136.857 151.613 134.52 150.495C132.028 149.265 129.885 147.431 128.285 145.16C126.419 142.52 125.386 139.382 125.32 136.151C125.143 133.92 125.454 131.678 126.23 129.58C127.007 127.482 128.231 125.579 129.817 124.001C133.049 120.744 138.003 118.94 144.68 118.59L144.627 117.523C144.604 117.137 144.66 116.752 144.792 116.389C144.925 116.027 145.13 115.696 145.396 115.416C145.662 115.137 145.983 114.915 146.338 114.765C146.694 114.614 147.076 114.539 147.462 114.542C148.263 114.551 149.032 114.863 149.612 115.416C150.192 115.969 150.541 116.722 150.587 117.523L150.64 118.59C156.738 118.971 161.466 120.411 164.825 122.911C168.167 125.458 170.546 129.064 171.57 133.14ZM145.122 129.055C143.763 129.408 142.537 130.15 141.593 131.189C140.95 132.049 140.638 133.113 140.717 134.184C140.757 135.333 141.175 136.437 141.906 137.324C142.924 138.389 144.212 139.158 145.633 139.55L145.122 129.055ZM153.026 169.26C155.312 168.752 156.964 167.901 157.98 166.707C158.468 166.167 158.844 165.537 159.088 164.851C159.331 164.166 159.436 163.439 159.398 162.713C159.323 161.389 158.783 160.133 157.873 159.169C156.913 158.094 155.084 157.088 152.401 156.166L153.026 169.26Z" fill="#FAFAFA"/>
</g>
<path opacity="0.2" d="M211.402 69.8169H135.946L143.301 222.339C143.658 228.589 146.375 234.47 150.903 238.792C155.431 243.115 161.431 245.557 167.691 245.624H243.148L235.793 93.0942C235.435 86.8451 232.718 80.9651 228.19 76.6436C223.662 72.3222 217.661 69.882 211.402 69.8169Z" fill="black"/>
<path d="M229.886 69.8169H135.969C142.227 69.8838 148.227 72.3246 152.755 76.6457C157.282 80.9667 160 86.8458 160.359 93.0942L166.358 217.225C166.715 223.474 169.432 229.355 173.96 233.678C178.488 238.001 184.488 240.442 190.748 240.51H238.103C241.118 240.54 244.107 239.95 246.885 238.776C249.663 237.602 252.169 235.869 254.249 233.685C256.328 231.501 257.936 228.913 258.973 226.081C260.009 223.25 260.453 220.235 260.275 217.225L254.284 93.0713C253.921 86.825 251.2 80.9495 246.671 76.6327C242.142 72.3159 236.143 69.8797 229.886 69.8169Z" fill="#FAFAFA"/>
<path d="M212.912 217.224C213.092 220.233 212.651 223.247 211.617 226.078C210.582 228.909 208.976 231.497 206.899 233.681C204.821 235.865 202.317 237.598 199.541 238.773C196.765 239.948 193.777 240.539 190.763 240.509H284.672C287.687 240.539 290.675 239.948 293.451 238.773C296.228 237.599 298.733 235.866 300.811 233.682C302.889 231.498 304.495 228.91 305.531 226.079C306.566 223.248 307.008 220.234 306.829 217.224H212.912Z" fill="#E6E6E6"/>
<path d="M243.111 146.883H176.739C176.274 146.877 175.828 146.696 175.491 146.375C175.154 146.054 174.952 145.617 174.925 145.152C174.912 144.929 174.946 144.705 175.023 144.495C175.1 144.285 175.22 144.093 175.374 143.931C175.528 143.769 175.714 143.64 175.92 143.553C176.126 143.465 176.347 143.421 176.571 143.422H242.943C243.408 143.429 243.853 143.611 244.189 143.932C244.525 144.252 244.728 144.688 244.757 145.152C244.769 145.376 244.736 145.599 244.659 145.809C244.582 146.019 244.462 146.211 244.308 146.373C244.154 146.536 243.968 146.664 243.762 146.752C243.556 146.839 243.334 146.884 243.111 146.883Z" fill="#049C01"/>
<path d="M243.629 157.69H177.257C176.792 157.685 176.346 157.504 176.009 157.182C175.672 156.861 175.47 156.424 175.443 155.96C175.431 155.736 175.464 155.513 175.541 155.303C175.618 155.093 175.738 154.901 175.892 154.739C176.046 154.577 176.232 154.448 176.438 154.36C176.644 154.273 176.866 154.228 177.089 154.23H243.469C243.933 154.237 244.377 154.419 244.712 154.74C245.047 155.061 245.248 155.497 245.275 155.96C245.287 156.183 245.254 156.407 245.177 156.617C245.1 156.827 244.98 157.019 244.826 157.181C244.672 157.343 244.486 157.472 244.28 157.559C244.074 157.647 243.852 157.691 243.629 157.69Z" fill="#049C01"/>
<path d="M244.154 168.49H177.775C177.31 168.485 176.864 168.304 176.527 167.982C176.19 167.661 175.988 167.224 175.961 166.76C175.949 166.536 175.982 166.313 176.059 166.103C176.136 165.893 176.256 165.701 176.41 165.539C176.564 165.377 176.75 165.248 176.956 165.16C177.162 165.073 177.384 165.028 177.607 165.03H244.025C244.49 165.035 244.936 165.216 245.273 165.537C245.61 165.858 245.812 166.295 245.839 166.76C245.852 166.986 245.817 167.213 245.738 167.426C245.658 167.639 245.535 167.832 245.377 167.995C245.218 168.158 245.028 168.286 244.818 168.371C244.607 168.456 244.381 168.497 244.154 168.49Z" fill="#049C01"/>
<path d="M244.672 179.29H178.3C177.835 179.285 177.389 179.104 177.052 178.783C176.716 178.462 176.513 178.025 176.486 177.56C176.474 177.337 176.507 177.113 176.584 176.903C176.662 176.693 176.781 176.501 176.935 176.339C177.09 176.177 177.275 176.048 177.481 175.961C177.687 175.873 177.909 175.829 178.133 175.83H244.504C244.973 175.839 245.42 176.026 245.755 176.353C246.091 176.68 246.289 177.123 246.311 177.591C246.319 177.811 246.283 178.031 246.204 178.237C246.125 178.442 246.006 178.63 245.853 178.789C245.7 178.948 245.516 179.074 245.313 179.16C245.111 179.246 244.892 179.291 244.672 179.29Z" fill="#049C01"/>
<path d="M218.803 190.099H178.818C178.353 190.094 177.907 189.912 177.57 189.591C177.234 189.27 177.031 188.833 177.004 188.368C176.992 188.145 177.025 187.921 177.102 187.711C177.18 187.501 177.299 187.309 177.453 187.147C177.608 186.985 177.793 186.856 177.999 186.769C178.205 186.681 178.427 186.637 178.651 186.638H218.635C219.101 186.643 219.547 186.825 219.883 187.146C220.22 187.467 220.422 187.904 220.449 188.368C220.462 188.592 220.428 188.815 220.351 189.025C220.274 189.235 220.155 189.427 220 189.59C219.846 189.752 219.66 189.88 219.454 189.968C219.248 190.056 219.027 190.1 218.803 190.099Z" fill="#049C01"/>
<path d="M223.409 124.494C231.263 116.448 230.785 103.244 222.342 95.0023C213.899 86.7601 200.688 86.6007 192.834 94.6462C184.98 102.692 185.457 115.895 193.9 124.138C202.344 132.38 215.555 132.539 223.409 124.494Z" fill="#049C01"/>
<path d="M225.336 109.565C225.48 112.398 224.901 115.22 223.652 117.767C222.297 120.496 220.2 122.788 217.603 124.381C215.005 125.975 212.012 126.804 208.964 126.776C205.812 126.75 202.72 125.907 199.992 124.328C197.264 122.748 194.993 120.487 193.401 117.767C191.916 115.277 191.066 112.461 190.923 109.565C190.792 107.341 191.119 105.113 191.884 103.021C192.65 100.928 193.838 99.0155 195.374 97.4014C196.91 95.7873 198.762 94.5064 200.814 93.6383C202.866 92.7702 205.075 92.3334 207.303 92.3551C211.928 92.4125 216.359 94.2197 219.705 97.4129C223.051 100.606 225.063 104.948 225.336 109.565Z" fill="white"/>
<path opacity="0.4" d="M223.651 117.766C222.295 120.496 220.199 122.788 217.602 124.381C215.004 125.975 212.01 126.804 208.963 126.776C205.811 126.75 202.719 125.907 199.991 124.327C197.263 122.748 194.991 120.487 193.399 117.766C197.786 114.757 202.988 113.161 208.308 113.193C213.757 113.204 219.086 114.792 223.651 117.766Z" fill="#049C01"/>
<path opacity="0.4" d="M213.454 109.148C216.342 106.19 216.168 101.337 213.065 98.3082C209.963 95.2795 205.107 95.2222 202.219 98.1801C199.331 101.138 199.506 105.991 202.608 109.02C205.711 112.049 210.567 112.106 213.454 109.148Z" fill="#049C01"/>
</svg>
