<svg width="28" height="28" viewBox="0 0 28 28" fill="none" xmlns="http://www.w3.org/2000/svg">
<g clip-path="url(#clip0_1_14404)">
<path d="M27.9728 12.4871C27.818 8.02111 26.6463 4.42486 23.9986 2.46136C21.3508 0.497863 17.3722 -0.182012 12.3733 0.0551127C10.0992 0.164488 8.05259 0.461113 6.38921 1.12611C4.67596 1.81386 3.34946 2.78511 2.37909 4.13436C0.428712 6.84599 -0.173288 10.9427 0.0410873 15.6599C0.245837 20.1399 1.40346 23.6854 4.08359 25.6174C6.74971 27.5406 11.0792 28.1514 15.6458 27.9554C20.076 27.7681 23.6757 26.5974 25.6033 23.9129C27.5266 21.2327 28.1373 17.2821 27.9728 12.488V12.4871ZM7.70171 17.2314H7.12334V15.9915H7.70171C8.80421 15.9915 9.61096 15.1392 9.61096 14.0822C9.61108 13.8315 9.56177 13.5832 9.46586 13.3515C9.36996 13.1198 9.22933 12.9093 9.05201 12.7319C8.8747 12.5546 8.66418 12.414 8.43249 12.3181C8.20079 12.2222 7.95247 12.1729 7.70171 12.173H5.83796C5.80506 12.173 5.77304 12.1836 5.74669 12.2034C5.72035 12.2231 5.7011 12.2508 5.69184 12.2824V19.0496H4.48871V12.2824C4.48871 11.5395 5.09509 10.9331 5.83796 10.9331H7.70171C9.44296 10.9331 10.8823 12.3462 10.8823 14.0822C10.8823 15.8235 9.53834 17.2314 7.70171 17.2314ZM17.8552 17.2314H16.6381V13.9912C16.611 13.0751 15.6397 12.1634 14.6055 12.1634C13.4435 12.1634 12.5912 13.1565 12.5912 14.0822C12.5912 15.3991 13.5161 16.0011 14.6055 16.0011H15.0386V17.2314H14.6055C12.8143 17.2314 11.3557 16.0825 11.3557 14.0822C11.3557 12.4556 12.8143 10.9331 14.6055 10.9331C16.2277 10.9331 17.8045 12.2955 17.8552 13.9912V17.2314ZM19.4005 11.1422L20.9868 14.3964L20.2991 15.7955L18.025 11.1422H19.4005ZM20.8722 19.2727H19.4915L23.4885 11.1422H24.8692L20.8722 19.2727Z" fill="black"/>
</g>
<defs>
<clipPath id="clip0_1_14404">
<rect width="28" height="28" fill="white"/>
</clipPath>
</defs>
</svg>
