<svg width="28" height="28" viewBox="0 0 28 28" fill="none" xmlns="http://www.w3.org/2000/svg">
<g clip-path="url(#clip0_24_10114)">
<path d="M27.9728 12.487C27.818 8.02099 26.6463 4.42474 23.9986 2.46124C21.3508 0.497741 17.3722 -0.182134 12.3733 0.0549906C10.0992 0.164366 8.05259 0.460991 6.38921 1.12599C4.67596 1.81374 3.34946 2.78499 2.37909 4.13424C0.428712 6.84587 -0.173288 10.9426 0.0410873 15.6597C0.245837 20.1397 1.40346 23.6852 4.08359 25.6172C6.74971 27.5405 11.0792 28.1512 15.6458 27.9552C20.076 27.768 23.6757 26.5972 25.6033 23.9127C27.5266 21.2326 28.1373 17.282 27.9728 12.4879V12.487ZM7.70171 17.2312H7.12334V15.9914H7.70171C8.80421 15.9914 9.61096 15.1391 9.61096 14.0821C9.61108 13.8314 9.56177 13.583 9.46586 13.3513C9.36996 13.1196 9.22933 12.9091 9.05201 12.7318C8.8747 12.5545 8.66418 12.4139 8.43249 12.318C8.20079 12.2221 7.95247 12.1728 7.70171 12.1729H5.83796C5.80506 12.1729 5.77304 12.1835 5.74669 12.2032C5.72035 12.2229 5.7011 12.2507 5.69184 12.2822V19.0495H4.48871V12.2822C4.48871 11.5394 5.09509 10.933 5.83796 10.933H7.70171C9.44296 10.933 10.8823 12.3461 10.8823 14.0821C10.8823 15.8234 9.53834 17.2312 7.70171 17.2312ZM17.8552 17.2312H16.6381V13.9911C16.611 13.075 15.6397 12.1632 14.6055 12.1632C13.4435 12.1632 12.5912 13.1564 12.5912 14.0821C12.5912 15.399 13.5161 16.001 14.6055 16.001H15.0386V17.2312H14.6055C12.8143 17.2312 11.3557 16.0824 11.3557 14.0821C11.3557 12.4555 12.8143 10.933 14.6055 10.933C16.2277 10.933 17.8045 12.2954 17.8552 13.9911V17.2312ZM19.4005 11.1421L20.9868 14.3962L20.2991 15.7954L18.025 11.1421H19.4005ZM20.8722 19.2726H19.4915L23.4885 11.1421H24.8692L20.8722 19.2726Z" fill="black"/>
</g>
<defs>
<clipPath id="clip0_24_10114">
<rect width="28" height="28" fill="white"/>
</clipPath>
</defs>
</svg>
