<svg width="430" height="373" viewBox="0 0 430 373" fill="none" xmlns="http://www.w3.org/2000/svg">
<g clip-path="url(#clip0_284_7458)">
<path d="M465 327.45H-35V327.7H465V327.45Z" fill="#EBEBEB"/>
<path d="M38.67 336.97H17.46V337.22H38.67V336.97Z" fill="#EBEBEB"/>
<path d="M221.11 334.26H136.14V334.51H221.11V334.26Z" fill="#EBEBEB"/>
<path d="M70.7799 346.26H32.6699V346.51H70.7799V346.26Z" fill="#EBEBEB"/>
<path d="M414.9 344.58H371.71V344.83H414.9V344.58Z" fill="#EBEBEB"/>
<path d="M368.44 344.58H356.47V344.83H368.44V344.58Z" fill="#EBEBEB"/>
<path d="M335.89 340.35H312.89V340.6H335.89V340.35Z" fill="#EBEBEB"/>
<path d="M301.33 340.35H252.89V340.6H301.33V340.35Z" fill="#EBEBEB"/>
<path d="M202 282.85H8.90996C7.39731 282.847 5.94752 282.245 4.87885 281.174C3.81017 280.103 3.20996 278.653 3.20996 277.14V5.71C3.20996 4.19734 3.81017 2.7465 4.87885 1.67595C5.94752 0.605406 7.39731 0.00264913 8.90996 0L202 0C203.514 0 204.967 0.601588 206.038 1.67242C207.108 2.74325 207.71 4.19561 207.71 5.71V277.14C207.71 277.89 207.562 278.632 207.275 279.325C206.988 280.018 206.568 280.647 206.038 281.178C205.507 281.708 204.878 282.128 204.185 282.415C203.492 282.702 202.75 282.85 202 282.85ZM8.90996 0.25C7.46361 0.252649 6.07741 0.829067 5.05562 1.85273C4.03384 2.87639 3.45996 4.26365 3.45996 5.71V277.14C3.45996 278.586 4.03384 279.974 5.05562 280.997C6.07741 282.021 7.46361 282.597 8.90996 282.6H202C203.447 282.597 204.834 282.021 205.858 280.998C206.881 279.975 207.457 278.587 207.46 277.14V5.71C207.457 4.26273 206.881 2.87549 205.858 1.85212C204.834 0.828741 203.447 0.252643 202 0.25H8.90996Z" fill="#EBEBEB"/>
<path d="M418.31 282.85H225.21C223.696 282.847 222.246 282.245 221.175 281.175C220.105 280.104 219.503 278.654 219.5 277.14V5.71C219.503 4.19643 220.105 2.7456 221.175 1.67534C222.246 0.60508 223.696 0.0026438 225.21 0L418.31 0C419.821 0.00529221 421.268 0.609215 422.335 1.67947C423.401 2.74973 424 4.19907 424 5.71V277.14C424 278.651 423.401 280.1 422.335 281.171C421.268 282.241 419.821 282.845 418.31 282.85ZM225.21 0.25C223.763 0.252643 222.375 0.828741 221.352 1.85212C220.329 2.87549 219.753 4.26273 219.75 5.71V277.14C219.753 278.587 220.329 279.975 221.352 280.998C222.375 282.021 223.763 282.597 225.21 282.6H418.31C419.757 282.597 421.145 282.021 422.168 280.998C423.191 279.975 423.767 278.587 423.77 277.14V5.71C423.767 4.26273 423.191 2.87549 422.168 1.85212C421.145 0.828741 419.757 0.252643 418.31 0.25H225.21Z" fill="#EBEBEB"/>
<path d="M40.0302 327.44H55.4302L55.4302 208.92H40.0302L40.0302 327.44Z" fill="#F0F0F0"/>
<path d="M190.22 208.93H55.4302V327.45H190.22V208.93Z" fill="#F5F5F5"/>
<path d="M191.44 253.65H73.1001V317.04H191.44V253.65Z" fill="#FAFAFA"/>
<path d="M191.44 226.06H73.1001V246.93H191.44V226.06Z" fill="#FAFAFA"/>
<g style="mix-blend-mode:multiply" opacity="0.7">
<path d="M72.0401 317.04H73.1001L73.1001 253.65H72.0401L72.0401 317.04Z" fill="#E6E6E6"/>
</g>
<g style="mix-blend-mode:multiply" opacity="0.7">
<path d="M72.0401 246.92H73.1001V226.05H72.0401V246.92Z" fill="#E6E6E6"/>
</g>
<g style="mix-blend-mode:multiply" opacity="0.7">
<path d="M40.0198 216.61L190.55 216.61V213.93L40.0198 213.93V216.61Z" fill="#E6E6E6"/>
</g>
<path d="M38.2302 215.05H55.4302V207.3H38.2302V215.05Z" fill="#F0F0F0"/>
<path d="M192.02 207.31H55.4302V215.06H192.02V207.31Z" fill="#F5F5F5"/>
<path d="M95.8502 184.55C94.992 183.32 94.4902 181.877 94.4002 180.38C94.2699 178.869 94.4018 177.347 94.7902 175.88C95.5726 172.983 96.9711 170.288 98.8902 167.98C99.8249 166.851 100.827 165.779 101.89 164.77C102.45 164.3 102.99 163.77 103.56 163.36C104.107 162.887 104.681 162.446 105.28 162.04C106.458 161.218 107.68 160.46 108.94 159.77C110.221 159.108 111.536 158.514 112.88 157.99C111.88 159.11 110.88 160.09 109.88 161.08C108.88 162.07 107.93 163.08 106.93 164.08C105.93 165.08 105.05 166.08 104.09 167.08C103.62 167.57 103.2 168.08 102.76 168.6C102.297 169.088 101.863 169.602 101.46 170.14C99.7676 172.164 98.3456 174.399 97.2302 176.79C96.6756 177.986 96.2596 179.24 95.9902 180.53C95.7018 181.851 95.6544 183.213 95.8502 184.55Z" fill="#E6E6E6"/>
<path d="M72.4801 180.36C72.9084 179.17 73.1283 177.915 73.1301 176.65C73.1277 176.064 73.0843 175.479 73.0001 174.9C72.8812 174.343 72.7242 173.795 72.5301 173.26C71.6267 171.129 70.2603 169.227 68.5301 167.69C68.1101 167.27 67.6101 166.91 67.1601 166.52C66.7126 166.098 66.2347 165.711 65.7301 165.36C64.7301 164.67 63.7801 163.84 62.7301 163.19C62.2101 162.84 61.7301 162.48 61.1601 162.11C60.5901 161.74 60.1601 161.37 59.5601 161.04C58.4801 160.32 57.3901 159.62 56.3301 158.76C57.6466 158.953 58.9519 159.216 60.2401 159.55C60.8871 159.708 61.5221 159.912 62.1401 160.16C62.7601 160.4 63.3801 160.64 64.0001 160.9L64.9301 161.29C65.2301 161.43 65.5201 161.61 65.8201 161.77C66.4101 162.09 66.9901 162.44 67.5801 162.77C68.1716 163.116 68.7335 163.511 69.2601 163.95C69.7901 164.39 70.3501 164.78 70.8501 165.26C73.0163 167.195 74.5028 169.775 75.0901 172.62C75.1667 172.981 75.2036 173.35 75.2001 173.72C75.2001 174.09 75.2001 174.45 75.2001 174.81C75.1365 175.531 74.9889 176.243 74.7601 176.93C74.3303 178.261 73.5413 179.448 72.4801 180.36Z" fill="#E6E6E6"/>
<path d="M73.55 180.36C74.0851 177.705 74.1495 174.977 73.74 172.3C73.3286 169.776 72.472 167.345 71.21 165.12L70.21 163.47C69.84 162.94 69.42 162.47 69.05 161.91L68.47 161.11L67.8 160.38C67.36 159.89 66.92 159.38 66.49 158.87C65.55 157.87 64.56 156.98 63.6 155.98C62.64 154.98 61.53 154.15 60.54 153.08C61.8998 153.53 63.235 154.05 64.54 154.64C65.79 155.34 67.03 156.08 68.22 156.91C68.78 157.37 69.35 157.84 69.9 158.32L70.73 159.05L71.47 159.88C71.95 160.44 72.47 161 72.9 161.58L74.1 163.49C75.6064 166.125 76.3798 169.115 76.34 172.15C76.3322 175.118 75.3522 178.002 73.55 180.36Z" fill="#E6E6E6"/>
<path d="M94.5698 181.84C92.5782 179.347 90.8991 176.62 89.5698 173.72C88.205 170.825 87.1039 167.813 86.2798 164.72C85.4747 161.606 85.012 158.414 84.8998 155.2C84.8114 151.969 85.3025 148.748 86.3498 145.69C86.6298 148.9 86.9798 151.92 87.4998 154.94C88.0198 157.96 88.7498 160.94 89.4998 163.88C90.2498 166.82 91.1298 169.8 91.9998 172.77C92.8698 175.74 93.7498 178.74 94.5698 181.84Z" fill="#E6E6E6"/>
<path d="M93.5298 181.34C91.1504 179.051 89.0278 176.509 87.1998 173.76C85.345 171.034 83.7163 168.161 82.3298 165.17C80.9391 162.156 79.844 159.015 79.0598 155.79C78.2774 152.548 78.0341 149.2 78.3398 145.88C79.3398 149.05 80.3398 152.05 81.5598 155.01C82.7798 157.97 84.0398 160.87 85.3498 163.78C86.6598 166.69 88.0698 169.56 89.4598 172.46C90.8498 175.36 92.2398 178.29 93.5298 181.34Z" fill="#E6E6E6"/>
<path d="M97.6001 185.15C94.7661 183.442 92.1271 181.431 89.7301 179.15C87.3179 176.899 85.0907 174.458 83.0701 171.85C81.0377 169.225 79.266 166.408 77.7801 163.44C76.2979 160.453 75.3149 157.244 74.8701 153.94C76.5601 156.81 78.2401 159.5 80.0501 162.13C81.8601 164.76 83.7701 167.29 85.7001 169.82C87.6301 172.35 89.7001 174.82 91.6401 177.37C93.5801 179.92 95.6601 182.46 97.6001 185.15Z" fill="#E6E6E6"/>
<path d="M91.48 180.79C88.7454 179.424 86.2034 177.702 83.92 175.67C81.6194 173.657 79.5226 171.423 77.66 169C75.7903 166.554 74.2097 163.899 72.95 161.09C71.6915 158.276 70.9335 155.264 70.71 152.19C72.24 154.87 73.64 157.42 75.26 159.86C76.88 162.3 78.53 164.67 80.26 166.98C81.99 169.29 83.86 171.57 85.74 173.85C87.62 176.13 89.58 178.4 91.48 180.79Z" fill="#E6E6E6"/>
<path d="M96.3701 183.58C95.2469 182.78 94.3012 181.758 93.5921 180.575C92.8831 179.393 92.4262 178.077 92.2501 176.71C91.8782 173.921 92.3301 171.085 93.5501 168.55L93.9701 167.55L94.4801 166.67L95.5501 164.95C95.9635 164.416 96.3835 163.896 96.8101 163.39C97.2215 162.869 97.6657 162.374 98.1401 161.91C99.0903 160.994 100.092 160.132 101.14 159.33C102.215 158.579 103.33 157.888 104.48 157.26C103.811 158.369 103.087 159.444 102.31 160.48C101.57 161.48 100.91 162.58 100.17 163.57C99.4301 164.56 98.8801 165.66 98.1701 166.66L97.3401 168.25L96.9001 169.03L96.5701 169.84C95.5507 171.918 94.9558 174.179 94.8201 176.49C94.7279 178.946 95.2612 181.386 96.3701 183.58Z" fill="#E6E6E6"/>
<path d="M94.5201 180.38C92.506 178.42 91.0436 175.965 90.2801 173.26C89.4403 170.461 89.3988 167.482 90.1601 164.66C90.5391 163.247 91.129 161.898 91.9101 160.66C92.6644 159.431 93.5867 158.314 94.6501 157.34C96.6849 155.425 99.1407 154.014 101.82 153.22C99.9422 155.046 98.1977 157.005 96.6001 159.08C95.863 160.065 95.2139 161.112 94.6601 162.21C94.1049 163.271 93.6721 164.392 93.3701 165.55C92.7403 167.902 92.5605 170.352 92.8401 172.77C93.1289 175.359 93.6921 177.91 94.5201 180.38Z" fill="#E6E6E6"/>
<path d="M89.63 178.02L73.98 163L74.61 177.72L89.63 178.02Z" fill="#E6E6E6"/>
<path d="M106.73 176.42H65.1602L70.6002 207.31H101.29L106.73 176.42Z" fill="#F5F5F5"/>
<path d="M80.7602 176.42H65.1602L70.6002 207.31H78.8002L80.7602 176.42Z" fill="#EBEBEB"/>
<path d="M149.85 21.8701H65.9399V127.35H149.85V21.8701Z" fill="#F0F0F0"/>
<path d="M168.38 21.8701H69.1602V127.35H168.38V21.8701Z" fill="#F5F5F5"/>
<path d="M77.4702 30.18V119.04H160.07V30.18H77.4702Z" fill="white"/>
<path d="M400.44 327.45H272.79L261.46 116.39H389.11L400.44 327.45Z" fill="#EBEBEB"/>
<path d="M404.34 327.45H276.69L265.36 116.39H393.01L404.34 327.45Z" fill="#F5F5F5"/>
<path d="M340.32 305.68H328.92L329.38 138.16H340.78L340.32 305.68Z" fill="white"/>
<path d="M370.47 305.68H359.07L359.54 138.16H370.93L370.47 305.68Z" fill="white"/>
<path d="M310.16 305.68H298.76L299.23 138.16H310.63L310.16 305.68Z" fill="white"/>
<path d="M215 372.61C322.082 372.61 408.89 367.542 408.89 361.29C408.89 355.038 322.082 349.97 215 349.97C107.917 349.97 21.1099 355.038 21.1099 361.29C21.1099 367.542 107.917 372.61 215 372.61Z" fill="#F5F5F5"/>
<path d="M351.777 239.145L350.485 262.689L351.484 262.744L352.775 239.2L351.777 239.145Z" fill="#049C01"/>
<path d="M352.88 219.162L352.214 231.294L353.213 231.349L353.878 219.217L352.88 219.162Z" fill="#049C01"/>
<path d="M331.8 307.57H214.58C212.807 307.591 211.048 307.246 209.415 306.556C207.781 305.866 206.308 304.846 205.087 303.56C203.867 302.273 202.925 300.748 202.322 299.081C201.718 297.414 201.466 295.639 201.58 293.87L215.08 47.7498C215.328 44.0689 216.952 40.6162 219.63 38.0779C222.307 35.5397 225.841 34.1017 229.53 34.0498H346.81C348.579 34.0351 350.332 34.3853 351.96 35.0784C353.587 35.7716 355.055 36.7929 356.27 38.0785C357.485 39.3641 358.422 40.8864 359.023 42.5504C359.623 44.2144 359.874 45.9844 359.76 47.7498L346.25 293.87C346.002 297.551 344.378 301.003 341.7 303.542C339.023 306.08 335.489 307.518 331.8 307.57Z" fill="#049C01"/>
<path opacity="0.8" d="M324.71 307.57H214.58C212.807 307.591 211.048 307.246 209.415 306.556C207.781 305.866 206.308 304.846 205.087 303.56C203.867 302.273 202.925 300.748 202.322 299.081C201.718 297.414 201.466 295.639 201.58 293.87L215.08 47.7498C215.328 44.0689 216.952 40.6162 219.63 38.0779C222.307 35.5397 225.841 34.1017 229.53 34.0498H339.72C341.489 34.0351 343.242 34.3853 344.87 35.0784C346.497 35.7716 347.965 36.7929 349.18 38.0785C350.395 39.3641 351.332 40.8864 351.933 42.5504C352.533 44.2144 352.784 45.9844 352.67 47.7498L339.17 293.87C338.917 297.551 337.29 301.002 334.612 303.54C331.933 306.077 328.399 307.516 324.71 307.57Z" fill="white"/>
<path d="M270.13 78.6595H238.5C237.751 78.6723 237.006 78.5293 236.315 78.2396C235.623 77.9499 234.999 77.5198 234.482 76.9765C233.965 76.4333 233.566 75.7887 233.311 75.0834C233.056 74.3782 232.95 73.6278 233 72.8795C233.105 71.3252 233.791 69.8672 234.921 68.7947C236.051 67.7222 237.543 67.1136 239.1 67.0895H270.73C271.477 67.0837 272.217 67.2321 272.904 67.5254C273.591 67.8187 274.21 68.2506 274.723 68.794C275.235 69.3374 275.63 69.9808 275.883 70.6837C276.135 71.3867 276.24 72.1342 276.19 72.8795C276.086 74.4261 275.405 75.8774 274.284 76.9473C273.162 78.0172 271.68 78.6281 270.13 78.6595Z" fill="white"/>
<path d="M276.23 72.8799C276.051 75.6837 274.817 78.3158 272.776 80.247C270.736 82.1781 268.04 83.2653 265.23 83.2899C263.885 83.3054 262.551 83.0423 261.312 82.5171C260.073 81.9918 258.956 81.2159 258.032 80.2381C257.108 79.2603 256.396 78.1018 255.941 76.8354C255.487 75.5691 255.299 74.2223 255.39 72.8799C255.569 70.076 256.803 67.444 258.844 65.5128C260.885 63.5816 263.581 62.4945 266.39 62.4699C267.736 62.4544 269.07 62.7175 270.308 63.2427C271.547 63.7679 272.664 64.5438 273.588 65.5217C274.512 66.4995 275.224 67.658 275.679 68.9244C276.134 70.1907 276.321 71.5375 276.23 72.8799Z" fill="#049C01"/>
<path d="M268.1 115.67H236.47C235.724 115.677 234.984 115.53 234.297 115.238C233.61 114.945 232.991 114.515 232.478 113.972C231.965 113.429 231.57 112.787 231.318 112.084C231.065 111.382 230.96 110.635 231.01 109.89C231.115 108.335 231.801 106.877 232.931 105.805C234.061 104.732 235.552 104.124 237.11 104.1H268.74C269.487 104.094 270.227 104.242 270.914 104.536C271.601 104.829 272.22 105.261 272.733 105.804C273.245 106.348 273.64 106.991 273.892 107.694C274.145 108.397 274.25 109.144 274.2 109.89C274.095 111.443 273.409 112.9 272.279 113.971C271.148 115.042 269.657 115.648 268.1 115.67Z" fill="white"/>
<path d="M256.895 117.167C261.131 113.046 261.402 106.455 257.501 102.445C253.6 98.4344 247.004 98.5239 242.768 102.644C238.532 106.765 238.261 113.356 242.162 117.367C246.063 121.377 252.659 121.287 256.895 117.167Z" fill="#049C01"/>
<path opacity="0.3" d="M256.895 117.167C261.131 113.046 261.402 106.455 257.501 102.445C253.6 98.4344 247.004 98.5239 242.768 102.644C238.532 106.765 238.261 113.356 242.162 117.367C246.063 121.377 252.659 121.287 256.895 117.167Z" fill="#FAFAFA"/>
<path d="M232.41 189.69H264C265.557 189.668 267.048 189.062 268.178 187.991C269.309 186.92 269.995 185.463 270.1 183.91C270.149 183.164 270.044 182.415 269.791 181.712C269.538 181.008 269.142 180.364 268.629 179.821C268.115 179.277 267.495 178.845 266.807 178.553C266.119 178.26 265.378 178.113 264.63 178.12H233.05C231.491 178.144 229.998 178.752 228.867 179.824C227.735 180.897 227.047 182.355 226.94 183.91C226.893 184.655 227 185.402 227.255 186.103C227.509 186.805 227.905 187.447 228.418 187.989C228.931 188.531 229.55 188.962 230.237 189.255C230.924 189.547 231.663 189.695 232.41 189.69Z" fill="white"/>
<path d="M245.827 191.066C250.082 186.93 250.357 180.311 246.44 176.283C242.524 172.255 235.9 172.343 231.645 176.479C227.391 180.616 227.116 187.235 231.032 191.263C234.949 195.291 241.573 195.203 245.827 191.066Z" fill="#049C01"/>
<path opacity="0.7" d="M245.827 191.066C250.082 186.93 250.357 180.311 246.44 176.283C242.524 172.255 235.9 172.343 231.645 176.479C227.391 180.616 227.116 187.235 231.032 191.263C234.949 195.291 241.573 195.203 245.827 191.066Z" fill="#FAFAFA"/>
<path d="M262 226.7H230.38C229.634 226.705 228.894 226.557 228.207 226.265C227.521 225.972 226.901 225.541 226.388 224.999C225.875 224.457 225.479 223.815 225.225 223.113C224.971 222.411 224.863 221.665 224.91 220.92C225.018 219.364 225.705 217.906 226.837 216.834C227.968 215.762 229.461 215.153 231.02 215.13H262.64C263.388 215.122 264.129 215.27 264.817 215.563C265.505 215.855 266.126 216.287 266.639 216.83C267.153 217.374 267.548 218.018 267.802 218.721C268.055 219.425 268.16 220.173 268.11 220.92C268.005 222.475 267.317 223.933 266.185 225.004C265.053 226.075 263.559 226.681 262 226.7Z" fill="white"/>
<path d="M268.11 220.92C267.931 223.724 266.697 226.356 264.656 228.287C262.615 230.218 259.919 231.305 257.11 231.33C255.764 231.345 254.43 231.082 253.19 230.557C251.951 230.032 250.834 229.256 249.909 228.278C248.984 227.301 248.271 226.142 247.815 224.876C247.359 223.61 247.17 222.263 247.26 220.92C247.444 218.117 248.679 215.486 250.718 213.554C252.758 211.622 255.451 210.531 258.26 210.5C259.607 210.484 260.942 210.748 262.182 211.273C263.422 211.799 264.54 212.576 265.465 213.554C266.39 214.533 267.103 215.693 267.558 216.96C268.013 218.228 268.201 219.576 268.11 220.92Z" fill="#049C01"/>
<path d="M234.44 152.68H266.07C267.627 152.658 269.119 152.052 270.249 150.981C271.379 149.91 272.065 148.453 272.17 146.9C272.22 146.153 272.115 145.405 271.862 144.701C271.609 143.998 271.213 143.354 270.699 142.81C270.186 142.267 269.565 141.835 268.877 141.543C268.189 141.25 267.448 141.102 266.7 141.11H235.08C233.523 141.134 232.031 141.742 230.901 142.815C229.771 143.887 229.085 145.345 228.98 146.9C228.931 147.644 229.035 148.392 229.288 149.094C229.541 149.796 229.936 150.439 230.448 150.982C230.961 151.524 231.58 151.955 232.267 152.248C232.954 152.54 233.694 152.687 234.44 152.68Z" fill="white"/>
<path d="M229 146.9C228.909 148.242 229.096 149.589 229.551 150.855C230.006 152.121 230.718 153.28 231.642 154.258C232.566 155.236 233.683 156.012 234.922 156.537C236.16 157.062 237.495 157.325 238.84 157.31C241.649 157.285 244.345 156.198 246.386 154.267C248.427 152.335 249.661 149.703 249.84 146.9C249.931 145.557 249.743 144.209 249.289 142.943C248.834 141.676 248.122 140.517 247.198 139.538C246.274 138.559 245.158 137.782 243.919 137.256C242.68 136.73 241.346 136.465 240 136.48C237.19 136.507 234.494 137.596 232.453 139.529C230.413 141.462 229.179 144.095 229 146.9Z" fill="#049C01"/>
<path opacity="0.7" d="M229 146.9C228.909 148.242 229.096 149.589 229.551 150.855C230.006 152.121 230.718 153.28 231.642 154.258C232.566 155.236 233.683 156.012 234.922 156.537C236.16 157.062 237.495 157.325 238.84 157.31C241.649 157.285 244.345 156.198 246.386 154.267C248.427 152.335 249.661 149.703 249.84 146.9C249.931 145.557 249.743 144.209 249.289 142.943C248.834 141.676 248.122 140.517 247.198 139.538C246.274 138.559 245.158 137.782 243.919 137.256C242.68 136.73 241.346 136.465 240 136.48C237.19 136.507 234.494 137.596 232.453 139.529C230.413 141.462 229.179 144.095 229 146.9Z" fill="#FAFAFA"/>
<path d="M339.41 71.1398H292.53C292.232 71.1418 291.937 71.0824 291.663 70.9653C291.389 70.8482 291.142 70.6759 290.938 70.4592C290.733 70.2425 290.575 69.9859 290.474 69.7056C290.373 69.4253 290.331 69.1271 290.35 68.8298C290.393 68.2078 290.667 67.6244 291.119 67.1949C291.57 66.7653 292.167 66.5208 292.79 66.5098H339.67C339.969 66.5092 340.264 66.5698 340.538 66.688C340.812 66.8062 341.059 66.9795 341.263 67.1969C341.468 67.4144 341.625 67.6716 341.726 67.9525C341.827 68.2333 341.869 68.5319 341.85 68.8298C341.81 69.4516 341.536 70.0352 341.084 70.4636C340.631 70.892 340.033 71.1335 339.41 71.1398Z" fill="white"/>
<path d="M323.79 79.2399H292.09C291.791 79.2418 291.496 79.1824 291.221 79.0654C290.947 78.9485 290.699 78.7764 290.494 78.5598C290.289 78.3433 290.13 78.0869 290.028 77.8065C289.926 77.5261 289.882 77.2278 289.9 76.9299C289.942 76.308 290.217 75.7246 290.668 75.295C291.12 74.8654 291.717 74.621 292.34 74.6099H324.05C324.349 74.6079 324.646 74.6676 324.921 74.7852C325.196 74.9028 325.444 75.0758 325.65 75.2934C325.855 75.5111 326.014 75.7687 326.115 76.0502C326.217 76.3318 326.259 76.6312 326.24 76.9299C326.197 77.5526 325.921 78.1363 325.467 78.5644C325.013 78.9926 324.414 79.2338 323.79 79.2399Z" fill="white"/>
<path d="M325.37 219.18H284.37C284.072 219.182 283.777 219.122 283.503 219.005C283.229 218.888 282.982 218.716 282.777 218.499C282.573 218.283 282.415 218.026 282.314 217.746C282.213 217.465 282.171 217.167 282.19 216.87C282.23 216.247 282.504 215.662 282.956 215.232C283.408 214.802 284.006 214.559 284.63 214.55H325.58C325.879 214.548 326.176 214.608 326.451 214.725C326.726 214.843 326.974 215.016 327.18 215.233C327.385 215.451 327.544 215.709 327.645 215.99C327.747 216.272 327.789 216.571 327.77 216.87C327.728 217.484 327.459 218.061 327.016 218.488C326.572 218.915 325.985 219.161 325.37 219.18Z" fill="white"/>
<path d="M304.21 227.28H284C283.702 227.282 283.406 227.222 283.132 227.105C282.857 226.989 282.609 226.816 282.404 226.6C282.199 226.383 282.04 226.127 281.938 225.847C281.836 225.566 281.792 225.268 281.81 224.97C281.852 224.348 282.127 223.765 282.578 223.335C283.03 222.905 283.627 222.661 284.25 222.65H304.49C304.789 222.648 305.086 222.708 305.361 222.825C305.636 222.943 305.884 223.116 306.09 223.333C306.295 223.551 306.454 223.809 306.555 224.09C306.657 224.372 306.699 224.671 306.68 224.97C306.637 225.596 306.358 226.183 305.9 226.611C305.441 227.04 304.838 227.279 304.21 227.28Z" fill="white"/>
<path d="M337.19 111.62H290.31C289.687 111.631 289.09 111.875 288.639 112.305C288.187 112.734 287.913 113.318 287.87 113.94C287.852 114.238 287.896 114.536 287.998 114.816C288.1 115.097 288.259 115.353 288.464 115.57C288.669 115.786 288.917 115.958 289.192 116.075C289.466 116.192 289.762 116.252 290.06 116.25H336.94C337.562 116.241 338.159 115.999 338.611 115.571C339.063 115.143 339.337 114.561 339.38 113.94C339.399 113.641 339.357 113.342 339.255 113.06C339.154 112.778 338.995 112.521 338.79 112.303C338.584 112.086 338.336 111.913 338.061 111.795C337.786 111.677 337.489 111.618 337.19 111.62Z" fill="white"/>
<path d="M322.46 103.52H290.76C290.137 103.531 289.54 103.775 289.088 104.205C288.637 104.634 288.362 105.218 288.32 105.84C288.301 106.137 288.343 106.435 288.444 106.715C288.545 106.996 288.703 107.252 288.907 107.469C289.112 107.686 289.359 107.858 289.633 107.975C289.907 108.092 290.202 108.152 290.5 108.15H322.21C322.832 108.141 323.429 107.899 323.881 107.471C324.333 107.043 324.607 106.461 324.65 105.84C324.669 105.541 324.627 105.241 324.525 104.96C324.424 104.678 324.265 104.421 324.06 104.203C323.854 103.985 323.606 103.812 323.331 103.695C323.056 103.577 322.759 103.518 322.46 103.52Z" fill="white"/>
<path d="M312.52 145.16H288.52C288.222 145.162 287.927 145.102 287.653 144.985C287.379 144.868 287.132 144.696 286.927 144.479C286.723 144.263 286.565 144.006 286.464 143.726C286.363 143.445 286.321 143.147 286.34 142.85C286.38 142.227 286.654 141.642 287.106 141.212C287.558 140.782 288.156 140.539 288.78 140.53H312.78C313.079 140.528 313.376 140.588 313.651 140.705C313.926 140.823 314.174 140.996 314.38 141.213C314.585 141.431 314.744 141.689 314.845 141.97C314.947 142.252 314.989 142.551 314.97 142.85C314.927 143.473 314.651 144.056 314.197 144.484C313.743 144.913 313.144 145.154 312.52 145.16Z" fill="white"/>
<path d="M335.35 145.16H321.19C320.892 145.162 320.596 145.102 320.321 144.985C320.047 144.868 319.799 144.696 319.594 144.48C319.389 144.263 319.23 144.007 319.128 143.726C319.026 143.446 318.982 143.148 319 142.85C319.042 142.228 319.317 141.644 319.768 141.215C320.22 140.785 320.817 140.541 321.44 140.53H335.61C335.908 140.529 336.204 140.59 336.478 140.708C336.752 140.826 336.999 140.999 337.203 141.217C337.408 141.434 337.565 141.692 337.666 141.972C337.767 142.253 337.809 142.552 337.79 142.85C337.747 143.471 337.473 144.053 337.021 144.481C336.569 144.909 335.972 145.151 335.35 145.16Z" fill="white"/>
<path d="M319.73 153.26H288C287.702 153.262 287.406 153.202 287.132 153.085C286.857 152.968 286.609 152.796 286.404 152.58C286.199 152.363 286.04 152.107 285.938 151.827C285.836 151.546 285.792 151.248 285.81 150.95C285.852 150.328 286.127 149.745 286.578 149.315C287.03 148.885 287.627 148.641 288.25 148.63H320C320.299 148.628 320.596 148.688 320.871 148.805C321.146 148.923 321.394 149.096 321.6 149.313C321.805 149.531 321.964 149.789 322.065 150.07C322.167 150.352 322.209 150.651 322.19 150.95C322.147 151.574 321.87 152.159 321.414 152.588C320.957 153.016 320.356 153.256 319.73 153.26Z" fill="white"/>
<path d="M280 259.74H226C225.581 259.749 225.164 259.671 224.777 259.51C224.39 259.349 224.042 259.108 223.753 258.804C223.465 258.5 223.244 258.138 223.104 257.743C222.964 257.348 222.908 256.928 222.94 256.51C223 255.639 223.385 254.823 224.018 254.223C224.652 253.623 225.488 253.283 226.36 253.27H280.36C280.78 253.26 281.197 253.339 281.585 253.5C281.973 253.662 282.322 253.904 282.611 254.209C282.899 254.515 283.12 254.877 283.26 255.274C283.399 255.67 283.454 256.091 283.42 256.51C283.362 257.38 282.978 258.197 282.343 258.795C281.709 259.394 280.872 259.732 280 259.74Z" fill="white"/>
<path d="M328.14 259.74H295C294.581 259.749 294.164 259.671 293.777 259.51C293.39 259.349 293.042 259.108 292.753 258.804C292.465 258.5 292.244 258.138 292.104 257.743C291.964 257.348 291.908 256.928 291.94 256.51C292 255.639 292.385 254.823 293.018 254.223C293.652 253.623 294.488 253.283 295.36 253.27H328.5C328.92 253.26 329.337 253.339 329.725 253.5C330.113 253.662 330.462 253.904 330.751 254.209C331.039 254.515 331.26 254.877 331.4 255.274C331.539 255.67 331.594 256.091 331.56 256.51C331.5 257.379 331.115 258.194 330.481 258.793C329.847 259.391 329.012 259.729 328.14 259.74Z" fill="white"/>
<path d="M266.5 271.07H225.4C224.981 271.08 224.564 271.001 224.177 270.84C223.79 270.679 223.442 270.438 223.153 270.134C222.865 269.83 222.644 269.468 222.503 269.073C222.363 268.678 222.308 268.258 222.34 267.84C222.398 266.969 222.782 266.151 223.416 265.551C224.05 264.95 224.887 264.611 225.76 264.6H266.85C267.27 264.59 267.687 264.669 268.075 264.831C268.463 264.992 268.812 265.234 269.101 265.539C269.389 265.845 269.61 266.207 269.75 266.604C269.889 267 269.944 267.421 269.91 267.84C269.852 268.709 269.469 269.524 268.837 270.122C268.205 270.721 267.37 271.059 266.5 271.07Z" fill="white"/>
<path d="M311.13 282.4H224.78C224.361 282.409 223.945 282.331 223.558 282.17C223.171 282.008 222.822 281.768 222.534 281.464C222.245 281.159 222.024 280.798 221.884 280.403C221.744 280.008 221.688 279.588 221.72 279.17C221.778 278.3 222.161 277.484 222.793 276.884C223.424 276.283 224.259 275.943 225.13 275.93H311.48C311.9 275.92 312.318 275.998 312.705 276.16C313.093 276.322 313.443 276.563 313.731 276.869C314.02 277.174 314.241 277.537 314.38 277.933C314.519 278.33 314.574 278.751 314.54 279.17C314.483 280.038 314.099 280.853 313.467 281.452C312.835 282.05 312.001 282.389 311.13 282.4Z" fill="white"/>
<path d="M300.13 185.64H286.25C285.627 185.651 285.03 185.895 284.578 186.325C284.127 186.754 283.852 187.338 283.81 187.96C283.792 188.258 283.836 188.556 283.938 188.836C284.04 189.117 284.199 189.373 284.404 189.59C284.609 189.806 284.857 189.978 285.132 190.095C285.406 190.212 285.702 190.272 286 190.27H299.88C300.502 190.261 301.099 190.019 301.551 189.591C302.003 189.163 302.277 188.581 302.32 187.96C302.339 187.661 302.297 187.362 302.195 187.08C302.094 186.798 301.935 186.541 301.73 186.323C301.524 186.106 301.276 185.933 301.001 185.815C300.726 185.697 300.429 185.638 300.13 185.64Z" fill="white"/>
<path d="M324.89 185.64H308.8C308.177 185.651 307.58 185.895 307.128 186.325C306.677 186.754 306.402 187.338 306.36 187.96C306.342 188.258 306.386 188.556 306.488 188.836C306.59 189.117 306.749 189.373 306.954 189.59C307.159 189.806 307.407 189.978 307.681 190.095C307.956 190.212 308.251 190.272 308.55 190.27H324.64C325.262 190.261 325.859 190.019 326.311 189.591C326.763 189.163 327.037 188.581 327.08 187.96C327.099 187.661 327.057 187.362 326.955 187.08C326.854 186.798 326.695 186.541 326.49 186.323C326.284 186.106 326.036 185.933 325.761 185.815C325.486 185.697 325.189 185.638 324.89 185.64Z" fill="white"/>
<path d="M318.4 177.54H286.7C286.076 177.548 285.478 177.792 285.026 178.222C284.574 178.652 284.3 179.237 284.26 179.86C284.241 180.157 284.283 180.455 284.384 180.735C284.485 181.016 284.643 181.272 284.847 181.489C285.052 181.706 285.299 181.878 285.573 181.995C285.847 182.112 286.142 182.172 286.44 182.17H318.15C318.772 182.161 319.369 181.919 319.821 181.491C320.273 181.063 320.547 180.481 320.59 179.86C320.609 179.561 320.567 179.261 320.465 178.98C320.364 178.698 320.205 178.441 320 178.223C319.794 178.005 319.546 177.832 319.271 177.715C318.996 177.597 318.699 177.538 318.4 177.54Z" fill="white"/>
<path d="M143 118.17C139.73 120.89 136.35 123.84 133.24 126.8C131.68 128.29 130.16 129.8 128.75 131.36C127.384 132.824 126.134 134.392 125.01 136.05L124.82 136.32L124.73 136.48C124.65 136.611 124.58 136.748 124.52 136.89C124.38 137.2 124.25 137.58 124.11 137.99C123.844 138.902 123.636 139.831 123.49 140.77C123.178 142.857 122.977 144.96 122.89 147.07C122.68 151.39 122.68 155.89 122.76 160.31L118.08 161.01C116.907 156.482 116.104 151.867 115.68 147.21C115.457 144.796 115.4 142.371 115.51 139.95C115.585 138.623 115.748 137.304 116 136C116.142 135.274 116.333 134.56 116.57 133.86C116.72 133.48 116.83 133.12 117.03 132.71L117.31 132.11L117.56 131.66C118.784 129.447 120.214 127.355 121.83 125.41C123.328 123.543 124.92 121.754 126.6 120.05C129.889 116.677 133.403 113.533 137.12 110.64L143 118.17Z" fill="#B55B52"/>
<path d="M141.25 106.18C136.13 109.18 128.39 116.98 128.39 116.98L137.88 128.38C137.88 128.38 151.35 120.3 152.99 115.84C155.73 108.36 146.09 103.32 141.25 106.18Z" fill="#049C01"/>
<path d="M122.54 158.61L123.7 165.39L117.41 164.48C117.41 164.48 116.12 159.88 119.41 158.29L122.54 158.61Z" fill="#B55B52"/>
<path d="M121.38 169.51L115.72 167.75L117.41 164.48L123.7 165.39L121.38 169.51Z" fill="#B55B52"/>
<path d="M179.32 82.27C179.32 82.96 179.7 83.52 180.16 83.53C180.62 83.54 180.97 82.98 180.96 82.29C180.95 81.6 180.58 81.04 180.12 81.04C179.66 81.04 179.31 81.58 179.32 82.27Z" fill="#263238"/>
<path d="M179.92 81.0696L181.59 80.6196C181.59 80.6196 180.75 81.8996 179.92 81.0696Z" fill="#263238"/>
<path d="M179.91 83C180.552 84.5819 181.407 86.0689 182.45 87.42C182.094 87.6656 181.689 87.8312 181.262 87.9054C180.836 87.9796 180.399 87.9607 179.98 87.85L179.91 83Z" fill="#A02724"/>
<path d="M180.19 77.6898C180.125 77.7092 180.055 77.7092 179.99 77.6898C179.497 77.5099 178.969 77.4479 178.448 77.5087C177.927 77.5695 177.428 77.7513 176.99 78.0398C176.948 78.08 176.898 78.111 176.844 78.1305C176.789 78.1501 176.731 78.1579 176.673 78.1533C176.615 78.1487 176.559 78.1319 176.508 78.104C176.457 78.0761 176.413 78.0377 176.378 77.9914C176.343 77.945 176.318 77.8918 176.306 77.8352C176.293 77.7787 176.292 77.72 176.304 77.6631C176.315 77.6063 176.339 77.5525 176.372 77.5054C176.406 77.4582 176.45 77.4188 176.5 77.3898C177.04 77.0264 177.658 76.7947 178.304 76.7131C178.95 76.6315 179.606 76.7022 180.22 76.9198C180.321 76.9541 180.405 77.0266 180.454 77.1219C180.502 77.2172 180.512 77.3276 180.48 77.4298C180.458 77.4942 180.419 77.5519 180.369 77.5974C180.318 77.6429 180.256 77.6747 180.19 77.6898Z" fill="#263238"/>
<path d="M158.94 89.6099C159.4 94.7799 157.67 103.25 153.77 106.13C153.77 106.13 156.71 111.57 166.13 112.84C176.5 114.23 171.63 108.39 171.63 108.39C166.12 106.29 166.7 102.15 168.1 98.3899L158.94 89.6099Z" fill="#B55B52"/>
<path d="M177.35 112.41C182.28 113.76 187.46 115.05 192.54 116.19C195.1 116.75 197.66 117.25 200.22 117.75C202.78 118.25 205.35 118.65 207.9 118.98L208.9 119.11L209.56 119.17C210.06 119.2 210.56 119.2 211.06 119.17C212.223 119.094 213.379 118.937 214.52 118.7C216.996 118.192 219.443 117.551 221.85 116.78C226.78 115.24 231.78 113.38 236.67 111.46L238.89 115.63C234.281 118.647 229.443 121.298 224.42 123.56C221.822 124.734 219.149 125.736 216.42 126.56C214.96 126.988 213.473 127.322 211.97 127.56C211.141 127.674 210.306 127.741 209.47 127.76C209.03 127.76 208.53 127.76 208.11 127.76L207.11 127.69C201.603 127.309 196.125 126.58 190.71 125.51C185.311 124.504 179.97 123.209 174.71 121.63L177.35 112.41Z" fill="#B55B52"/>
<path d="M235.37 113.15L236.82 108.23L242.15 110.23C242.15 110.23 240.93 117.61 236.36 115.57L235.37 113.15Z" fill="#B55B52"/>
<path d="M239.91 104.98L245.35 105.59L242.15 110.24L236.82 108.23L239.91 104.98Z" fill="#B55B52"/>
<path d="M143.64 351.92L152.21 352.55L154.76 332.87L146.19 332.24L143.64 351.92Z" fill="#B55B52"/>
<path d="M80.4399 313.77L86.2599 320.23L102.52 308.99L96.6999 302.53L80.4399 313.77Z" fill="#B55B52"/>
<path d="M90.5699 323.89C90.4644 323.884 90.3601 323.863 90.2599 323.83C89.2599 323.5 88.5099 321.57 88.1799 320.45C88.1681 320.412 88.1686 320.371 88.1811 320.334C88.1937 320.296 88.2177 320.263 88.2499 320.24C88.2825 320.218 88.3208 320.207 88.3599 320.207C88.399 320.207 88.4372 320.218 88.4699 320.24C88.7799 320.41 91.5399 321.91 91.6299 323.01C91.6396 323.13 91.618 323.25 91.5672 323.358C91.5163 323.467 91.438 323.561 91.3399 323.63C91.1183 323.798 90.848 323.889 90.5699 323.89ZM88.7199 320.82C89.2199 322.3 89.8299 323.26 90.3899 323.45C90.5113 323.485 90.6396 323.487 90.7623 323.457C90.885 323.428 90.9979 323.366 91.0899 323.28C91.1344 323.251 91.1707 323.211 91.1953 323.163C91.2198 323.116 91.2317 323.063 91.2299 323.01C91.1799 322.43 89.8099 321.45 88.7199 320.82Z" fill="#049C01"/>
<path d="M90.9 321.21C89.9867 321.194 89.0882 320.976 88.27 320.57C88.2399 320.55 88.215 320.524 88.1976 320.492C88.1802 320.461 88.1707 320.426 88.17 320.39C88.1691 320.354 88.1792 320.318 88.1988 320.288C88.2184 320.258 88.2467 320.234 88.28 320.22C88.36 320.17 90.48 318.99 91.65 319.4C91.8027 319.448 91.9427 319.53 92.0603 319.639C92.1778 319.748 92.2699 319.881 92.33 320.03C92.4102 320.172 92.4381 320.338 92.4089 320.499C92.3796 320.659 92.2951 320.805 92.17 320.91C91.7921 321.149 91.3449 321.255 90.9 321.21ZM88.82 320.39C89.82 320.8 91.46 320.99 91.91 320.6C91.98 320.54 92.06 320.43 91.91 320.19C91.8747 320.093 91.8175 320.006 91.7429 319.935C91.6683 319.863 91.5784 319.811 91.48 319.78C90.5518 319.707 89.6236 319.92 88.82 320.39Z" fill="#049C01"/>
<path d="M88.8701 319.28L84.0701 310.76C83.9911 310.613 83.8614 310.499 83.7051 310.44C83.5488 310.381 83.3765 310.381 83.2201 310.44L76.13 313.16C75.9536 313.239 75.7958 313.354 75.667 313.498C75.5382 313.642 75.4413 313.812 75.3828 313.996C75.3242 314.18 75.3053 314.374 75.3272 314.566C75.3492 314.758 75.4115 314.944 75.5101 315.11C77.2401 318.05 78.2101 319.39 80.3201 323.11C81.6201 325.41 83.6201 330.43 85.1601 333.75C86.7001 337.07 89.9601 335.75 89.6101 334.25C88.4341 329.85 88.27 325.242 89.13 320.77C89.2154 320.258 89.1237 319.732 88.8701 319.28Z" fill="#263238"/>
<path d="M155.94 352.83C155.032 352.813 154.128 352.709 153.24 352.52C153.198 352.513 153.16 352.493 153.131 352.462C153.102 352.431 153.084 352.392 153.08 352.35C153.075 352.308 153.083 352.265 153.103 352.228C153.122 352.19 153.153 352.159 153.19 352.14C153.58 351.94 157.06 350.19 158.09 350.78C158.187 350.833 158.269 350.911 158.326 351.006C158.384 351.101 158.417 351.209 158.42 351.32C158.438 351.506 158.412 351.694 158.342 351.868C158.272 352.042 158.162 352.197 158.02 352.32C157.403 352.718 156.671 352.897 155.94 352.83ZM153.94 352.24C155.83 352.55 157.24 352.47 157.78 352C157.871 351.919 157.94 351.818 157.984 351.705C158.027 351.592 158.043 351.47 158.03 351.35C158.031 351.306 158.021 351.262 158 351.224C157.979 351.185 157.948 351.152 157.91 351.13C157.32 350.81 155.35 351.56 153.92 352.24H153.94Z" fill="#049C01"/>
<path d="M153.28 352.53C153.251 352.53 153.222 352.524 153.196 352.512C153.169 352.501 153.146 352.483 153.127 352.461C153.108 352.439 153.094 352.414 153.086 352.386C153.077 352.358 153.076 352.329 153.08 352.3C153.08 352.15 153.49 348.65 155.41 348.65H155.58C156.13 348.71 156.29 348.99 156.33 349.22C156.49 350.22 154.41 352.04 153.33 352.51L153.28 352.53ZM155.42 349.05C154.18 349.05 153.69 351.05 153.54 351.96C154.61 351.32 156.02 349.86 155.93 349.28C155.93 349.28 155.93 349.09 155.54 349.06L155.42 349.05Z" fill="#049C01"/>
<path d="M152.75 351.33H143.11C142.942 351.33 142.78 351.389 142.652 351.497C142.524 351.605 142.438 351.754 142.41 351.92L141.12 359.54C141.094 359.731 141.11 359.925 141.165 360.109C141.221 360.294 141.315 360.464 141.442 360.609C141.569 360.754 141.726 360.87 141.901 360.95C142.077 361.029 142.267 361.07 142.46 361.07C145.82 361.01 147.46 360.81 151.68 360.81C154.28 360.81 159.68 361.08 163.27 361.08C166.86 361.08 167.15 357.52 165.66 357.2C158.98 355.75 156.38 353.76 154.17 351.86C153.774 351.521 153.271 351.333 152.75 351.33Z" fill="#263238"/>
<path opacity="0.2" d="M154.76 332.88L153.34 343.81L144.87 342.39L146.18 332.24L154.76 332.88Z" fill="black"/>
<path opacity="0.2" d="M96.6903 302.54L102.51 308.99L95.7902 313.64L89.7603 307.32L96.6903 302.54Z" fill="black"/>
<path d="M139.32 157.78C146.03 158.67 160.26 160.59 174.03 162.44C187.48 113.75 183.51 112.44 183.51 112.44C180.91 111.222 178.238 110.163 175.51 109.27L175.04 109.12C172.8 108.45 172.33 108.36 169.34 107.67C164.21 106.77 159.45 106.07 153.57 105.56L152.45 105.47C151.39 105.4 150.34 105.35 149.32 105.31C148.64 105.31 147.95 105.31 147.32 105.31H145.1H143.94C143.271 105.325 142.613 105.48 142.007 105.764C141.401 106.047 140.861 106.455 140.422 106.959C139.982 107.464 139.653 108.054 139.454 108.693C139.256 109.332 139.193 110.005 139.27 110.67C142.21 136.25 141.27 144.67 139.32 157.78Z" fill="#049C01"/>
<path opacity="0.2" d="M175 123.45C175.24 125.71 180.46 129.84 182.27 128.73C182.79 126.02 183.17 123.73 183.44 121.88C180.82 121.69 175.69 118.8 175 123.45Z" fill="black"/>
<path d="M169.37 112.09C169.12 104.09 188.51 112.9 192.96 114.88L188 128.26C188 128.26 181.51 128.03 177.38 125.65C175.037 124.218 173.081 122.233 171.684 119.869C170.288 117.504 169.493 114.833 169.37 112.09Z" fill="#049C01"/>
<path d="M156 80.0596C156.64 88.5196 156.73 92.0596 161.11 96.4996C167.68 103.12 178.03 100.78 179.95 92.3697C181.68 84.7997 180.34 72.2397 171.95 68.7597C170.149 67.9498 168.168 67.6243 166.202 67.8154C164.237 68.0065 162.355 68.7075 160.744 69.8491C159.133 70.9906 157.847 72.5332 157.015 74.324C156.183 76.1149 155.833 78.092 156 80.0596Z" fill="#B55B52"/>
<path d="M156.74 71.1198C148.24 68.9898 147.97 76.1198 148.15 79.8798C148.33 83.6398 142.08 85.4398 142.08 90.1498C142.08 96.2898 146.71 99.9498 135.45 101.81C125.92 103.38 122.98 115.29 137.08 122.26C152.69 129.96 176.24 119.12 173.38 108.81C169 92.8898 176.87 92.9998 176 84.0698C175.35 77.5998 181.47 77.2798 179.27 71.8998C176.37 64.8298 156 58.6298 156.74 71.1198Z" fill="#263238"/>
<path d="M146.9 83C145.73 76.85 146.37 72.76 148.8 70.85C151.93 68.39 156.74 70.53 156.94 70.62L156.53 71.53C156.53 71.53 152.06 69.53 149.41 71.64C147.3 73.3 146.79 77.06 147.88 82.81L146.9 83Z" fill="#263238"/>
<path d="M137.29 100.07C135.096 100.002 132.929 99.5659 130.88 98.78L131.25 97.85C131.32 97.85 138.06 100.52 141.18 97.94C142.7 96.68 143.13 94.31 142.47 90.94L143.47 90.75C144.21 94.54 143.66 97.23 141.84 98.75C140.523 99.7055 138.914 100.172 137.29 100.07Z" fill="#263238"/>
<path d="M173.69 83.46C173.61 85.0381 174.019 86.6023 174.86 87.94C176.02 89.82 177.59 89.48 178.1 87.87C178.56 86.43 178.52 83.71 176.95 82.34C175.38 80.97 173.85 81.7 173.69 83.46Z" fill="#B55B52"/>
<path d="M164.87 161.21C164.87 161.21 151.39 218.21 145.09 250.9C138.45 285.43 99.0902 313.59 99.0902 313.59L90.4502 304.7C90.4502 304.7 115.79 282.52 122.3 250.29C135.51 184.85 126.57 171.66 139.3 157.78L164.87 161.21Z" fill="#263238"/>
<path d="M99.83 314.88L89.04 303.77L92.07 300.51L104.6 311.55L99.83 314.88Z" fill="#049C01"/>
<path opacity="0.2" d="M157.71 173.59C147.23 182.69 148.36 214.97 149.46 229.52C153.85 208.84 159.14 185.8 162.24 172.47C161.13 171.64 159.63 171.92 157.71 173.59Z" fill="black"/>
<path d="M173.52 162.47C173.52 162.47 179.58 230.1 176.27 255.89C172.83 282.73 155.27 341.11 155.27 341.11L143 339.51C143 339.51 153 281.66 154.83 255.09C156.77 226.09 148.14 159.09 148.14 159.09L173.52 162.47Z" fill="#263238"/>
<path d="M157.95 341.81L140.33 339.54L140.6 334.33L159.72 336.19L157.95 341.81Z" fill="#049C01"/>
<path d="M139 155.69L137.1 158.56C136.96 158.78 137.22 159.07 137.62 159.12L174 164C174.31 164 174.59 163.92 174.63 163.73L175.27 160.73C175.32 160.51 175.06 160.3 174.72 160.25L139.57 155.53C139.47 155.506 139.364 155.508 139.265 155.536C139.165 155.564 139.074 155.617 139 155.69Z" fill="#049C01"/>
<path opacity="0.3" d="M139 155.69L137.1 158.56C136.96 158.78 137.22 159.07 137.62 159.12L174 164C174.31 164 174.59 163.92 174.63 163.73L175.27 160.73C175.32 160.51 175.06 160.3 174.72 160.25L139.57 155.53C139.47 155.506 139.364 155.508 139.265 155.536C139.165 155.564 139.074 155.617 139 155.69Z" fill="black"/>
<path d="M143.32 160.22L142.38 160.1C142.19 160.1 142.06 159.96 142.09 159.84L142.95 155.84C142.95 155.73 143.15 155.65 143.34 155.68L144.28 155.8C144.47 155.8 144.6 155.94 144.58 156.06L143.71 160.01C143.69 160.17 143.51 160.25 143.32 160.22Z" fill="#263238"/>
<path d="M167.1 163.47L166.16 163.34C165.97 163.34 165.84 163.2 165.86 163.09L166.73 159.09C166.73 158.97 166.93 158.9 167.12 158.92L168.06 159.05C168.25 159.05 168.38 159.19 168.35 159.31L167.49 163.25C167.46 163.42 167.29 163.49 167.1 163.47Z" fill="#263238"/>
</g>
<defs>
<clipPath id="clip0_284_7458">
<rect width="500" height="372.61" fill="white" transform="translate(-35)"/>
</clipPath>
</defs>
</svg>
