<svg width="962" height="187" viewBox="0 0 962 187" fill="none" xmlns="http://www.w3.org/2000/svg">
<path d="M108.136 20.9934H66.5452V142.597H41.5908V20.9934H0V0H108.136V20.9934Z" fill="#049C01"/>
<path d="M108.971 69.9121V48.1264C114.517 45.1557 127.786 40.9966 144.621 40.9966C173.932 40.9966 188.39 55.0582 188.39 79.8146V142.597H166.406L166.01 132.298C165.812 127.743 166.406 124.772 166.406 124.772H166.01C164.228 129.129 153.731 145.172 133.53 145.172C115.903 145.172 102.04 134.675 102.04 115.662C102.04 91.3016 126.004 79.4185 164.426 84.7659V81.0029C164.426 66.5452 155.315 61.5939 140.858 61.5939C127.786 61.5939 115.309 65.951 108.971 69.9121ZM138.877 126.357C153.137 126.357 163.832 112.889 163.832 99.0256C136.699 94.6685 125.212 102.392 125.212 113.681C125.212 121.207 130.559 126.357 138.877 126.357Z" fill="#049C01"/>
<path d="M214.216 115.662V0H238.378V110.513C238.378 120.415 241.943 124.178 249.073 124.178C253.034 124.178 256.797 123.188 258.381 122.594V142.795C256.4 143.587 250.459 145.172 242.339 145.172C226.495 145.172 214.216 137.051 214.216 115.662Z" fill="#049C01"/>
<path d="M367.981 43.5713L333.52 85.162L370.555 142.597H343.026L315.101 97.8373L300.643 113.879V142.597H276.877V0H301.039V88.7269L339.857 43.5713H367.981Z" fill="#049C01"/>
<path d="M533.404 20.9934H491.814V142.597H466.859V20.9934H425.269V0H533.404V20.9934Z" fill="#049C01"/>
<path d="M534.24 69.9121V48.1264C539.785 45.1557 553.055 40.9966 569.889 40.9966C599.201 40.9966 613.659 55.0582 613.659 79.8146V142.597H591.675L591.279 132.298C591.081 127.743 591.675 124.772 591.675 124.772H591.279C589.496 129.129 579 145.172 558.798 145.172C541.172 145.172 527.308 134.675 527.308 115.662C527.308 91.3016 551.272 79.4185 589.694 84.7659V81.0029C589.694 66.5452 580.584 61.5939 566.126 61.5939C553.055 61.5939 540.578 65.951 534.24 69.9121ZM564.146 126.357C578.405 126.357 589.1 112.889 589.1 99.0256C561.967 94.6685 550.48 102.392 550.48 113.681C550.48 121.207 555.828 126.357 564.146 126.357Z" fill="#049C01"/>
<path d="M640.649 43.5713H663.029L663.623 56.2465C663.623 60.0095 662.831 62.5842 662.831 63.3764H663.227C667.188 54.266 680.259 40.9966 699.074 40.9966C722.444 40.9966 733.337 55.0582 733.337 80.6068V142.597H709.175V84.7659C709.175 73.2789 706.402 62.9803 692.935 62.9803C676.496 62.9803 664.811 76.0517 664.811 93.4802V142.597H640.649V43.5713Z" fill="#049C01"/>
<path d="M785.694 118.633C785.694 122.99 792.428 124.574 807.678 126.357C833.622 129.327 847.09 137.249 847.09 155.074C847.09 175.077 826.888 186.762 797.379 186.762C770.246 186.762 750.837 177.85 750.837 160.421C750.837 148.935 762.324 139.626 776.98 136.655C768.265 135.467 762.324 130.714 762.324 123.584C762.324 117.642 767.473 111.701 776.98 108.73C762.918 103.383 753.61 91.6977 753.61 76.6458C753.61 55.2563 772.028 40.9966 795.2 40.9966C801.142 40.9966 806.687 41.7888 811.639 43.5713H848.08V60.9998H835.405C831.048 60.9998 830.652 60.4056 829.859 60.2076C833.82 64.5647 836.395 70.1101 836.395 76.6458C836.395 96.0548 821.343 109.126 801.142 111.305C792.428 112.097 785.694 115.266 785.694 118.633ZM795.2 95.6587C807.083 95.6587 814.807 87.9347 814.807 77.24C814.807 66.5452 807.083 58.4251 795.2 58.4251C783.713 58.4251 775.791 66.5452 775.791 77.24C775.791 87.9347 783.713 95.6587 795.2 95.6587ZM797.775 170.918C813.025 170.918 823.126 165.373 823.126 156.857C823.126 148.538 815.798 142.795 796.587 142.795C783.317 142.795 774.009 149.331 774.009 157.253C774.009 166.363 783.911 170.918 797.775 170.918Z" fill="#049C01"/>
<path d="M909.73 40.9966C939.833 40.9966 961.619 63.1783 961.619 93.0841C961.619 122.99 939.833 145.172 909.73 145.172C879.824 145.172 857.84 122.99 857.84 93.0841C857.84 63.1783 879.824 40.9966 909.73 40.9966ZM909.73 124.574C926.366 124.574 938.645 111.701 938.645 93.0841C938.645 74.4673 926.366 61.5939 909.73 61.5939C893.291 61.5939 880.814 74.4673 880.814 93.0841C880.814 111.701 893.291 124.574 909.73 124.574Z" fill="#049C01"/>
</svg>
